M48
;Layer_Color=9474304
;FILE_FORMAT=4:4
METRIC,LZ
;TYPE=PLATED
T1F00S00C0.3000
T3F00S00C0.7000
T4F00S00C0.8000
T5F00S00C0.8500
T6F00S00C3.0000
%
T01
X00017626Y-00382374
X0003Y-003875
X00042374Y-00382374
X000475Y-0037
X00042374Y-00357625
X0003Y-003525
X00017626Y-00357625
X000125Y-0037
X0002794Y-0013462
Y-0012827
X0003429
Y-0013462
X0003Y-000475
X00042374Y-00042374
X000475Y-0003
X00042374Y-00017626
X00017626
X000125Y-0003
X00017626Y-00042374
X0010033Y-0006604
X0010668
X0010925Y-0010157
X0009144Y-0010668
X0008636
Y-0011176
X0009144
Y-0015494
X0008636
Y-0016002
X0009144
X0010922Y-0015875
X0014097Y-0020066
X0014351Y-0029337
X0014986
Y-0029972
X0014351
X0008509Y-0030607
X0006858
X0021717Y-0033147
X0022352
Y-0033782
X0021717
X0023241Y-0037338
X0030861Y-0033909
X0036576Y-0030734
X0038989
X0039116Y-0022479
X0038481
X0043307Y-0025019
X0044831Y-0024003
X0036322Y-0016891
X0035687
Y-0016256
X0036322
X0038227Y-0013716
X0038862
Y-0013081
X0038227
X0032258Y-0011303
X0032639Y-00108204
X0028702Y-0009906
X0026416Y-00133604
X0024892Y-0014351
X0023876Y-0013081
X002286Y-0012446
X0020955Y-0010922
X0019177Y-0012192
Y-00127
X0018796Y-0014351
X0026035Y-0016764
Y-0017399
X0028321Y-0016637
X00276859Y-00156719
X0031115Y-0003175
X0034544Y-0006604
X0035814Y-0005969
X0016256Y-00062174
X0015621
Y-00055823
X0016256
X0013843Y-0009144
X0005588Y-0012319
Y-0013335
X0045847Y-0016891
X0046482Y-0018796
X0046609Y-0019316
X0045466Y-0019812
X0050546Y-0019177
X0051181
Y-0018542
X0050546
X0052959
Y-0019177
X0053594
Y-0018542
Y-0020955
Y-002159
X0052959
Y-0020955
X0051181
Y-002159
X0050546
Y-0020955
X0049022Y-0026035
Y-00267333
X0059563Y-0030734
X0060706Y-0022733
X0061849Y-0023114
X00635
X0065151Y-0020323
X0065024Y-0012954
Y-0012319
X0065659
Y-0012954
X0061214Y-0014732
X0061722Y-0016129
X0057624
X005632Y-0014732
X0057404Y-0019812
Y-002032
X0059563Y-0006477
X0054864Y-0005969
X00707626Y-00042374
X0072Y-000475
X00732374Y-00042374
X007375Y-0003
X00732374Y-00017626
X00707626
X007025Y-0003
X0071882Y-0022606
X0072517
Y-0023241
X0071882
X0072Y-003525
X00732374Y-00357625
X007375Y-0037
X00732374Y-00382374
X0072Y-003875
X00707626Y-00382374
X007025Y-0037
X00707626Y-00357625
X0072Y-000125
X0030988Y-0001397
X0003Y-000125
T03
X0005215Y-0015969
Y-0010189
T04
X0018796Y-0007874
X0021336
X0023876
X0026416
T05
X00132334Y-00374142
X00157734
X00183134
X0033274Y-0038354
Y-0035814
X0035814
X0038354
X0040894
X0043434
Y-0038354
X0040894
X0038354
X0035814
Y-0004191
Y-0001651
X0038354
X0040894
X0043434
Y-0004191
X0040894
X0038354
X0033274
Y-0001651
X0016129Y-0002032
X0013589
X0011049
X0008509
X0045974Y-0001651
X0048514
X0051054
X0053594
X0056134
X0058674
X0061214
Y-0004191
X0058674
X0056134
X0053594
X0051054
X0048514
X0045974
X007239Y-0008128
Y-0010668
Y-0013208
Y-0015748
Y-0018288
X0061214Y-0035814
X0058674
X0056134
X0053594
X0051054
X0048514
X0045974
Y-0038354
X0048514
X0051054
X0053594
X0056134
X0058674
X0061214
T06
X0003Y-0037
Y-0003
X0072
Y-0037
M30
