G04 Layer_Color=65535*
%FSLAX44Y44*%
%MOMM*%
G71*
G01*
G75*
%ADD28C,0.4000*%
%ADD29C,0.2540*%
%ADD32C,0.2000*%
%ADD52C,0.1000*%
%ADD53C,0.1500*%
%ADD54C,0.2200*%
G36*
X286023Y-241729D02*
X286164Y-241870D01*
X286305Y-242294D01*
Y-242435D01*
Y-242576D01*
X283906Y-248220D01*
X283765Y-248361D01*
X283624Y-248643D01*
X283342Y-248784D01*
X219566D01*
X219002Y-248925D01*
X217449Y-249207D01*
X215898Y-249772D01*
X215756D01*
X215615Y-249913D01*
X214769Y-250477D01*
X213640Y-251324D01*
X212511Y-252453D01*
X212229Y-252735D01*
X211665Y-253440D01*
X210959Y-254710D01*
X210254Y-256121D01*
Y-256262D01*
X210112Y-256545D01*
X209971Y-256968D01*
X209830Y-257391D01*
X209548Y-258802D01*
X209407Y-260495D01*
Y-260636D01*
Y-260777D01*
Y-261201D01*
X209548Y-261765D01*
X209689Y-263035D01*
X209971Y-264587D01*
Y-264728D01*
X210112Y-264869D01*
X210395Y-265857D01*
X211100Y-266986D01*
X212088Y-268114D01*
X224222Y-279543D01*
X224363Y-279685D01*
X224646Y-279967D01*
X224787Y-280531D01*
X224928Y-281095D01*
Y-281236D01*
X224787Y-281660D01*
X224646Y-282224D01*
X224222Y-282647D01*
X224081Y-282789D01*
X223799Y-282930D01*
X223376Y-283071D01*
X222670Y-283212D01*
X190923D01*
X190641Y-282930D01*
Y-282789D01*
X190500Y-282365D01*
Y-282224D01*
X204186Y-248925D01*
Y-248784D01*
X204328Y-248643D01*
X204751Y-247938D01*
X205315Y-247091D01*
X206021Y-246103D01*
X206303Y-245821D01*
X206867Y-245257D01*
X207714Y-244551D01*
X208843Y-243705D01*
X208984D01*
X209125Y-243564D01*
X209830Y-242999D01*
X210818Y-242576D01*
X212088Y-242012D01*
X212229D01*
X212370Y-241870D01*
X213217Y-241729D01*
X214345Y-241588D01*
X215615Y-241447D01*
X285741D01*
X286023Y-241729D01*
D02*
G37*
G36*
X279109Y-258661D02*
X279250Y-258802D01*
Y-259084D01*
Y-259225D01*
Y-259366D01*
X268809Y-284482D01*
Y-284623D01*
X268527Y-285046D01*
X268103Y-285752D01*
X267680Y-286457D01*
X266975Y-287445D01*
X266128Y-288433D01*
X265140Y-289420D01*
X264011Y-290267D01*
X263870Y-290408D01*
X263447Y-290549D01*
X262742Y-290972D01*
X261895Y-291395D01*
X260766Y-291819D01*
X259638Y-292101D01*
X258227Y-292383D01*
X256816Y-292524D01*
X252300D01*
X252159Y-292383D01*
X251877Y-292242D01*
X251736Y-291819D01*
Y-291678D01*
Y-291537D01*
X264999Y-259649D01*
Y-259508D01*
X265140Y-259366D01*
X265564Y-258802D01*
X265705Y-258661D01*
X265846Y-258520D01*
X266128Y-258379D01*
X278827D01*
X279109Y-258661D01*
D02*
G37*
G36*
X255122D02*
X255264Y-258802D01*
X255405Y-259084D01*
X255264Y-259225D01*
X242141Y-291254D01*
X242000Y-291395D01*
X241718Y-291819D01*
X241154Y-292383D01*
X240307Y-292524D01*
X227326D01*
X227185Y-292383D01*
X227326Y-292242D01*
X227467Y-292101D01*
X227891Y-291960D01*
X228455Y-291537D01*
X229161Y-291113D01*
X229866Y-290408D01*
X230854Y-289561D01*
X231559Y-288715D01*
X232406Y-287586D01*
X232547Y-287445D01*
X232688Y-287022D01*
X232970Y-286457D01*
X233393Y-285611D01*
X233817Y-284623D01*
X234099Y-283494D01*
X234240Y-282224D01*
X234381Y-280954D01*
Y-280813D01*
Y-280531D01*
Y-280108D01*
X234240Y-279543D01*
X234099Y-278274D01*
X233535Y-276580D01*
Y-276439D01*
X233393Y-276157D01*
X233252Y-275734D01*
X232970Y-275310D01*
X232124Y-274041D01*
X230995Y-272771D01*
X219425Y-262047D01*
X219284Y-261906D01*
X219143Y-261624D01*
X219002Y-261201D01*
X218860Y-260495D01*
Y-260354D01*
X219002Y-260072D01*
X219143Y-259649D01*
X219425Y-259084D01*
X219566Y-258943D01*
X219848Y-258661D01*
X220271Y-258520D01*
X220836Y-258379D01*
X254840D01*
X255122Y-258661D01*
D02*
G37*
G36*
X22606Y-255270D02*
X20066Y-252730D01*
X22606Y-250190D01*
Y-255270D01*
D02*
G37*
G36*
X290576Y-358140D02*
X288036Y-355600D01*
X290576Y-353060D01*
Y-358140D01*
D02*
G37*
G36*
Y-375920D02*
X288036Y-373380D01*
X290576Y-370840D01*
Y-375920D01*
D02*
G37*
D28*
X481700Y-159660D02*
G03*
X481700Y-159660I-2000J0D01*
G01*
D29*
X332454Y-258826D02*
G03*
X332454Y-258826I-2000J0D01*
G01*
X173960Y-64740D02*
X278160D01*
Y-92740D02*
Y-64740D01*
X173960Y-92740D02*
X278160D01*
X173960D02*
Y-64740D01*
X203454Y-393822D02*
Y-353822D01*
X113454Y-393822D02*
X203454D01*
X113454D02*
Y-353822D01*
X203454D01*
X681482Y-324360D02*
X708152D01*
Y-305562D01*
X681482D02*
X708152D01*
X681482Y-324104D02*
Y-305562D01*
X664690Y-332460D02*
Y-297460D01*
X724690Y-332460D02*
Y-297460D01*
X664690Y-332460D02*
X724690D01*
X664690Y-297460D02*
X724408D01*
X681482Y-284990D02*
X708152D01*
Y-266192D01*
X681482D02*
X708152D01*
X681482Y-284734D02*
Y-266192D01*
X664690Y-293090D02*
Y-258090D01*
X724690Y-293090D02*
Y-258090D01*
X664690Y-293090D02*
X724690D01*
X664690Y-258090D02*
X724408D01*
X709900Y-196880D02*
X737900D01*
Y-66880D01*
X709900D02*
X737900D01*
X709900Y-196880D02*
Y-66880D01*
X626540Y-30510D02*
Y-2716D01*
X626334Y-2510D02*
X626540Y-2716D01*
X318740Y-2510D02*
X626334D01*
X318740Y-30510D02*
Y-2510D01*
Y-55910D02*
X626540D01*
X318740D02*
Y-27910D01*
X626540Y-55910D02*
Y-27910D01*
Y-372140D02*
Y-344346D01*
X626334Y-344140D02*
X626540Y-344346D01*
X318740Y-344140D02*
X626334D01*
X318740Y-372140D02*
Y-344140D01*
Y-397540D02*
X626540D01*
X318740D02*
Y-369540D01*
X626540Y-397540D02*
Y-369540D01*
X50292Y-323090D02*
X76962D01*
Y-304292D01*
X50292D02*
X76962D01*
X50292Y-322834D02*
Y-304292D01*
X33500Y-331190D02*
Y-296190D01*
X93500Y-331190D02*
Y-296190D01*
X33500Y-331190D02*
X93500D01*
X33500Y-296190D02*
X93218D01*
X71090Y-34320D02*
Y-6320D01*
Y-34320D02*
X175290D01*
Y-6320D01*
X71090D02*
X175290D01*
X71140Y-262560D02*
X137140D01*
X71140D02*
Y-226492D01*
X137140D01*
Y-262560D02*
Y-226492D01*
X317980Y-175100D02*
Y-155100D01*
Y-175100D02*
X377980D01*
Y-155100D01*
X317980D02*
X377980D01*
D32*
X205105Y-162560D02*
G03*
X198755Y-162560I-3175J0D01*
G01*
X227965Y-5080D02*
G03*
X234315Y-5080I3175J0D01*
G01*
X-5350Y-86090D02*
X2150D01*
X-5350Y-175490D02*
X2150D01*
X-5350D02*
Y-86090D01*
X68150Y-94489D02*
Y-86489D01*
Y-175490D02*
Y-167490D01*
X27672Y-86106D02*
X42672D01*
X27672Y-175474D02*
X42672D01*
X369820Y-251060D02*
Y-226060D01*
X337820Y-251060D02*
X369820D01*
X337820D02*
Y-226060D01*
X369820D01*
X216662Y-162560D02*
Y-111760D01*
X187198D02*
X216662D01*
X187198Y-162560D02*
Y-111760D01*
Y-162560D02*
X198755D01*
X205105D02*
X216662D01*
X216408Y-55880D02*
Y-5080D01*
Y-55880D02*
X245872D01*
Y-5080D01*
X234315D02*
X245872D01*
X216408D02*
X227965D01*
X181988Y-98452D02*
X180488Y-96953D01*
X177489D01*
X175990Y-98452D01*
Y-104451D01*
X177489Y-105950D01*
X180488D01*
X181988Y-104451D01*
Y-101452D01*
X178989D01*
X195040Y-98452D02*
X196539Y-96953D01*
X199538D01*
X201038Y-98452D01*
Y-99952D01*
X199538Y-101452D01*
X198039D01*
X199538D01*
X201038Y-102951D01*
Y-104451D01*
X199538Y-105950D01*
X196539D01*
X195040Y-104451D01*
X204037Y-96953D02*
Y-102951D01*
X207036Y-105950D01*
X210035Y-102951D01*
Y-96953D01*
X225168Y-98452D02*
X223668Y-96953D01*
X220669D01*
X219170Y-98452D01*
Y-99952D01*
X220669Y-101452D01*
X223668D01*
X225168Y-102951D01*
Y-104451D01*
X223668Y-105950D01*
X220669D01*
X219170Y-104451D01*
X234165Y-98452D02*
X232666Y-96953D01*
X229667D01*
X228167Y-98452D01*
Y-104451D01*
X229667Y-105950D01*
X232666D01*
X234165Y-104451D01*
X237164Y-96953D02*
Y-105950D01*
X243162D01*
X258188Y-98452D02*
X256688Y-96953D01*
X253689D01*
X252190Y-98452D01*
Y-99952D01*
X253689Y-101452D01*
X256688D01*
X258188Y-102951D01*
Y-104451D01*
X256688Y-105950D01*
X253689D01*
X252190Y-104451D01*
X261187Y-96953D02*
Y-105950D01*
X265686D01*
X267185Y-104451D01*
Y-98452D01*
X265686Y-96953D01*
X261187D01*
X270184Y-105950D02*
Y-99952D01*
X273183Y-96953D01*
X276182Y-99952D01*
Y-105950D01*
Y-101452D01*
X270184D01*
X328093Y-106195D02*
Y-112193D01*
X332592D01*
X331092Y-109194D01*
Y-107694D01*
X332592Y-106195D01*
X335591D01*
X337090Y-107694D01*
Y-110693D01*
X335591Y-112193D01*
X328093Y-103196D02*
X334091D01*
X337090Y-100197D01*
X334091Y-97198D01*
X328093D01*
X337090Y-85202D02*
X328093D01*
Y-80703D01*
X329592Y-79204D01*
X332592D01*
X334091Y-80703D01*
Y-85202D01*
X328093Y-76205D02*
X337090D01*
Y-71706D01*
X335591Y-70206D01*
X334091D01*
X332592Y-71706D01*
Y-76205D01*
Y-71706D01*
X331092Y-70206D01*
X329592D01*
X328093Y-71706D01*
Y-76205D01*
X335591Y-67207D02*
X337090Y-65708D01*
Y-62709D01*
X335591Y-61209D01*
X329592D01*
X328093Y-62709D01*
Y-65708D01*
X329592Y-67207D01*
X331092D01*
X332592Y-65708D01*
Y-61209D01*
X387890Y-121190D02*
X378893D01*
Y-116692D01*
X380392Y-115192D01*
X383391D01*
X384891Y-116692D01*
Y-121190D01*
X378893Y-112193D02*
X387890D01*
Y-107694D01*
X386390Y-106195D01*
X384891D01*
X383391Y-107694D01*
Y-112193D01*
Y-107694D01*
X381892Y-106195D01*
X380392D01*
X378893Y-107694D01*
Y-112193D01*
Y-97198D02*
X380392Y-100197D01*
X383391Y-103196D01*
X386390D01*
X387890Y-101696D01*
Y-98697D01*
X386390Y-97198D01*
X384891D01*
X383391Y-98697D01*
Y-103196D01*
X387890Y-85202D02*
X378893D01*
Y-80703D01*
X380392Y-79204D01*
X383391D01*
X384891Y-80703D01*
Y-85202D01*
X378893Y-76205D02*
X387890D01*
Y-71706D01*
X386390Y-70206D01*
X384891D01*
X383391Y-71706D01*
Y-76205D01*
Y-71706D01*
X381892Y-70206D01*
X380392D01*
X378893Y-71706D01*
Y-76205D01*
Y-61209D02*
Y-67207D01*
X383391D01*
X381892Y-64208D01*
Y-62709D01*
X383391Y-61209D01*
X386390D01*
X387890Y-62709D01*
Y-65708D01*
X386390Y-67207D01*
X413290Y-121190D02*
X404293D01*
Y-116692D01*
X405792Y-115192D01*
X408792D01*
X410291Y-116692D01*
Y-121190D01*
X404293Y-112193D02*
X413290D01*
Y-107694D01*
X411791Y-106195D01*
X410291D01*
X408792Y-107694D01*
Y-112193D01*
Y-107694D01*
X407292Y-106195D01*
X405792D01*
X404293Y-107694D01*
Y-112193D01*
X413290Y-98697D02*
X404293D01*
X408792Y-103196D01*
Y-97198D01*
X413290Y-85202D02*
X404293D01*
Y-80703D01*
X405792Y-79204D01*
X408792D01*
X410291Y-80703D01*
Y-85202D01*
X404293Y-76205D02*
X413290D01*
Y-71706D01*
X411791Y-70206D01*
X410291D01*
X408792Y-71706D01*
Y-76205D01*
Y-71706D01*
X407292Y-70206D01*
X405792D01*
X404293Y-71706D01*
Y-76205D01*
X405792Y-67207D02*
X404293Y-65708D01*
Y-62709D01*
X405792Y-61209D01*
X407292D01*
X408792Y-62709D01*
Y-64208D01*
Y-62709D01*
X410291Y-61209D01*
X411791D01*
X413290Y-62709D01*
Y-65708D01*
X411791Y-67207D01*
X438690Y-121190D02*
X429693D01*
Y-116692D01*
X431192Y-115192D01*
X434192D01*
X435691Y-116692D01*
Y-121190D01*
X429693Y-112193D02*
X438690D01*
Y-107694D01*
X437191Y-106195D01*
X431192D01*
X429693Y-107694D01*
Y-112193D01*
X431192Y-103196D02*
X429693Y-101696D01*
Y-98697D01*
X431192Y-97198D01*
X432692D01*
X434192Y-98697D01*
Y-100197D01*
Y-98697D01*
X435691Y-97198D01*
X437191D01*
X438690Y-98697D01*
Y-101696D01*
X437191Y-103196D01*
X438690Y-85202D02*
X429693D01*
Y-80703D01*
X431192Y-79204D01*
X434192D01*
X435691Y-80703D01*
Y-85202D01*
X429693Y-76205D02*
X438690D01*
Y-71706D01*
X437191Y-70206D01*
X431192D01*
X429693Y-71706D01*
Y-76205D01*
X438690Y-61209D02*
Y-67207D01*
X432692Y-61209D01*
X431192D01*
X429693Y-62709D01*
Y-65708D01*
X431192Y-67207D01*
X464090Y-121190D02*
X455093D01*
Y-116692D01*
X456592Y-115192D01*
X459591D01*
X461091Y-116692D01*
Y-121190D01*
X455093Y-112193D02*
X464090D01*
Y-107694D01*
X462590Y-106195D01*
X456592D01*
X455093Y-107694D01*
Y-112193D01*
X464090Y-103196D02*
Y-100197D01*
Y-101696D01*
X455093D01*
X456592Y-103196D01*
X464090Y-86701D02*
X455093D01*
Y-82203D01*
X456592Y-80703D01*
X459591D01*
X461091Y-82203D01*
Y-86701D01*
X455093Y-77704D02*
X464090D01*
Y-73205D01*
X462590Y-71706D01*
X456592D01*
X455093Y-73205D01*
Y-77704D01*
X456592Y-68707D02*
X455093Y-67207D01*
Y-64208D01*
X456592Y-62709D01*
X462590D01*
X464090Y-64208D01*
Y-67207D01*
X462590Y-68707D01*
X456592D01*
X489490Y-121190D02*
X483492D01*
X480493Y-118191D01*
X483492Y-115192D01*
X489490D01*
X484991D01*
Y-121190D01*
X489490Y-112193D02*
Y-109194D01*
Y-110693D01*
X480493D01*
X481992Y-112193D01*
X480493Y-98697D02*
Y-104695D01*
X484991D01*
X483492Y-101696D01*
Y-100197D01*
X484991Y-98697D01*
X487990D01*
X489490Y-100197D01*
Y-103196D01*
X487990Y-104695D01*
X489490Y-86701D02*
X483492D01*
X480493Y-83702D01*
X483492Y-80703D01*
X489490D01*
X484991D01*
Y-86701D01*
X489490Y-77704D02*
Y-74705D01*
Y-76205D01*
X480493D01*
X481992Y-77704D01*
X489490Y-65708D02*
X480493D01*
X484991Y-70206D01*
Y-64208D01*
X514890Y-121190D02*
X508892D01*
X505893Y-118191D01*
X508892Y-115192D01*
X514890D01*
X510392D01*
Y-121190D01*
X514890Y-112193D02*
Y-109194D01*
Y-110693D01*
X505893D01*
X507392Y-112193D01*
Y-104695D02*
X505893Y-103196D01*
Y-100197D01*
X507392Y-98697D01*
X508892D01*
X510392Y-100197D01*
Y-101696D01*
Y-100197D01*
X511891Y-98697D01*
X513391D01*
X514890Y-100197D01*
Y-103196D01*
X513391Y-104695D01*
X514890Y-86701D02*
X508892D01*
X505893Y-83702D01*
X508892Y-80703D01*
X514890D01*
X510392D01*
Y-86701D01*
X514890Y-77704D02*
Y-74705D01*
Y-76205D01*
X505893D01*
X507392Y-77704D01*
X514890Y-64208D02*
Y-70206D01*
X508892Y-64208D01*
X507392D01*
X505893Y-65708D01*
Y-68707D01*
X507392Y-70206D01*
X540290Y-121190D02*
X534292D01*
X531293Y-118191D01*
X534292Y-115192D01*
X540290D01*
X535792D01*
Y-121190D01*
X540290Y-112193D02*
Y-109194D01*
Y-110693D01*
X531293D01*
X532792Y-112193D01*
X540290Y-104695D02*
Y-101696D01*
Y-103196D01*
X531293D01*
X532792Y-104695D01*
X540290Y-88201D02*
X534292D01*
X531293Y-85202D01*
X534292Y-82203D01*
X540290D01*
X535792D01*
Y-88201D01*
X540290Y-79204D02*
Y-76205D01*
Y-77704D01*
X531293D01*
X532792Y-79204D01*
Y-71706D02*
X531293Y-70206D01*
Y-67207D01*
X532792Y-65708D01*
X538791D01*
X540290Y-67207D01*
Y-70206D01*
X538791Y-71706D01*
X532792D01*
X565690Y-121190D02*
X556693D01*
Y-116692D01*
X558192Y-115192D01*
X561191D01*
X562691Y-116692D01*
Y-121190D01*
X558192Y-106195D02*
X556693Y-107694D01*
Y-110693D01*
X558192Y-112193D01*
X564190D01*
X565690Y-110693D01*
Y-107694D01*
X564190Y-106195D01*
X556693Y-103196D02*
Y-97198D01*
X558192D01*
X564190Y-103196D01*
X565690D01*
Y-85202D02*
X556693D01*
Y-80703D01*
X558192Y-79204D01*
X561191D01*
X562691Y-80703D01*
Y-85202D01*
X558192Y-70206D02*
X556693Y-71706D01*
Y-74705D01*
X558192Y-76205D01*
X564190D01*
X565690Y-74705D01*
Y-71706D01*
X564190Y-70206D01*
X556693Y-61209D02*
X558192Y-64208D01*
X561191Y-67207D01*
X564190D01*
X565690Y-65708D01*
Y-62709D01*
X564190Y-61209D01*
X562691D01*
X561191Y-62709D01*
Y-67207D01*
X591090Y-121190D02*
X582093D01*
Y-116692D01*
X583592Y-115192D01*
X586591D01*
X588091Y-116692D01*
Y-121190D01*
X591090Y-112193D02*
X585092D01*
X582093Y-109194D01*
X585092Y-106195D01*
X591090D01*
X586591D01*
Y-112193D01*
X589590Y-103196D02*
X591090Y-101696D01*
Y-98697D01*
X589590Y-97198D01*
X583592D01*
X582093Y-98697D01*
Y-101696D01*
X583592Y-103196D01*
X585092D01*
X586591Y-101696D01*
Y-97198D01*
X591090Y-85202D02*
X582093D01*
Y-80703D01*
X583592Y-79204D01*
X586591D01*
X588091Y-80703D01*
Y-85202D01*
X591090Y-76205D02*
X585092D01*
X582093Y-73205D01*
X585092Y-70206D01*
X591090D01*
X586591D01*
Y-76205D01*
X583592Y-67207D02*
X582093Y-65708D01*
Y-62709D01*
X583592Y-61209D01*
X585092D01*
X586591Y-62709D01*
X588091Y-61209D01*
X589590D01*
X591090Y-62709D01*
Y-65708D01*
X589590Y-67207D01*
X588091D01*
X586591Y-65708D01*
X585092Y-67207D01*
X583592D01*
X586591Y-65708D02*
Y-62709D01*
X608992Y-121190D02*
X607493Y-119691D01*
Y-116692D01*
X608992Y-115192D01*
X610492D01*
X611992Y-116692D01*
Y-118191D01*
Y-116692D01*
X613491Y-115192D01*
X614991D01*
X616490Y-116692D01*
Y-119691D01*
X614991Y-121190D01*
X607493Y-112193D02*
X613491D01*
X616490Y-109194D01*
X613491Y-106195D01*
X607493D01*
X608992Y-103196D02*
X607493Y-101696D01*
Y-98697D01*
X608992Y-97198D01*
X610492D01*
X611992Y-98697D01*
Y-100197D01*
Y-98697D01*
X613491Y-97198D01*
X614991D01*
X616490Y-98697D01*
Y-101696D01*
X614991Y-103196D01*
X608992Y-79204D02*
X607493Y-80703D01*
Y-83702D01*
X608992Y-85202D01*
X614991D01*
X616490Y-83702D01*
Y-80703D01*
X614991Y-79204D01*
X611992D01*
Y-82203D01*
X616490Y-76205D02*
X607493D01*
X616490Y-70206D01*
X607493D01*
Y-67207D02*
X616490D01*
Y-62709D01*
X614991Y-61209D01*
X608992D01*
X607493Y-62709D01*
Y-67207D01*
X608992Y-331092D02*
X607493Y-332592D01*
Y-335591D01*
X608992Y-337090D01*
X614991D01*
X616490Y-335591D01*
Y-332592D01*
X614991Y-331092D01*
X611992D01*
Y-334091D01*
X616490Y-328093D02*
X607493D01*
X616490Y-322095D01*
X607493D01*
Y-319096D02*
X616490D01*
Y-314597D01*
X614991Y-313098D01*
X608992D01*
X607493Y-314597D01*
Y-319096D01*
X608992Y-295104D02*
X607493Y-296603D01*
Y-299602D01*
X608992Y-301102D01*
X614991D01*
X616490Y-299602D01*
Y-296603D01*
X614991Y-295104D01*
X611992D01*
Y-298103D01*
X616490Y-292105D02*
X607493D01*
X616490Y-286106D01*
X607493D01*
Y-283107D02*
X616490D01*
Y-278609D01*
X614991Y-277109D01*
X608992D01*
X607493Y-278609D01*
Y-283107D01*
X583592Y-337090D02*
X582093Y-335591D01*
Y-332592D01*
X583592Y-331092D01*
X585092D01*
X586591Y-332592D01*
Y-334091D01*
Y-332592D01*
X588091Y-331092D01*
X589590D01*
X591090Y-332592D01*
Y-335591D01*
X589590Y-337090D01*
X582093Y-328093D02*
X588091D01*
X591090Y-325094D01*
X588091Y-322095D01*
X582093D01*
X583592Y-319096D02*
X582093Y-317596D01*
Y-314597D01*
X583592Y-313098D01*
X585092D01*
X586591Y-314597D01*
Y-316097D01*
Y-314597D01*
X588091Y-313098D01*
X589590D01*
X591090Y-314597D01*
Y-317596D01*
X589590Y-319096D01*
X583592Y-301102D02*
X582093Y-299602D01*
Y-296603D01*
X583592Y-295104D01*
X585092D01*
X586591Y-296603D01*
Y-298103D01*
Y-296603D01*
X588091Y-295104D01*
X589590D01*
X591090Y-296603D01*
Y-299602D01*
X589590Y-301102D01*
X582093Y-292105D02*
X588091D01*
X591090Y-289105D01*
X588091Y-286106D01*
X582093D01*
X583592Y-283107D02*
X582093Y-281608D01*
Y-278609D01*
X583592Y-277109D01*
X585092D01*
X586591Y-278609D01*
Y-280109D01*
Y-278609D01*
X588091Y-277109D01*
X589590D01*
X591090Y-278609D01*
Y-281608D01*
X589590Y-283107D01*
X556693Y-337090D02*
X565690D01*
Y-332592D01*
X564190Y-331092D01*
X562691D01*
X561191Y-332592D01*
Y-337090D01*
Y-332592D01*
X559692Y-331092D01*
X558192D01*
X556693Y-332592D01*
Y-337090D01*
X565690Y-328093D02*
Y-325094D01*
Y-326593D01*
X556693D01*
X558192Y-328093D01*
X565690Y-316097D02*
X556693D01*
X561191Y-320595D01*
Y-314597D01*
X556693Y-302601D02*
X565690D01*
Y-298103D01*
X564190Y-296603D01*
X562691D01*
X561191Y-298103D01*
Y-302601D01*
Y-298103D01*
X559692Y-296603D01*
X558192D01*
X556693Y-298103D01*
Y-302601D01*
X565690Y-293604D02*
Y-290605D01*
Y-292105D01*
X556693D01*
X558192Y-293604D01*
X556693Y-280109D02*
Y-286106D01*
X561191D01*
X559692Y-283107D01*
Y-281608D01*
X561191Y-280109D01*
X564190D01*
X565690Y-281608D01*
Y-284607D01*
X564190Y-286106D01*
X531293Y-337090D02*
X540290D01*
Y-332592D01*
X538791Y-331092D01*
X537291D01*
X535792Y-332592D01*
Y-337090D01*
Y-332592D01*
X534292Y-331092D01*
X532792D01*
X531293Y-332592D01*
Y-337090D01*
X540290Y-328093D02*
Y-325094D01*
Y-326593D01*
X531293D01*
X532792Y-328093D01*
X540290Y-314597D02*
Y-320595D01*
X534292Y-314597D01*
X532792D01*
X531293Y-316097D01*
Y-319096D01*
X532792Y-320595D01*
X531293Y-302601D02*
X540290D01*
Y-298103D01*
X538791Y-296603D01*
X537291D01*
X535792Y-298103D01*
Y-302601D01*
Y-298103D01*
X534292Y-296603D01*
X532792D01*
X531293Y-298103D01*
Y-302601D01*
X540290Y-293604D02*
Y-290605D01*
Y-292105D01*
X531293D01*
X532792Y-293604D01*
Y-286106D02*
X531293Y-284607D01*
Y-281608D01*
X532792Y-280109D01*
X534292D01*
X535792Y-281608D01*
Y-283107D01*
Y-281608D01*
X537291Y-280109D01*
X538791D01*
X540290Y-281608D01*
Y-284607D01*
X538791Y-286106D01*
X505893Y-337090D02*
X514890D01*
Y-332592D01*
X513391Y-331092D01*
X511891D01*
X510392Y-332592D01*
Y-337090D01*
Y-332592D01*
X508892Y-331092D01*
X507392D01*
X505893Y-332592D01*
Y-337090D01*
X514890Y-328093D02*
Y-325094D01*
Y-326593D01*
X505893D01*
X507392Y-328093D01*
Y-320595D02*
X505893Y-319096D01*
Y-316097D01*
X507392Y-314597D01*
X513391D01*
X514890Y-316097D01*
Y-319096D01*
X513391Y-320595D01*
X507392D01*
X505893Y-302601D02*
X514890D01*
Y-298103D01*
X513391Y-296603D01*
X511891D01*
X510392Y-298103D01*
Y-302601D01*
Y-298103D01*
X508892Y-296603D01*
X507392D01*
X505893Y-298103D01*
Y-302601D01*
X514890Y-293604D02*
Y-290605D01*
Y-292105D01*
X505893D01*
X507392Y-293604D01*
X514890Y-286106D02*
Y-283107D01*
Y-284607D01*
X505893D01*
X507392Y-286106D01*
X489490Y-337090D02*
X480493D01*
Y-332592D01*
X481992Y-331092D01*
X484991D01*
X486491Y-332592D01*
Y-337090D01*
X480493Y-328093D02*
X489490D01*
Y-323594D01*
X487990Y-322095D01*
X486491D01*
X484991Y-323594D01*
Y-328093D01*
Y-323594D01*
X483492Y-322095D01*
X481992D01*
X480493Y-323594D01*
Y-328093D01*
X489490Y-319096D02*
Y-316097D01*
Y-317596D01*
X480493D01*
X481992Y-319096D01*
X489490Y-302601D02*
X480493D01*
Y-298103D01*
X481992Y-296603D01*
X484991D01*
X486491Y-298103D01*
Y-302601D01*
X480493Y-293604D02*
X489490D01*
Y-289105D01*
X487990Y-287606D01*
X486491D01*
X484991Y-289105D01*
Y-293604D01*
Y-289105D01*
X483492Y-287606D01*
X481992D01*
X480493Y-289105D01*
Y-293604D01*
X489490Y-278609D02*
Y-284607D01*
X483492Y-278609D01*
X481992D01*
X480493Y-280109D01*
Y-283107D01*
X481992Y-284607D01*
X464090Y-337090D02*
X455093D01*
Y-332592D01*
X456592Y-331092D01*
X459591D01*
X461091Y-332592D01*
Y-337090D01*
X464090Y-328093D02*
X458092D01*
X455093Y-325094D01*
X458092Y-322095D01*
X464090D01*
X459591D01*
Y-328093D01*
X455093Y-319096D02*
Y-313098D01*
X456592D01*
X462590Y-319096D01*
X464090D01*
Y-301102D02*
X455093D01*
Y-296603D01*
X456592Y-295104D01*
X459591D01*
X461091Y-296603D01*
Y-301102D01*
X455093Y-292105D02*
X464090D01*
Y-287606D01*
X462590Y-286106D01*
X461091D01*
X459591Y-287606D01*
Y-292105D01*
Y-287606D01*
X458092Y-286106D01*
X456592D01*
X455093Y-287606D01*
Y-292105D01*
X456592Y-283107D02*
X455093Y-281608D01*
Y-278609D01*
X456592Y-277109D01*
X462590D01*
X464090Y-278609D01*
Y-281608D01*
X462590Y-283107D01*
X456592D01*
X438690Y-337090D02*
X429693D01*
Y-332592D01*
X431192Y-331092D01*
X434192D01*
X435691Y-332592D01*
Y-337090D01*
X438690Y-328093D02*
X432692D01*
X429693Y-325094D01*
X432692Y-322095D01*
X438690D01*
X434192D01*
Y-328093D01*
X429693Y-313098D02*
Y-319096D01*
X434192D01*
X432692Y-316097D01*
Y-314597D01*
X434192Y-313098D01*
X437191D01*
X438690Y-314597D01*
Y-317596D01*
X437191Y-319096D01*
X438690Y-301102D02*
X429693D01*
Y-296603D01*
X431192Y-295104D01*
X434192D01*
X435691Y-296603D01*
Y-301102D01*
X438690Y-292105D02*
X432692D01*
X429693Y-289105D01*
X432692Y-286106D01*
X438690D01*
X434192D01*
Y-292105D01*
X429693Y-277109D02*
X431192Y-280109D01*
X434192Y-283107D01*
X437191D01*
X438690Y-281608D01*
Y-278609D01*
X437191Y-277109D01*
X435691D01*
X434192Y-278609D01*
Y-283107D01*
X413290Y-337090D02*
X404293D01*
Y-332592D01*
X405792Y-331092D01*
X408792D01*
X410291Y-332592D01*
Y-337090D01*
X413290Y-328093D02*
X407292D01*
X404293Y-325094D01*
X407292Y-322095D01*
X413290D01*
X408792D01*
Y-328093D01*
X405792Y-319096D02*
X404293Y-317596D01*
Y-314597D01*
X405792Y-313098D01*
X407292D01*
X408792Y-314597D01*
Y-316097D01*
Y-314597D01*
X410291Y-313098D01*
X411791D01*
X413290Y-314597D01*
Y-317596D01*
X411791Y-319096D01*
X413290Y-301102D02*
X404293D01*
Y-296603D01*
X405792Y-295104D01*
X408792D01*
X410291Y-296603D01*
Y-301102D01*
X413290Y-292105D02*
X407292D01*
X404293Y-289105D01*
X407292Y-286106D01*
X413290D01*
X408792D01*
Y-292105D01*
X413290Y-278609D02*
X404293D01*
X408792Y-283107D01*
Y-277109D01*
X387890Y-337090D02*
X378893D01*
Y-332592D01*
X380392Y-331092D01*
X383391D01*
X384891Y-332592D01*
Y-337090D01*
X387890Y-328093D02*
X381892D01*
X378893Y-325094D01*
X381892Y-322095D01*
X387890D01*
X383391D01*
Y-328093D01*
X387890Y-319096D02*
Y-316097D01*
Y-317596D01*
X378893D01*
X380392Y-319096D01*
X387890Y-302601D02*
X378893D01*
Y-298103D01*
X380392Y-296603D01*
X383391D01*
X384891Y-298103D01*
Y-302601D01*
X387890Y-293604D02*
X381892D01*
X378893Y-290605D01*
X381892Y-287606D01*
X387890D01*
X383391D01*
Y-293604D01*
X387890Y-278609D02*
Y-284607D01*
X381892Y-278609D01*
X380392D01*
X378893Y-280109D01*
Y-283107D01*
X380392Y-284607D01*
X362490Y-337090D02*
X353493D01*
Y-332592D01*
X354992Y-331092D01*
X357991D01*
X359491Y-332592D01*
Y-337090D01*
Y-334091D02*
X362490Y-331092D01*
X354992Y-322095D02*
X353493Y-323594D01*
Y-326593D01*
X354992Y-328093D01*
X356492D01*
X357991Y-326593D01*
Y-323594D01*
X359491Y-322095D01*
X360990D01*
X362490Y-323594D01*
Y-326593D01*
X360990Y-328093D01*
X353493Y-319096D02*
Y-313098D01*
Y-316097D01*
X362490D01*
Y-301102D02*
X353493D01*
Y-296603D01*
X354992Y-295104D01*
X357991D01*
X359491Y-296603D01*
Y-301102D01*
X362490Y-292105D02*
X356492D01*
X353493Y-289105D01*
X356492Y-286106D01*
X362490D01*
X357991D01*
Y-292105D01*
X354992Y-283107D02*
X353493Y-281608D01*
Y-278609D01*
X354992Y-277109D01*
X360990D01*
X362490Y-278609D01*
Y-281608D01*
X360990Y-283107D01*
X354992D01*
X329592Y-331092D02*
X328093Y-332592D01*
Y-335591D01*
X329592Y-337090D01*
X335591D01*
X337090Y-335591D01*
Y-332592D01*
X335591Y-331092D01*
X337090Y-328093D02*
Y-325094D01*
Y-326593D01*
X328093D01*
X329592Y-328093D01*
Y-320595D02*
X328093Y-319096D01*
Y-316097D01*
X329592Y-314597D01*
X331092D01*
X332592Y-316097D01*
Y-317596D01*
Y-316097D01*
X334091Y-314597D01*
X335591D01*
X337090Y-316097D01*
Y-319096D01*
X335591Y-320595D01*
X329592Y-296603D02*
X328093Y-298103D01*
Y-301102D01*
X329592Y-302601D01*
X335591D01*
X337090Y-301102D01*
Y-298103D01*
X335591Y-296603D01*
X332592D01*
Y-299602D01*
X337090Y-293604D02*
X328093D01*
X337090Y-287606D01*
X328093D01*
Y-284607D02*
X337090D01*
Y-280109D01*
X335591Y-278609D01*
X329592D01*
X328093Y-280109D01*
Y-284607D01*
X80443Y-51692D02*
Y-57690D01*
X84942D01*
X83442Y-54691D01*
Y-53191D01*
X84942Y-51692D01*
X87941D01*
X89440Y-53191D01*
Y-56191D01*
X87941Y-57690D01*
X80443Y-48693D02*
X86441D01*
X89440Y-45694D01*
X86441Y-42695D01*
X80443D01*
X114840Y-57690D02*
X105843D01*
Y-53191D01*
X107342Y-51692D01*
X110342D01*
X111841Y-53191D01*
Y-57690D01*
Y-54691D02*
X114840Y-51692D01*
X105843Y-48693D02*
X114840Y-42695D01*
X105843D02*
X114840Y-48693D01*
X131243Y-57690D02*
Y-51692D01*
Y-54691D01*
X140240D01*
X131243Y-48693D02*
X140240Y-42695D01*
X131243D02*
X140240Y-48693D01*
X158142Y-42588D02*
X156643Y-44087D01*
Y-47086D01*
X158142Y-48586D01*
X164140D01*
X165640Y-47086D01*
Y-44087D01*
X164140Y-42588D01*
X161141D01*
Y-45587D01*
X362490Y-121190D02*
X353493D01*
Y-116692D01*
X354992Y-115192D01*
X357991D01*
X359491Y-116692D01*
Y-121190D01*
X353493Y-112193D02*
X362490D01*
Y-107694D01*
X360990Y-106195D01*
X359491D01*
X357991Y-107694D01*
Y-112193D01*
Y-107694D01*
X356492Y-106195D01*
X354992D01*
X353493Y-107694D01*
Y-112193D01*
X354992Y-103196D02*
X353493Y-101696D01*
Y-98697D01*
X354992Y-97198D01*
X356492D01*
X357991Y-98697D01*
X359491Y-97198D01*
X360990D01*
X362490Y-98697D01*
Y-101696D01*
X360990Y-103196D01*
X359491D01*
X357991Y-101696D01*
X356492Y-103196D01*
X354992D01*
X357991Y-101696D02*
Y-98697D01*
X362490Y-85202D02*
X353493D01*
Y-80703D01*
X354992Y-79204D01*
X357991D01*
X359491Y-80703D01*
Y-85202D01*
X353493Y-76205D02*
X362490D01*
Y-71706D01*
X360990Y-70206D01*
X359491D01*
X357991Y-71706D01*
Y-76205D01*
Y-71706D01*
X356492Y-70206D01*
X354992D01*
X353493Y-71706D01*
Y-76205D01*
Y-67207D02*
Y-61209D01*
X354992D01*
X360990Y-67207D01*
X362490D01*
X645160Y-328823D02*
Y-337820D01*
X649659D01*
X651158Y-336320D01*
Y-334821D01*
X649659Y-333321D01*
X645160D01*
X649659D01*
X651158Y-331822D01*
Y-330322D01*
X649659Y-328823D01*
X645160D01*
X654157Y-337820D02*
X657156D01*
X655657D01*
Y-328823D01*
X654157Y-330322D01*
X645160Y-289453D02*
Y-298450D01*
X649659D01*
X651158Y-296950D01*
Y-295451D01*
X649659Y-293951D01*
X645160D01*
X649659D01*
X651158Y-292452D01*
Y-290952D01*
X649659Y-289453D01*
X645160D01*
X660155Y-298450D02*
X654157D01*
X660155Y-292452D01*
Y-290952D01*
X658656Y-289453D01*
X655657D01*
X654157Y-290952D01*
X178718Y-171572D02*
X177218Y-170073D01*
X174219D01*
X172720Y-171572D01*
Y-177570D01*
X174219Y-179070D01*
X177218D01*
X178718Y-177570D01*
X181717Y-179070D02*
X184716D01*
X183217D01*
Y-170073D01*
X181717Y-171572D01*
X151252Y-260702D02*
X149753Y-262201D01*
Y-265201D01*
X151252Y-266700D01*
X157250D01*
X158750Y-265201D01*
Y-262201D01*
X157250Y-260702D01*
X149753Y-257703D02*
Y-251705D01*
X151252D01*
X157250Y-257703D01*
X158750D01*
X175382Y-241652D02*
X173883Y-243151D01*
Y-246150D01*
X175382Y-247650D01*
X181381D01*
X182880Y-246150D01*
Y-243151D01*
X181381Y-241652D01*
X175382Y-238653D02*
X173883Y-237153D01*
Y-234154D01*
X175382Y-232655D01*
X176882D01*
X178382Y-234154D01*
X179881Y-232655D01*
X181381D01*
X182880Y-234154D01*
Y-237153D01*
X181381Y-238653D01*
X179881D01*
X178382Y-237153D01*
X176882Y-238653D01*
X175382D01*
X178382Y-237153D02*
Y-234154D01*
X421762Y-246732D02*
X420263Y-248232D01*
Y-251231D01*
X421762Y-252730D01*
X427761D01*
X429260Y-251231D01*
Y-248232D01*
X427761Y-246732D01*
X429260Y-243733D02*
Y-240734D01*
Y-242233D01*
X420263D01*
X421762Y-243733D01*
Y-236235D02*
X420263Y-234736D01*
Y-231737D01*
X421762Y-230237D01*
X427761D01*
X429260Y-231737D01*
Y-234736D01*
X427761Y-236235D01*
X421762D01*
X407792Y-244192D02*
X406293Y-245692D01*
Y-248690D01*
X407792Y-250190D01*
X413791D01*
X415290Y-248690D01*
Y-245692D01*
X413791Y-244192D01*
X415290Y-241193D02*
Y-238194D01*
Y-239693D01*
X406293D01*
X407792Y-241193D01*
X415290Y-233695D02*
Y-230696D01*
Y-232196D01*
X406293D01*
X407792Y-233695D01*
X449228Y-146172D02*
X447729Y-144673D01*
X444729D01*
X443230Y-146172D01*
Y-152170D01*
X444729Y-153670D01*
X447729D01*
X449228Y-152170D01*
X452227Y-153670D02*
X455226D01*
X453727D01*
Y-144673D01*
X452227Y-146172D01*
X459725Y-152170D02*
X461224Y-153670D01*
X464223D01*
X465723Y-152170D01*
Y-146172D01*
X464223Y-144673D01*
X461224D01*
X459725Y-146172D01*
Y-147672D01*
X461224Y-149171D01*
X465723D01*
X350168Y-186812D02*
X348669Y-185313D01*
X345670D01*
X344170Y-186812D01*
Y-192810D01*
X345670Y-194310D01*
X348669D01*
X350168Y-192810D01*
X359165Y-194310D02*
X353167D01*
X359165Y-188312D01*
Y-186812D01*
X357666Y-185313D01*
X354667D01*
X353167Y-186812D01*
X362164D02*
X363664Y-185313D01*
X366663D01*
X368162Y-186812D01*
Y-192810D01*
X366663Y-194310D01*
X363664D01*
X362164Y-192810D01*
Y-186812D01*
X49178Y-280792D02*
X47678Y-279293D01*
X44679D01*
X43180Y-280792D01*
Y-286791D01*
X44679Y-288290D01*
X47678D01*
X49178Y-286791D01*
X52177Y-288290D02*
X55176D01*
X53677D01*
Y-279293D01*
X52177Y-280792D01*
X59675Y-279293D02*
X65673D01*
Y-280792D01*
X59675Y-286791D01*
Y-288290D01*
X145698Y-168803D02*
X139700D01*
Y-173302D01*
X142699D01*
X139700D01*
Y-177800D01*
X148697D02*
X151696D01*
X150197D01*
Y-168803D01*
X148697Y-170302D01*
X43180Y-248813D02*
Y-257810D01*
X49178D01*
X52177Y-248813D02*
Y-257810D01*
X56676D01*
X58175Y-256311D01*
Y-250312D01*
X56676Y-248813D01*
X52177D01*
X61174Y-257810D02*
X64173D01*
X62674D01*
Y-248813D01*
X61174Y-250312D01*
X246380Y-370733D02*
Y-379730D01*
X252378D01*
X255377Y-370733D02*
Y-379730D01*
X259876D01*
X261375Y-378231D01*
Y-372232D01*
X259876Y-370733D01*
X255377D01*
X270372Y-379730D02*
X264374D01*
X270372Y-373732D01*
Y-372232D01*
X268873Y-370733D01*
X265874D01*
X264374Y-372232D01*
X246380Y-351683D02*
Y-360680D01*
X252378D01*
X255377Y-351683D02*
Y-360680D01*
X259876D01*
X261375Y-359180D01*
Y-353182D01*
X259876Y-351683D01*
X255377D01*
X264374Y-353182D02*
X265874Y-351683D01*
X268873D01*
X270372Y-353182D01*
Y-354682D01*
X268873Y-356181D01*
X267373D01*
X268873D01*
X270372Y-357681D01*
Y-359180D01*
X268873Y-360680D01*
X265874D01*
X264374Y-359180D01*
X137160Y-139700D02*
Y-130703D01*
X141658D01*
X143158Y-132202D01*
Y-135202D01*
X141658Y-136701D01*
X137160D01*
X140159D02*
X143158Y-139700D01*
X146157D02*
X149156D01*
X147657D01*
Y-130703D01*
X146157Y-132202D01*
X137160Y-121920D02*
Y-112923D01*
X141658D01*
X143158Y-114422D01*
Y-117422D01*
X141658Y-118921D01*
X137160D01*
X140159D02*
X143158Y-121920D01*
X152155D02*
X146157D01*
X152155Y-115922D01*
Y-114422D01*
X150656Y-112923D01*
X147657D01*
X146157Y-114422D01*
X137160Y-104140D02*
Y-95143D01*
X141658D01*
X143158Y-96642D01*
Y-99642D01*
X141658Y-101141D01*
X137160D01*
X140159D02*
X143158Y-104140D01*
X146157Y-96642D02*
X147657Y-95143D01*
X150656D01*
X152155Y-96642D01*
Y-98142D01*
X150656Y-99642D01*
X149156D01*
X150656D01*
X152155Y-101141D01*
Y-102640D01*
X150656Y-104140D01*
X147657D01*
X146157Y-102640D01*
X137160Y-157480D02*
Y-148483D01*
X141658D01*
X143158Y-149982D01*
Y-152982D01*
X141658Y-154481D01*
X137160D01*
X140159D02*
X143158Y-157480D01*
X150656D02*
Y-148483D01*
X146157Y-152982D01*
X152155D01*
X45720Y-273050D02*
Y-264053D01*
X50219D01*
X51718Y-265552D01*
Y-268552D01*
X50219Y-270051D01*
X45720D01*
X48719D02*
X51718Y-273050D01*
X60715Y-264053D02*
X54717D01*
Y-268552D01*
X57716Y-267052D01*
X59216D01*
X60715Y-268552D01*
Y-271551D01*
X59216Y-273050D01*
X56217D01*
X54717Y-271551D01*
X209550Y-372110D02*
Y-363113D01*
X214049D01*
X215548Y-364612D01*
Y-367612D01*
X214049Y-369111D01*
X209550D01*
X212549D02*
X215548Y-372110D01*
X224545Y-363113D02*
X221546Y-364612D01*
X218547Y-367612D01*
Y-370611D01*
X220047Y-372110D01*
X223046D01*
X224545Y-370611D01*
Y-369111D01*
X223046Y-367612D01*
X218547D01*
X246380Y-394970D02*
Y-385973D01*
X250879D01*
X252378Y-387472D01*
Y-390471D01*
X250879Y-391971D01*
X246380D01*
X249379D02*
X252378Y-394970D01*
X255377Y-393470D02*
X256877Y-394970D01*
X259876D01*
X261375Y-393470D01*
Y-387472D01*
X259876Y-385973D01*
X256877D01*
X255377Y-387472D01*
Y-388972D01*
X256877Y-390471D01*
X261375D01*
X247650Y-344170D02*
Y-335173D01*
X252148D01*
X253648Y-336672D01*
Y-339672D01*
X252148Y-341171D01*
X247650D01*
X250649D02*
X253648Y-344170D01*
X256647D02*
X259646D01*
X258147D01*
Y-335173D01*
X256647Y-336672D01*
X264145Y-344170D02*
X267144D01*
X265644D01*
Y-335173D01*
X264145Y-336672D01*
X224790Y-163723D02*
Y-171220D01*
X226290Y-172720D01*
X229289D01*
X230788Y-171220D01*
Y-163723D01*
X233787Y-172720D02*
X236786D01*
X235287D01*
Y-163723D01*
X233787Y-165222D01*
X127000Y-269133D02*
Y-276630D01*
X128499Y-278130D01*
X131498D01*
X132998Y-276630D01*
Y-269133D01*
X135997Y-270632D02*
X137497Y-269133D01*
X140496D01*
X141995Y-270632D01*
Y-272132D01*
X140496Y-273631D01*
X138996D01*
X140496D01*
X141995Y-275131D01*
Y-276630D01*
X140496Y-278130D01*
X137497D01*
X135997Y-276630D01*
X377190Y-245003D02*
X383188Y-254000D01*
Y-245003D02*
X377190Y-254000D01*
X392185D02*
X386187D01*
X392185Y-248002D01*
Y-246502D01*
X390686Y-245003D01*
X387687D01*
X386187Y-246502D01*
X51718Y-217292D02*
X50219Y-215793D01*
X47220D01*
X45720Y-217292D01*
Y-223291D01*
X47220Y-224790D01*
X50219D01*
X51718Y-223291D01*
X60715Y-215793D02*
X57716Y-217292D01*
X54717Y-220292D01*
Y-223291D01*
X56217Y-224790D01*
X59216D01*
X60715Y-223291D01*
Y-221791D01*
X59216Y-220292D01*
X54717D01*
X464820Y-241193D02*
Y-248690D01*
X466320Y-250190D01*
X469319D01*
X470818Y-248690D01*
Y-241193D01*
X478316Y-250190D02*
Y-241193D01*
X473817Y-245692D01*
X479815D01*
X286160Y-138831D02*
X283161D01*
X284660D01*
Y-146329D01*
X283161Y-147829D01*
X281661D01*
X280161Y-146329D01*
X295157Y-147829D02*
X289159D01*
X295157Y-141830D01*
Y-140331D01*
X293657Y-138831D01*
X290658D01*
X289159Y-140331D01*
X286604Y-152293D02*
X283605D01*
X285105D01*
Y-159791D01*
X283605Y-161290D01*
X282106D01*
X280606Y-159791D01*
X289603Y-153793D02*
X291103Y-152293D01*
X294102D01*
X295601Y-153793D01*
Y-155292D01*
X294102Y-156792D01*
X292602D01*
X294102D01*
X295601Y-158291D01*
Y-159791D01*
X294102Y-161290D01*
X291103D01*
X289603Y-159791D01*
X286668Y-123337D02*
X283669D01*
X285168D01*
Y-130835D01*
X283669Y-132334D01*
X282169D01*
X280669Y-130835D01*
X294165Y-132334D02*
Y-123337D01*
X289667Y-127836D01*
X295665D01*
X286668Y-110637D02*
X283669D01*
X285168D01*
Y-118135D01*
X283669Y-119635D01*
X282169D01*
X280669Y-118135D01*
X295665Y-110637D02*
X289667D01*
Y-115136D01*
X292666Y-113636D01*
X294165D01*
X295665Y-115136D01*
Y-118135D01*
X294165Y-119635D01*
X291166D01*
X289667Y-118135D01*
X647348Y-171343D02*
X644349D01*
X645848D01*
Y-178841D01*
X644349Y-180340D01*
X642850D01*
X641350Y-178841D01*
X650347Y-172842D02*
X651847Y-171343D01*
X654846D01*
X656345Y-172842D01*
Y-174342D01*
X654846Y-175842D01*
X656345Y-177341D01*
Y-178841D01*
X654846Y-180340D01*
X651847D01*
X650347Y-178841D01*
Y-177341D01*
X651847Y-175842D01*
X650347Y-174342D01*
Y-172842D01*
X651847Y-175842D02*
X654846D01*
X647348Y-142133D02*
X644349D01*
X645848D01*
Y-149630D01*
X644349Y-151130D01*
X642850D01*
X641350Y-149630D01*
X650347D02*
X651847Y-151130D01*
X654846D01*
X656345Y-149630D01*
Y-143632D01*
X654846Y-142133D01*
X651847D01*
X650347Y-143632D01*
Y-145132D01*
X651847Y-146631D01*
X656345D01*
X647348Y-156103D02*
X644349D01*
X645848D01*
Y-163601D01*
X644349Y-165100D01*
X642850D01*
X641350Y-163601D01*
X650347Y-165100D02*
X653346D01*
X651847D01*
Y-156103D01*
X650347Y-157602D01*
X657845D02*
X659344Y-156103D01*
X662343D01*
X663843Y-157602D01*
Y-163601D01*
X662343Y-165100D01*
X659344D01*
X657845Y-163601D01*
Y-157602D01*
X408198Y-173072D02*
Y-176071D01*
Y-174571D01*
X415695D01*
X417195Y-176071D01*
Y-177570D01*
X415695Y-179070D01*
X417195Y-170073D02*
Y-167074D01*
Y-168573D01*
X408198D01*
X409697Y-170073D01*
X417195Y-162575D02*
Y-159576D01*
Y-161076D01*
X408198D01*
X409697Y-162575D01*
X424073Y-173072D02*
Y-176071D01*
Y-174571D01*
X431571D01*
X433070Y-176071D01*
Y-177570D01*
X431571Y-179070D01*
X433070Y-170073D02*
Y-167074D01*
Y-168573D01*
X424073D01*
X425572Y-170073D01*
X433070Y-156577D02*
Y-162575D01*
X427072Y-156577D01*
X425572D01*
X424073Y-158077D01*
Y-161076D01*
X425572Y-162575D01*
X277778Y-8783D02*
X274779D01*
X276278D01*
Y-16280D01*
X274779Y-17780D01*
X273279D01*
X271780Y-16280D01*
X280777Y-17780D02*
X283776D01*
X282277D01*
Y-8783D01*
X280777Y-10282D01*
X288275D02*
X289774Y-8783D01*
X292773D01*
X294273Y-10282D01*
Y-11782D01*
X292773Y-13282D01*
X291274D01*
X292773D01*
X294273Y-14781D01*
Y-16280D01*
X292773Y-17780D01*
X289774D01*
X288275Y-16280D01*
X276508Y-27833D02*
X273509D01*
X275009D01*
Y-35331D01*
X273509Y-36830D01*
X272010D01*
X270510Y-35331D01*
X279507Y-36830D02*
X282506D01*
X281007D01*
Y-27833D01*
X279507Y-29332D01*
X291503Y-36830D02*
Y-27833D01*
X287005Y-32332D01*
X293003D01*
X298450Y-105410D02*
Y-96413D01*
X302948D01*
X304448Y-97912D01*
Y-100912D01*
X302948Y-102411D01*
X298450D01*
X301449D02*
X304448Y-105410D01*
X307447Y-96413D02*
X313445D01*
Y-97912D01*
X307447Y-103911D01*
Y-105410D01*
X298450Y-62230D02*
Y-53233D01*
X302948D01*
X304448Y-54732D01*
Y-57731D01*
X302948Y-59231D01*
X298450D01*
X301449D02*
X304448Y-62230D01*
X307447Y-54732D02*
X308947Y-53233D01*
X311946D01*
X313445Y-54732D01*
Y-56232D01*
X311946Y-57731D01*
X313445Y-59231D01*
Y-60731D01*
X311946Y-62230D01*
X308947D01*
X307447Y-60731D01*
Y-59231D01*
X308947Y-57731D01*
X307447Y-56232D01*
Y-54732D01*
X308947Y-57731D02*
X311946D01*
X623570Y-226060D02*
X614573D01*
Y-221562D01*
X616072Y-220062D01*
X619072D01*
X620571Y-221562D01*
Y-226060D01*
Y-223061D02*
X623570Y-220062D01*
Y-217063D02*
Y-214064D01*
Y-215563D01*
X614573D01*
X616072Y-217063D01*
Y-209565D02*
X614573Y-208066D01*
Y-205067D01*
X616072Y-203567D01*
X622071D01*
X623570Y-205067D01*
Y-208066D01*
X622071Y-209565D01*
X616072D01*
X638810Y-226060D02*
X629813D01*
Y-221562D01*
X631312Y-220062D01*
X634311D01*
X635811Y-221562D01*
Y-226060D01*
Y-223061D02*
X638810Y-220062D01*
Y-217063D02*
Y-214064D01*
Y-215563D01*
X629813D01*
X631312Y-217063D01*
X638810Y-203567D02*
Y-209565D01*
X632812Y-203567D01*
X631312D01*
X629813Y-205067D01*
Y-208066D01*
X631312Y-209565D01*
X173934Y-45613D02*
Y-53110D01*
X175433Y-54610D01*
X178432D01*
X179932Y-53110D01*
Y-45613D01*
X188929D02*
X182931D01*
Y-50111D01*
X185930Y-48612D01*
X187429D01*
X188929Y-50111D01*
Y-53110D01*
X187429Y-54610D01*
X184430D01*
X182931Y-53110D01*
X661792Y-246732D02*
X660293Y-248232D01*
Y-251231D01*
X661792Y-252730D01*
X667791D01*
X669290Y-251231D01*
Y-248232D01*
X667791Y-246732D01*
X669290Y-243733D02*
Y-240734D01*
Y-242233D01*
X660293D01*
X661792Y-243733D01*
X669290Y-230237D02*
Y-236235D01*
X663292Y-230237D01*
X661792D01*
X660293Y-231737D01*
Y-234736D01*
X661792Y-236235D01*
X677032Y-246732D02*
X675533Y-248232D01*
Y-251231D01*
X677032Y-252730D01*
X683030D01*
X684530Y-251231D01*
Y-248232D01*
X683030Y-246732D01*
X684530Y-243733D02*
Y-240734D01*
Y-242233D01*
X675533D01*
X677032Y-243733D01*
Y-236235D02*
X675533Y-234736D01*
Y-231737D01*
X677032Y-230237D01*
X678532D01*
X680032Y-231737D01*
Y-233236D01*
Y-231737D01*
X681531Y-230237D01*
X683030D01*
X684530Y-231737D01*
Y-234736D01*
X683030Y-236235D01*
X380648Y-209672D02*
X379148Y-208173D01*
X376149D01*
X374650Y-209672D01*
Y-215671D01*
X376149Y-217170D01*
X379148D01*
X380648Y-215671D01*
X383647Y-217170D02*
X386646D01*
X385147D01*
Y-208173D01*
X383647Y-209672D01*
X397143Y-208173D02*
X394144Y-209672D01*
X391145Y-212672D01*
Y-215671D01*
X392644Y-217170D01*
X395643D01*
X397143Y-215671D01*
Y-214171D01*
X395643Y-212672D01*
X391145D01*
X320162Y-211172D02*
X318663Y-212672D01*
Y-215671D01*
X320162Y-217170D01*
X326161D01*
X327660Y-215671D01*
Y-212672D01*
X326161Y-211172D01*
X327660Y-208173D02*
Y-205174D01*
Y-206673D01*
X318663D01*
X320162Y-208173D01*
Y-200675D02*
X318663Y-199176D01*
Y-196177D01*
X320162Y-194677D01*
X321662D01*
X323162Y-196177D01*
X324661Y-194677D01*
X326161D01*
X327660Y-196177D01*
Y-199176D01*
X326161Y-200675D01*
X324661D01*
X323162Y-199176D01*
X321662Y-200675D01*
X320162D01*
X323162Y-199176D02*
Y-196177D01*
X51718Y-235072D02*
X50219Y-233573D01*
X47220D01*
X45720Y-235072D01*
Y-241070D01*
X47220Y-242570D01*
X50219D01*
X51718Y-241070D01*
X54717D02*
X56217Y-242570D01*
X59216D01*
X60715Y-241070D01*
Y-235072D01*
X59216Y-233573D01*
X56217D01*
X54717Y-235072D01*
Y-236572D01*
X56217Y-238071D01*
X60715D01*
X317500Y-140863D02*
X323498Y-149860D01*
Y-140863D02*
X317500Y-149860D01*
X326497Y-142362D02*
X327997Y-140863D01*
X330996D01*
X332495Y-142362D01*
Y-143862D01*
X330996Y-145361D01*
X329496D01*
X330996D01*
X332495Y-146861D01*
Y-148361D01*
X330996Y-149860D01*
X327997D01*
X326497Y-148361D01*
X137160Y-87630D02*
Y-78633D01*
X141658D01*
X143158Y-80132D01*
Y-83132D01*
X141658Y-84631D01*
X137160D01*
X140159D02*
X143158Y-87630D01*
X146157D02*
X149156D01*
X147657D01*
Y-78633D01*
X146157Y-80132D01*
X153655D02*
X155154Y-78633D01*
X158153D01*
X159653Y-80132D01*
Y-81632D01*
X158153Y-83132D01*
X156654D01*
X158153D01*
X159653Y-84631D01*
Y-86131D01*
X158153Y-87630D01*
X155154D01*
X153655Y-86131D01*
X143510Y-332633D02*
Y-341630D01*
X148008D01*
X149508Y-340131D01*
Y-338631D01*
X148008Y-337132D01*
X143510D01*
X148008D01*
X149508Y-335632D01*
Y-334132D01*
X148008Y-332633D01*
X143510D01*
X154007Y-341630D02*
X157006D01*
X158505Y-340131D01*
Y-337132D01*
X157006Y-335632D01*
X154007D01*
X152507Y-337132D01*
Y-340131D01*
X154007Y-341630D01*
X163004D02*
X166003D01*
X167502Y-340131D01*
Y-337132D01*
X166003Y-335632D01*
X163004D01*
X161504Y-337132D01*
Y-340131D01*
X163004Y-341630D01*
X172001Y-334132D02*
Y-335632D01*
X170501D01*
X173500D01*
X172001D01*
Y-340131D01*
X173500Y-341630D01*
X118110Y-334132D02*
X119609Y-332633D01*
X122608D01*
X124108Y-334132D01*
Y-340131D01*
X122608Y-341630D01*
X119609D01*
X118110Y-340131D01*
Y-334132D01*
X54610Y-345440D02*
Y-336443D01*
X59109D01*
X60608Y-337942D01*
Y-340942D01*
X59109Y-342441D01*
X54610D01*
X57609D02*
X60608Y-345440D01*
X68106D02*
X65107D01*
X63607Y-343941D01*
Y-340942D01*
X65107Y-339442D01*
X68106D01*
X69605Y-340942D01*
Y-342441D01*
X63607D01*
X72604Y-345440D02*
X77103D01*
X78602Y-343941D01*
X77103Y-342441D01*
X74104D01*
X72604Y-340942D01*
X74104Y-339442D01*
X78602D01*
X86100Y-345440D02*
X83101D01*
X81601Y-343941D01*
Y-340942D01*
X83101Y-339442D01*
X86100D01*
X87599Y-340942D01*
Y-342441D01*
X81601D01*
X92098Y-337942D02*
Y-339442D01*
X90598D01*
X93597D01*
X92098D01*
Y-343941D01*
X93597Y-345440D01*
X75848Y-362072D02*
X74349Y-360573D01*
X71350D01*
X69850Y-362072D01*
Y-368070D01*
X71350Y-369570D01*
X74349D01*
X75848Y-368070D01*
Y-365071D01*
X72849D01*
X78847Y-369570D02*
Y-360573D01*
X84845Y-369570D01*
Y-360573D01*
X87844D02*
Y-369570D01*
X92343D01*
X93842Y-368070D01*
Y-362072D01*
X92343Y-360573D01*
X87844D01*
X678180Y-180462D02*
X679679Y-178963D01*
X682679D01*
X684178Y-180462D01*
Y-181962D01*
X682679Y-183461D01*
X681179D01*
X682679D01*
X684178Y-184961D01*
Y-186460D01*
X682679Y-187960D01*
X679679D01*
X678180Y-186460D01*
X687177Y-178963D02*
Y-184961D01*
X690176Y-187960D01*
X693175Y-184961D01*
Y-178963D01*
X696174Y-180462D02*
X697674Y-178963D01*
X700673D01*
X702172Y-180462D01*
Y-181962D01*
X700673Y-183461D01*
X699173D01*
X700673D01*
X702172Y-184961D01*
Y-186460D01*
X700673Y-187960D01*
X697674D01*
X696174Y-186460D01*
X678180Y-153563D02*
Y-162560D01*
X682679D01*
X684178Y-161061D01*
Y-155062D01*
X682679Y-153563D01*
X678180D01*
X687177D02*
X690176D01*
X688677D01*
Y-162560D01*
X687177D01*
X690176D01*
X699173Y-153563D02*
X696174D01*
X694675Y-155062D01*
Y-161061D01*
X696174Y-162560D01*
X699173D01*
X700673Y-161061D01*
Y-155062D01*
X699173Y-153563D01*
X684178Y-129662D02*
X682679Y-128163D01*
X679679D01*
X678180Y-129662D01*
Y-135660D01*
X679679Y-137160D01*
X682679D01*
X684178Y-135660D01*
X687177Y-128163D02*
Y-137160D01*
X693175D01*
X696174Y-128163D02*
Y-137160D01*
Y-134161D01*
X702172Y-128163D01*
X697674Y-132662D01*
X702172Y-137160D01*
X678180Y-111760D02*
Y-102763D01*
X682679D01*
X684178Y-104262D01*
Y-107261D01*
X682679Y-108761D01*
X678180D01*
X681179D02*
X684178Y-111760D01*
X693175Y-104262D02*
X691676Y-102763D01*
X688677D01*
X687177Y-104262D01*
Y-105762D01*
X688677Y-107261D01*
X691676D01*
X693175Y-108761D01*
Y-110260D01*
X691676Y-111760D01*
X688677D01*
X687177Y-110260D01*
X696174Y-102763D02*
X702172D01*
X699173D01*
Y-111760D01*
X684178Y-78862D02*
X682679Y-77363D01*
X679679D01*
X678180Y-78862D01*
Y-84860D01*
X679679Y-86360D01*
X682679D01*
X684178Y-84860D01*
Y-81861D01*
X681179D01*
X687177Y-86360D02*
Y-77363D01*
X693175Y-86360D01*
Y-77363D01*
X696174D02*
Y-86360D01*
X700673D01*
X702172Y-84860D01*
Y-78862D01*
X700673Y-77363D01*
X696174D01*
X193346Y-341626D02*
X196345D01*
X194846D01*
Y-332629D01*
X193346Y-334128D01*
D52*
X221870Y-378270D02*
X225420D01*
X221870Y-386270D02*
X225420D01*
X429450Y-213990D02*
Y-210440D01*
X421450Y-213990D02*
Y-210440D01*
X414210Y-213990D02*
Y-210440D01*
X406210Y-213990D02*
Y-210440D01*
X423550Y-153860D02*
X427100D01*
X423550Y-145860D02*
X427100D01*
X288007Y-373351D02*
X290576Y-370782D01*
Y-370840D02*
Y-370782D01*
Y-370840D02*
Y-370782D01*
X288036Y-373380D02*
X290576Y-375920D01*
Y-370782D01*
X287910Y-377380D02*
X291460D01*
X287910Y-369380D02*
X291460D01*
X287910Y-385890D02*
X291460D01*
X287910Y-393890D02*
X291460D01*
X384430Y-186500D02*
X387980D01*
X384430Y-194500D02*
X387980D01*
X19690Y-287210D02*
X23240D01*
X19690Y-279210D02*
X23240D01*
X288007Y-355571D02*
X290576Y-353002D01*
Y-353060D02*
Y-353002D01*
Y-353060D02*
Y-353002D01*
X288036Y-355600D02*
X290576Y-358140D01*
Y-353002D01*
X287910Y-359600D02*
X291460D01*
X287910Y-351600D02*
X291460D01*
X287910Y-335090D02*
X291460D01*
X287910Y-343090D02*
X291460D01*
X116460Y-129350D02*
X120010D01*
X116460Y-137350D02*
X120010D01*
X116460Y-111570D02*
X120010D01*
X116460Y-119570D02*
X120010D01*
X200280Y-171260D02*
X203830D01*
X200280Y-179260D02*
X203830D01*
X116460Y-95060D02*
X120010D01*
X116460Y-103060D02*
X120010D01*
X116460Y-147130D02*
X120010D01*
X116460Y-155130D02*
X120010D01*
X20037Y-252701D02*
X22606Y-250132D01*
Y-250190D02*
Y-250132D01*
Y-250190D02*
Y-250132D01*
X20066Y-252730D02*
X22606Y-255270D01*
Y-250132D01*
X19940Y-256730D02*
X23490D01*
X19940Y-248730D02*
X23490D01*
X19940Y-263970D02*
X23490D01*
X19940Y-271970D02*
X23490D01*
X555700Y-170660D02*
Y-165660D01*
X550700Y-165556D02*
X555700D01*
X485596Y-170660D02*
Y-165660D01*
X485700D02*
X490700D01*
X555804Y-235660D02*
Y-230660D01*
X550700Y-235660D02*
X555700D01*
X485700Y-235764D02*
X490700D01*
X485700Y-235660D02*
Y-230660D01*
X637730Y-249550D02*
Y-246000D01*
X629730Y-249550D02*
Y-246000D01*
X622490Y-249550D02*
Y-246000D01*
X614490Y-249550D02*
Y-246000D01*
X295280Y-75120D02*
X298830D01*
X295280Y-67120D02*
X298830D01*
X295280Y-89090D02*
X298830D01*
X295280Y-81090D02*
X298830D01*
X326580Y-239390D02*
Y-235840D01*
X318580Y-239390D02*
Y-235840D01*
X353950Y-208090D02*
X357500D01*
X353950Y-216090D02*
X357500D01*
X668210Y-213960D02*
Y-210410D01*
X660210Y-213960D02*
Y-210410D01*
X683450Y-213990D02*
Y-210440D01*
X675450Y-213990D02*
Y-210440D01*
X19690Y-241490D02*
X23240D01*
X19690Y-233490D02*
X23240D01*
X116460Y-78550D02*
X120010D01*
X116460Y-86550D02*
X120010D01*
D53*
X114110Y-166450D02*
X122110D01*
X114110Y-176450D02*
X122110D01*
X20130Y-214710D02*
X28130D01*
X20130Y-224710D02*
X28130D01*
X172800Y-216090D02*
Y-208090D01*
X182800Y-216090D02*
Y-208090D01*
X163830Y-231394D02*
Y-209296D01*
X145230Y-231140D02*
Y-209296D01*
D54*
X161667Y-303693D02*
X159668Y-301694D01*
X155669D01*
X153670Y-303693D01*
Y-305693D01*
X155669Y-307692D01*
X159668D01*
X161667Y-309691D01*
Y-311691D01*
X159668Y-313690D01*
X155669D01*
X153670Y-311691D01*
X165666Y-301694D02*
X173664D01*
X169665D01*
Y-313690D01*
X177662D02*
Y-301694D01*
X181661Y-305693D01*
X185660Y-301694D01*
Y-313690D01*
X189658Y-303693D02*
X191658Y-301694D01*
X195656D01*
X197656Y-303693D01*
Y-305693D01*
X195656Y-307692D01*
X193657D01*
X195656D01*
X197656Y-309691D01*
Y-311691D01*
X195656Y-313690D01*
X191658D01*
X189658Y-311691D01*
X209652Y-313690D02*
X201654D01*
X209652Y-305693D01*
Y-303693D01*
X207652Y-301694D01*
X203654D01*
X201654Y-303693D01*
X221648D02*
X219649Y-301694D01*
X215650D01*
X213651Y-303693D01*
Y-311691D01*
X215650Y-313690D01*
X219649D01*
X221648Y-311691D01*
Y-307692D01*
X217649D01*
X225647Y-303693D02*
X227646Y-301694D01*
X231645D01*
X233644Y-303693D01*
Y-311691D01*
X231645Y-313690D01*
X227646D01*
X225647Y-311691D01*
Y-303693D01*
X237643Y-301694D02*
X245640D01*
Y-303693D01*
X237643Y-311691D01*
Y-313690D01*
X249639Y-303693D02*
X251638Y-301694D01*
X255637D01*
X257636Y-303693D01*
Y-311691D01*
X255637Y-313690D01*
X251638D01*
X249639Y-311691D01*
Y-303693D01*
X269632D02*
X267633Y-301694D01*
X263634D01*
X261635Y-303693D01*
Y-311691D01*
X263634Y-313690D01*
X267633D01*
X269632Y-311691D01*
X273631Y-301694D02*
Y-313690D01*
X279629D01*
X281629Y-311691D01*
Y-309691D01*
X279629Y-307692D01*
X273631D01*
X279629D01*
X281629Y-305693D01*
Y-303693D01*
X279629Y-301694D01*
X273631D01*
X285627D02*
X293625D01*
X289626D01*
Y-313690D01*
X305621Y-301694D02*
X301622Y-303693D01*
X297623Y-307692D01*
Y-311691D01*
X299623Y-313690D01*
X303621D01*
X305621Y-311691D01*
Y-309691D01*
X303621Y-307692D01*
X297623D01*
M02*
