G04 Layer_Color=16711935*
%FSLAX44Y44*%
%MOMM*%
G71*
G01*
G75*
%ADD56R,0.9900X1.2400*%
%ADD60R,1.2032X1.2032*%
%ADD61R,1.2032X1.2032*%
%ADD63R,1.7032X1.4032*%
%ADD72O,0.5032X0.4032*%
%ADD75O,2.4032X1.2032*%
%ADD76O,2.7032X1.2032*%
%ADD77C,0.9032*%
%ADD78O,1.7032X2.2032*%
%ADD79C,2.2032*%
%ADD80C,4.2032*%
%ADD81R,1.6032X0.8032*%
%ADD82R,1.7032X1.7032*%
%ADD83R,1.7032X1.7032*%
D56*
X155180Y-222030D02*
D03*
X142226D02*
D03*
D60*
X109250Y-151130D02*
D03*
Y-99060D02*
D03*
D61*
X248920Y-172940D02*
D03*
Y-154970D02*
D03*
X175260Y-238980D02*
D03*
Y-221010D02*
D03*
X237490Y-222030D02*
D03*
Y-240000D02*
D03*
X143510Y-131030D02*
D03*
Y-113060D02*
D03*
X561340Y-210600D02*
D03*
Y-228570D02*
D03*
X546100Y-210600D02*
D03*
Y-228570D02*
D03*
D63*
X218948Y-220472D02*
D03*
Y-239776D02*
D03*
X196342D02*
D03*
Y-220472D02*
D03*
D72*
X155194Y-218084D02*
D03*
Y-225552D02*
D03*
X142240Y-218084D02*
D03*
Y-225552D02*
D03*
D75*
X15350Y-173990D02*
D03*
Y-87590D02*
D03*
D76*
X57150Y-173990D02*
D03*
Y-87590D02*
D03*
D77*
X52150Y-159690D02*
D03*
Y-101890D02*
D03*
D78*
X187960Y-78740D02*
D03*
X213360D02*
D03*
X238760D02*
D03*
X264160D02*
D03*
X586740Y-16510D02*
D03*
X561340D02*
D03*
X612140D02*
D03*
X535940D02*
D03*
X459740D02*
D03*
X485140D02*
D03*
X510540D02*
D03*
X408940D02*
D03*
X383540D02*
D03*
X358140D02*
D03*
X434340D02*
D03*
X332740D02*
D03*
X434340Y-41910D02*
D03*
X332740D02*
D03*
X358140D02*
D03*
X383540D02*
D03*
X408940D02*
D03*
X510540D02*
D03*
X485140D02*
D03*
X459740D02*
D03*
X535940D02*
D03*
X612140D02*
D03*
X561340D02*
D03*
X586740D02*
D03*
Y-358140D02*
D03*
X561340D02*
D03*
X612140D02*
D03*
X535940D02*
D03*
X459740D02*
D03*
X485140D02*
D03*
X510540D02*
D03*
X408940D02*
D03*
X383540D02*
D03*
X358140D02*
D03*
X434340D02*
D03*
X332740D02*
D03*
X434340Y-383540D02*
D03*
X332740D02*
D03*
X358140D02*
D03*
X383540D02*
D03*
X408940D02*
D03*
X510540D02*
D03*
X485140D02*
D03*
X459740D02*
D03*
X535940D02*
D03*
X612140D02*
D03*
X561340D02*
D03*
X586740D02*
D03*
D79*
X132334Y-374142D02*
D03*
X157734D02*
D03*
X183134D02*
D03*
X723900Y-106680D02*
D03*
Y-132080D02*
D03*
Y-157480D02*
D03*
Y-182880D02*
D03*
Y-81280D02*
D03*
X161290Y-20320D02*
D03*
X135890D02*
D03*
X110490D02*
D03*
X85090D02*
D03*
D80*
X30000Y-30000D02*
D03*
Y-370000D02*
D03*
X720000D02*
D03*
Y-30000D02*
D03*
D81*
X162250Y-199390D02*
D03*
Y-186690D02*
D03*
Y-173990D02*
D03*
Y-161290D02*
D03*
Y-148590D02*
D03*
Y-135890D02*
D03*
Y-123190D02*
D03*
Y-110490D02*
D03*
X222250Y-199390D02*
D03*
Y-186690D02*
D03*
Y-173990D02*
D03*
Y-161290D02*
D03*
Y-148590D02*
D03*
Y-135890D02*
D03*
Y-123190D02*
D03*
Y-110490D02*
D03*
D82*
X500380Y-161290D02*
D03*
D83*
Y-140970D02*
D03*
Y-120650D02*
D03*
M02*
