G04 Layer_Physical_Order=2*
G04 Layer_Color=16711680*
%FSLAX44Y44*%
%MOMM*%
G71*
G01*
G75*
%ADD13R,1.0000X1.0000*%
%ADD14R,1.0000X1.0000*%
%ADD16R,1.5000X1.2000*%
%ADD25O,0.3000X0.2000*%
%ADD29C,0.2540*%
%ADD30C,0.5000*%
%ADD31C,0.3000*%
%ADD32C,0.2000*%
%ADD33R,1.0160X1.5240*%
%ADD34R,1.6510X1.0160*%
%ADD38R,1.6510X1.6510*%
%ADD39R,1.0160X1.0160*%
%ADD41O,2.2000X1.0000*%
%ADD42O,2.5000X1.0000*%
%ADD43C,0.7000*%
%ADD44O,1.5000X2.0000*%
%ADD45C,2.0000*%
%ADD46C,4.0000*%
%ADD47C,0.3000*%
%ADD48R,1.4000X0.6000*%
%ADD49R,1.5000X1.5000*%
%ADD50R,1.5000X1.5000*%
%ADD51R,1.2700X6.0960*%
G36*
X747176Y-397176D02*
X614203D01*
X614120Y-395906D01*
X614761Y-395822D01*
X617203Y-394810D01*
X619301Y-393201D01*
X620910Y-391103D01*
X621922Y-388661D01*
X622267Y-386040D01*
Y-384810D01*
X602013D01*
Y-386040D01*
X602358Y-388661D01*
X603370Y-391103D01*
X604979Y-393201D01*
X607077Y-394810D01*
X609519Y-395822D01*
X610160Y-395906D01*
X610076Y-397176D01*
X2824D01*
Y-179757D01*
X3066Y-179675D01*
X4094Y-179461D01*
X5548Y-180576D01*
X7382Y-181336D01*
X9350Y-181595D01*
X14080D01*
Y-173990D01*
Y-166385D01*
X9350D01*
X7382Y-166644D01*
X5548Y-167404D01*
X4094Y-168519D01*
X3066Y-168305D01*
X2824Y-168223D01*
Y-93357D01*
X3066Y-93275D01*
X4094Y-93061D01*
X5548Y-94176D01*
X7382Y-94936D01*
X9350Y-95195D01*
X14080D01*
Y-87590D01*
Y-79985D01*
X9350D01*
X7382Y-80244D01*
X5548Y-81004D01*
X4094Y-82119D01*
X3066Y-81905D01*
X2824Y-81823D01*
Y-2824D01*
X610455D01*
X610538Y-4094D01*
X609519Y-4228D01*
X607077Y-5240D01*
X604979Y-6849D01*
X603370Y-8947D01*
X602358Y-11389D01*
X602013Y-14010D01*
Y-15240D01*
X622267D01*
Y-14010D01*
X621922Y-11389D01*
X620910Y-8947D01*
X619301Y-6849D01*
X617203Y-5240D01*
X614761Y-4228D01*
X613742Y-4094D01*
X613825Y-2824D01*
X747176D01*
Y-397176D01*
D02*
G37*
%LPC*%
G36*
X162560Y-7839D02*
Y-19050D01*
X173771D01*
X173507Y-17046D01*
X172244Y-13996D01*
X170234Y-11376D01*
X167614Y-9366D01*
X164564Y-8103D01*
X162560Y-7839D01*
D02*
G37*
G36*
X160020D02*
X158016Y-8103D01*
X154966Y-9366D01*
X152346Y-11376D01*
X150336Y-13996D01*
X149073Y-17046D01*
X148743Y-19553D01*
X148706Y-19832D01*
X147425D01*
X147388Y-19553D01*
X147094Y-17318D01*
X145935Y-14520D01*
X144092Y-12118D01*
X141690Y-10275D01*
X138892Y-9116D01*
X135890Y-8721D01*
X132888Y-9116D01*
X130090Y-10275D01*
X127688Y-12118D01*
X125845Y-14520D01*
X124686Y-17318D01*
X124291Y-20320D01*
X124686Y-23322D01*
X125845Y-26120D01*
X127688Y-28522D01*
X130090Y-30365D01*
X132888Y-31524D01*
X135890Y-31919D01*
X138892Y-31524D01*
X141690Y-30365D01*
X144092Y-28522D01*
X145935Y-26120D01*
X147094Y-23322D01*
X147388Y-21087D01*
X147425Y-20808D01*
X148706D01*
X148743Y-21087D01*
X149073Y-23594D01*
X150336Y-26644D01*
X152346Y-29264D01*
X154966Y-31274D01*
X158016Y-32537D01*
X160020Y-32801D01*
Y-20320D01*
Y-7839D01*
D02*
G37*
G36*
X586740Y-4932D02*
X584390Y-5242D01*
X582201Y-6148D01*
X580321Y-7591D01*
X578879Y-9471D01*
X577972Y-11660D01*
X577662Y-14010D01*
Y-19010D01*
X577972Y-21360D01*
X578879Y-23549D01*
X580321Y-25429D01*
X582201Y-26872D01*
X584390Y-27778D01*
X586740Y-28088D01*
X589090Y-27778D01*
X591279Y-26872D01*
X593159Y-25429D01*
X594602Y-23549D01*
X595508Y-21360D01*
X595818Y-19010D01*
Y-14010D01*
X595508Y-11660D01*
X594602Y-9471D01*
X593159Y-7591D01*
X591279Y-6148D01*
X589090Y-5242D01*
X586740Y-4932D01*
D02*
G37*
G36*
X561340D02*
X558991Y-5242D01*
X556801Y-6148D01*
X554921Y-7591D01*
X553479Y-9471D01*
X552572Y-11660D01*
X552262Y-14010D01*
Y-19010D01*
X552572Y-21360D01*
X553479Y-23549D01*
X554921Y-25429D01*
X556801Y-26872D01*
X558991Y-27778D01*
X561340Y-28088D01*
X563689Y-27778D01*
X565879Y-26872D01*
X567759Y-25429D01*
X569202Y-23549D01*
X570108Y-21360D01*
X570418Y-19010D01*
Y-14010D01*
X570108Y-11660D01*
X569202Y-9471D01*
X567759Y-7591D01*
X565879Y-6148D01*
X563689Y-5242D01*
X561340Y-4932D01*
D02*
G37*
G36*
X535940D02*
X533591Y-5242D01*
X531401Y-6148D01*
X529521Y-7591D01*
X528078Y-9471D01*
X527172Y-11660D01*
X526862Y-14010D01*
Y-19010D01*
X527172Y-21360D01*
X528078Y-23549D01*
X529521Y-25429D01*
X531401Y-26872D01*
X533591Y-27778D01*
X535940Y-28088D01*
X538289Y-27778D01*
X540479Y-26872D01*
X542359Y-25429D01*
X543801Y-23549D01*
X544708Y-21360D01*
X545018Y-19010D01*
Y-14010D01*
X544708Y-11660D01*
X543801Y-9471D01*
X542359Y-7591D01*
X540479Y-6148D01*
X538289Y-5242D01*
X535940Y-4932D01*
D02*
G37*
G36*
X510540D02*
X508190Y-5242D01*
X506001Y-6148D01*
X504121Y-7591D01*
X502678Y-9471D01*
X501772Y-11660D01*
X501462Y-14010D01*
Y-19010D01*
X501772Y-21360D01*
X502678Y-23549D01*
X504121Y-25429D01*
X506001Y-26872D01*
X508190Y-27778D01*
X510540Y-28088D01*
X512890Y-27778D01*
X515079Y-26872D01*
X516959Y-25429D01*
X518401Y-23549D01*
X519308Y-21360D01*
X519618Y-19010D01*
Y-14010D01*
X519308Y-11660D01*
X518401Y-9471D01*
X516959Y-7591D01*
X515079Y-6148D01*
X512890Y-5242D01*
X510540Y-4932D01*
D02*
G37*
G36*
X485140D02*
X482790Y-5242D01*
X480601Y-6148D01*
X478721Y-7591D01*
X477279Y-9471D01*
X476372Y-11660D01*
X476062Y-14010D01*
Y-19010D01*
X476372Y-21360D01*
X477279Y-23549D01*
X478721Y-25429D01*
X480601Y-26872D01*
X482790Y-27778D01*
X485140Y-28088D01*
X487490Y-27778D01*
X489679Y-26872D01*
X491559Y-25429D01*
X493002Y-23549D01*
X493908Y-21360D01*
X494218Y-19010D01*
Y-14010D01*
X493908Y-11660D01*
X493002Y-9471D01*
X491559Y-7591D01*
X489679Y-6148D01*
X487490Y-5242D01*
X485140Y-4932D01*
D02*
G37*
G36*
X459740D02*
X457391Y-5242D01*
X455201Y-6148D01*
X453321Y-7591D01*
X451879Y-9471D01*
X450972Y-11660D01*
X450662Y-14010D01*
Y-19010D01*
X450972Y-21360D01*
X451879Y-23549D01*
X453321Y-25429D01*
X455201Y-26872D01*
X457391Y-27778D01*
X459740Y-28088D01*
X462090Y-27778D01*
X464279Y-26872D01*
X466159Y-25429D01*
X467602Y-23549D01*
X468508Y-21360D01*
X468818Y-19010D01*
Y-14010D01*
X468508Y-11660D01*
X467602Y-9471D01*
X466159Y-7591D01*
X464279Y-6148D01*
X462090Y-5242D01*
X459740Y-4932D01*
D02*
G37*
G36*
X434340D02*
X431991Y-5242D01*
X429801Y-6148D01*
X427921Y-7591D01*
X426479Y-9471D01*
X425572Y-11660D01*
X425262Y-14010D01*
Y-19010D01*
X425572Y-21360D01*
X426479Y-23549D01*
X427921Y-25429D01*
X429801Y-26872D01*
X431991Y-27778D01*
X434340Y-28088D01*
X436689Y-27778D01*
X438879Y-26872D01*
X440759Y-25429D01*
X442201Y-23549D01*
X443108Y-21360D01*
X443418Y-19010D01*
Y-14010D01*
X443108Y-11660D01*
X442201Y-9471D01*
X440759Y-7591D01*
X438879Y-6148D01*
X436689Y-5242D01*
X434340Y-4932D01*
D02*
G37*
G36*
X408940D02*
X406590Y-5242D01*
X404401Y-6148D01*
X402521Y-7591D01*
X401078Y-9471D01*
X400172Y-11660D01*
X399862Y-14010D01*
Y-19010D01*
X400172Y-21360D01*
X401078Y-23549D01*
X402521Y-25429D01*
X404401Y-26872D01*
X406590Y-27778D01*
X408940Y-28088D01*
X411289Y-27778D01*
X413479Y-26872D01*
X415359Y-25429D01*
X416801Y-23549D01*
X417708Y-21360D01*
X418018Y-19010D01*
Y-14010D01*
X417708Y-11660D01*
X416801Y-9471D01*
X415359Y-7591D01*
X413479Y-6148D01*
X411289Y-5242D01*
X408940Y-4932D01*
D02*
G37*
G36*
X383540D02*
X381190Y-5242D01*
X379001Y-6148D01*
X377121Y-7591D01*
X375678Y-9471D01*
X374772Y-11660D01*
X374462Y-14010D01*
Y-19010D01*
X374772Y-21360D01*
X375678Y-23549D01*
X377121Y-25429D01*
X379001Y-26872D01*
X381190Y-27778D01*
X383540Y-28088D01*
X385890Y-27778D01*
X388079Y-26872D01*
X389959Y-25429D01*
X391401Y-23549D01*
X392308Y-21360D01*
X392618Y-19010D01*
Y-14010D01*
X392308Y-11660D01*
X391401Y-9471D01*
X389959Y-7591D01*
X388079Y-6148D01*
X385890Y-5242D01*
X383540Y-4932D01*
D02*
G37*
G36*
X358140D02*
X355790Y-5242D01*
X353601Y-6148D01*
X351721Y-7591D01*
X350279Y-9471D01*
X349372Y-11660D01*
X349062Y-14010D01*
Y-19010D01*
X349372Y-21360D01*
X350279Y-23549D01*
X351721Y-25429D01*
X353601Y-26872D01*
X355790Y-27778D01*
X358140Y-28088D01*
X360490Y-27778D01*
X362679Y-26872D01*
X364559Y-25429D01*
X366002Y-23549D01*
X366908Y-21360D01*
X367218Y-19010D01*
Y-14010D01*
X366908Y-11660D01*
X366002Y-9471D01*
X364559Y-7591D01*
X362679Y-6148D01*
X360490Y-5242D01*
X358140Y-4932D01*
D02*
G37*
G36*
X332740D02*
X330391Y-5242D01*
X328201Y-6148D01*
X326321Y-7591D01*
X324879Y-9471D01*
X323972Y-11660D01*
X323662Y-14010D01*
Y-19010D01*
X323972Y-21360D01*
X324879Y-23549D01*
X326321Y-25429D01*
X328201Y-26872D01*
X330391Y-27778D01*
X332740Y-28088D01*
X335089Y-27778D01*
X337279Y-26872D01*
X339159Y-25429D01*
X340602Y-23549D01*
X341508Y-21360D01*
X341818Y-19010D01*
Y-14010D01*
X341508Y-11660D01*
X340602Y-9471D01*
X339159Y-7591D01*
X337279Y-6148D01*
X335089Y-5242D01*
X332740Y-4932D01*
D02*
G37*
G36*
X721270Y-7476D02*
Y-28730D01*
X742524D01*
X742214Y-25581D01*
X740925Y-21332D01*
X738832Y-17417D01*
X736015Y-13985D01*
X732583Y-11168D01*
X728668Y-9075D01*
X724419Y-7786D01*
X721270Y-7476D01*
D02*
G37*
G36*
X718730D02*
X715582Y-7786D01*
X711333Y-9075D01*
X707417Y-11168D01*
X703985Y-13985D01*
X701168Y-17417D01*
X699075Y-21332D01*
X697786Y-25581D01*
X697476Y-28730D01*
X718730D01*
Y-7476D01*
D02*
G37*
G36*
X31270D02*
Y-28730D01*
X52524D01*
X52214Y-25581D01*
X50925Y-21332D01*
X48832Y-17417D01*
X46015Y-13985D01*
X42583Y-11168D01*
X38667Y-9075D01*
X34418Y-7786D01*
X31270Y-7476D01*
D02*
G37*
G36*
X28730D02*
X25581Y-7786D01*
X21332Y-9075D01*
X17417Y-11168D01*
X13985Y-13985D01*
X11168Y-17417D01*
X9075Y-21332D01*
X7786Y-25581D01*
X7476Y-28730D01*
X28730D01*
Y-7476D01*
D02*
G37*
G36*
X110490Y-8721D02*
X107488Y-9116D01*
X104690Y-10275D01*
X102288Y-12118D01*
X100445Y-14520D01*
X99286Y-17318D01*
X98891Y-20320D01*
X99286Y-23322D01*
X100445Y-26120D01*
X102288Y-28522D01*
X104690Y-30365D01*
X107488Y-31524D01*
X110490Y-31919D01*
X113492Y-31524D01*
X116290Y-30365D01*
X118692Y-28522D01*
X120535Y-26120D01*
X121694Y-23322D01*
X122089Y-20320D01*
X121694Y-17318D01*
X120535Y-14520D01*
X118692Y-12118D01*
X116290Y-10275D01*
X113492Y-9116D01*
X110490Y-8721D01*
D02*
G37*
G36*
X85090D02*
X82088Y-9116D01*
X79290Y-10275D01*
X76888Y-12118D01*
X75045Y-14520D01*
X73886Y-17318D01*
X73491Y-20320D01*
X73886Y-23322D01*
X75045Y-26120D01*
X76888Y-28522D01*
X79290Y-30365D01*
X82088Y-31524D01*
X85090Y-31919D01*
X88092Y-31524D01*
X90890Y-30365D01*
X93292Y-28522D01*
X95135Y-26120D01*
X96294Y-23322D01*
X96689Y-20320D01*
X96294Y-17318D01*
X95135Y-14520D01*
X93292Y-12118D01*
X90890Y-10275D01*
X88092Y-9116D01*
X85090Y-8721D01*
D02*
G37*
G36*
X309880Y-10911D02*
X308710Y-11144D01*
X307717Y-11807D01*
X307054Y-12800D01*
X306821Y-13970D01*
X307054Y-15141D01*
X307717Y-16133D01*
X308710Y-16796D01*
X308712Y-16796D01*
X317216Y-25300D01*
Y-32295D01*
X316408Y-32676D01*
X315946Y-32680D01*
X315687Y-32293D01*
X315687Y-32293D01*
X313976Y-30582D01*
X313976Y-30580D01*
X313313Y-29587D01*
X312320Y-28924D01*
X311150Y-28691D01*
X309979Y-28924D01*
X308987Y-29587D01*
X308324Y-30580D01*
X308091Y-31750D01*
X308324Y-32920D01*
X308987Y-33913D01*
X309979Y-34576D01*
X309982Y-34576D01*
X310866Y-35460D01*
Y-49530D01*
X310866Y-49530D01*
X311081Y-50611D01*
X311693Y-51527D01*
X328203Y-68037D01*
X328203Y-68037D01*
X329119Y-68649D01*
X330200Y-68864D01*
X330200Y-68864D01*
X344267D01*
X344269Y-68866D01*
X345440Y-69099D01*
X346610Y-68866D01*
X347603Y-68203D01*
X348266Y-67210D01*
X348499Y-66040D01*
X348266Y-64869D01*
X347603Y-63877D01*
X347464Y-63784D01*
X347849Y-62514D01*
X356967D01*
X356969Y-62516D01*
X358140Y-62749D01*
X359310Y-62516D01*
X360303Y-61853D01*
X360966Y-60861D01*
X361199Y-59690D01*
X360966Y-58520D01*
X360303Y-57527D01*
X359310Y-56864D01*
X358140Y-56631D01*
X356969Y-56864D01*
X356967Y-56866D01*
X331370D01*
X328114Y-53610D01*
X328834Y-52533D01*
X330391Y-53178D01*
X332740Y-53488D01*
X335089Y-53178D01*
X337279Y-52271D01*
X339159Y-50829D01*
X340602Y-48949D01*
X341508Y-46760D01*
X341818Y-44410D01*
Y-39410D01*
X341508Y-37060D01*
X340602Y-34871D01*
X339159Y-32991D01*
X337279Y-31549D01*
X335089Y-30642D01*
X332740Y-30332D01*
X330391Y-30642D01*
X328201Y-31549D01*
X326321Y-32991D01*
X324879Y-34871D01*
X324134Y-36668D01*
X322864Y-36415D01*
Y-24130D01*
X322649Y-23049D01*
X322037Y-22133D01*
X322037Y-22133D01*
X312707Y-12802D01*
X312706Y-12800D01*
X312043Y-11807D01*
X311050Y-11144D01*
X309880Y-10911D01*
D02*
G37*
G36*
X173771Y-21590D02*
X162560D01*
Y-32801D01*
X164564Y-32537D01*
X167614Y-31274D01*
X170234Y-29264D01*
X172244Y-26644D01*
X173507Y-23594D01*
X173771Y-21590D01*
D02*
G37*
G36*
X742524Y-31270D02*
X721270D01*
Y-52524D01*
X724419Y-52214D01*
X728668Y-50925D01*
X732583Y-48832D01*
X736015Y-46015D01*
X738832Y-42583D01*
X740925Y-38667D01*
X742214Y-34418D01*
X742524Y-31270D01*
D02*
G37*
G36*
X718730D02*
X697476D01*
X697786Y-34418D01*
X699075Y-38667D01*
X701168Y-42583D01*
X703985Y-46015D01*
X707417Y-48832D01*
X711333Y-50925D01*
X715582Y-52214D01*
X718730Y-52524D01*
Y-31270D01*
D02*
G37*
G36*
X52524D02*
X31270D01*
Y-52524D01*
X34418Y-52214D01*
X38667Y-50925D01*
X42583Y-48832D01*
X46015Y-46015D01*
X48832Y-42583D01*
X50925Y-38667D01*
X52214Y-34418D01*
X52524Y-31270D01*
D02*
G37*
G36*
X28730D02*
X7476D01*
X7786Y-34418D01*
X9075Y-38667D01*
X11168Y-42583D01*
X13985Y-46015D01*
X17417Y-48832D01*
X21332Y-50925D01*
X25581Y-52214D01*
X28730Y-52524D01*
Y-31270D01*
D02*
G37*
G36*
X161290Y-51957D02*
X160984Y-52018D01*
X160341Y-52448D01*
X159385Y-52811D01*
X158429Y-52448D01*
X157786Y-52018D01*
X157480Y-51957D01*
Y-55823D01*
X156210D01*
Y-57094D01*
X152344D01*
X152404Y-57400D01*
X153297Y-58736D01*
Y-59261D01*
X152404Y-60597D01*
X152344Y-60904D01*
X156210D01*
Y-62174D01*
X157480D01*
Y-66040D01*
X157786Y-65979D01*
X158429Y-65549D01*
X159385Y-65186D01*
X160341Y-65549D01*
X160984Y-65979D01*
X161290Y-66040D01*
Y-62174D01*
X162560D01*
Y-60904D01*
X166427D01*
X166366Y-60597D01*
X165473Y-59261D01*
Y-58736D01*
X166366Y-57400D01*
X166427Y-57094D01*
X162560D01*
Y-55823D01*
X161290D01*
Y-51957D01*
D02*
G37*
G36*
X586740Y-30332D02*
X584390Y-30642D01*
X582201Y-31549D01*
X580321Y-32991D01*
X578879Y-34871D01*
X577972Y-37060D01*
X577662Y-39410D01*
Y-44410D01*
X577972Y-46760D01*
X578879Y-48949D01*
X580321Y-50829D01*
X582201Y-52271D01*
X584390Y-53178D01*
X586740Y-53488D01*
X589090Y-53178D01*
X591279Y-52271D01*
X593159Y-50829D01*
X594602Y-48949D01*
X595508Y-46760D01*
X595818Y-44410D01*
Y-39410D01*
X595508Y-37060D01*
X594602Y-34871D01*
X593159Y-32991D01*
X591279Y-31549D01*
X589090Y-30642D01*
X586740Y-30332D01*
D02*
G37*
G36*
X561340D02*
X558991Y-30642D01*
X556801Y-31549D01*
X554921Y-32991D01*
X553479Y-34871D01*
X552572Y-37060D01*
X552262Y-39410D01*
Y-44410D01*
X552572Y-46760D01*
X553479Y-48949D01*
X554921Y-50829D01*
X556801Y-52271D01*
X558991Y-53178D01*
X561340Y-53488D01*
X563689Y-53178D01*
X565879Y-52271D01*
X567759Y-50829D01*
X569202Y-48949D01*
X570108Y-46760D01*
X570418Y-44410D01*
Y-39410D01*
X570108Y-37060D01*
X569202Y-34871D01*
X567759Y-32991D01*
X565879Y-31549D01*
X563689Y-30642D01*
X561340Y-30332D01*
D02*
G37*
G36*
X535940D02*
X533591Y-30642D01*
X531401Y-31549D01*
X529521Y-32991D01*
X528078Y-34871D01*
X527172Y-37060D01*
X526862Y-39410D01*
Y-44410D01*
X527172Y-46760D01*
X528078Y-48949D01*
X529521Y-50829D01*
X531401Y-52271D01*
X533591Y-53178D01*
X535940Y-53488D01*
X538289Y-53178D01*
X540479Y-52271D01*
X542359Y-50829D01*
X543801Y-48949D01*
X544708Y-46760D01*
X545018Y-44410D01*
Y-39410D01*
X544708Y-37060D01*
X543801Y-34871D01*
X542359Y-32991D01*
X540479Y-31549D01*
X538289Y-30642D01*
X535940Y-30332D01*
D02*
G37*
G36*
X510540D02*
X508190Y-30642D01*
X506001Y-31549D01*
X504121Y-32991D01*
X502678Y-34871D01*
X501772Y-37060D01*
X501462Y-39410D01*
Y-44410D01*
X501772Y-46760D01*
X502678Y-48949D01*
X504121Y-50829D01*
X506001Y-52271D01*
X508190Y-53178D01*
X510540Y-53488D01*
X512890Y-53178D01*
X515079Y-52271D01*
X516959Y-50829D01*
X518401Y-48949D01*
X519308Y-46760D01*
X519618Y-44410D01*
Y-39410D01*
X519308Y-37060D01*
X518401Y-34871D01*
X516959Y-32991D01*
X515079Y-31549D01*
X512890Y-30642D01*
X510540Y-30332D01*
D02*
G37*
G36*
X485140D02*
X482790Y-30642D01*
X480601Y-31549D01*
X478721Y-32991D01*
X477279Y-34871D01*
X476372Y-37060D01*
X476062Y-39410D01*
Y-44410D01*
X476372Y-46760D01*
X477279Y-48949D01*
X478721Y-50829D01*
X480601Y-52271D01*
X482790Y-53178D01*
X485140Y-53488D01*
X487490Y-53178D01*
X489679Y-52271D01*
X491559Y-50829D01*
X493002Y-48949D01*
X493908Y-46760D01*
X494218Y-44410D01*
Y-39410D01*
X493908Y-37060D01*
X493002Y-34871D01*
X491559Y-32991D01*
X489679Y-31549D01*
X487490Y-30642D01*
X485140Y-30332D01*
D02*
G37*
G36*
X459740D02*
X457391Y-30642D01*
X455201Y-31549D01*
X453321Y-32991D01*
X451879Y-34871D01*
X450972Y-37060D01*
X450662Y-39410D01*
Y-44410D01*
X450972Y-46760D01*
X451879Y-48949D01*
X453321Y-50829D01*
X455201Y-52271D01*
X457391Y-53178D01*
X459740Y-53488D01*
X462090Y-53178D01*
X464279Y-52271D01*
X466159Y-50829D01*
X467602Y-48949D01*
X468508Y-46760D01*
X468818Y-44410D01*
Y-39410D01*
X468508Y-37060D01*
X467602Y-34871D01*
X466159Y-32991D01*
X464279Y-31549D01*
X462090Y-30642D01*
X459740Y-30332D01*
D02*
G37*
G36*
X434340D02*
X431991Y-30642D01*
X429801Y-31549D01*
X427921Y-32991D01*
X426479Y-34871D01*
X425572Y-37060D01*
X425262Y-39410D01*
Y-44410D01*
X425572Y-46760D01*
X426479Y-48949D01*
X427921Y-50829D01*
X429801Y-52271D01*
X431991Y-53178D01*
X434340Y-53488D01*
X436689Y-53178D01*
X438879Y-52271D01*
X440759Y-50829D01*
X442201Y-48949D01*
X443108Y-46760D01*
X443418Y-44410D01*
Y-39410D01*
X443108Y-37060D01*
X442201Y-34871D01*
X440759Y-32991D01*
X438879Y-31549D01*
X436689Y-30642D01*
X434340Y-30332D01*
D02*
G37*
G36*
X408940D02*
X406590Y-30642D01*
X404401Y-31549D01*
X402521Y-32991D01*
X401078Y-34871D01*
X400172Y-37060D01*
X399862Y-39410D01*
Y-44410D01*
X400172Y-46760D01*
X401078Y-48949D01*
X402521Y-50829D01*
X404401Y-52271D01*
X406590Y-53178D01*
X408940Y-53488D01*
X411289Y-53178D01*
X413479Y-52271D01*
X415359Y-50829D01*
X416801Y-48949D01*
X417708Y-46760D01*
X418018Y-44410D01*
Y-39410D01*
X417708Y-37060D01*
X416801Y-34871D01*
X415359Y-32991D01*
X413479Y-31549D01*
X411289Y-30642D01*
X408940Y-30332D01*
D02*
G37*
G36*
X383540D02*
X381190Y-30642D01*
X379001Y-31549D01*
X377121Y-32991D01*
X375678Y-34871D01*
X374772Y-37060D01*
X374462Y-39410D01*
Y-44410D01*
X374772Y-46760D01*
X375678Y-48949D01*
X377121Y-50829D01*
X379001Y-52271D01*
X381190Y-53178D01*
X383540Y-53488D01*
X385890Y-53178D01*
X388079Y-52271D01*
X389959Y-50829D01*
X391401Y-48949D01*
X392308Y-46760D01*
X392618Y-44410D01*
Y-39410D01*
X392308Y-37060D01*
X391401Y-34871D01*
X389959Y-32991D01*
X388079Y-31549D01*
X385890Y-30642D01*
X383540Y-30332D01*
D02*
G37*
G36*
X358140D02*
X355790Y-30642D01*
X353601Y-31549D01*
X351721Y-32991D01*
X350279Y-34871D01*
X349372Y-37060D01*
X349062Y-39410D01*
Y-44410D01*
X349372Y-46760D01*
X350279Y-48949D01*
X351721Y-50829D01*
X353601Y-52271D01*
X355790Y-53178D01*
X358140Y-53488D01*
X360490Y-53178D01*
X362679Y-52271D01*
X364559Y-50829D01*
X366002Y-48949D01*
X366908Y-46760D01*
X367218Y-44410D01*
Y-39410D01*
X366908Y-37060D01*
X366002Y-34871D01*
X364559Y-32991D01*
X362679Y-31549D01*
X360490Y-30642D01*
X358140Y-30332D01*
D02*
G37*
G36*
X163830Y-51957D02*
Y-54553D01*
X166427D01*
X166366Y-54247D01*
X165473Y-52911D01*
X164136Y-52018D01*
X163830Y-51957D01*
D02*
G37*
G36*
X154940D02*
X154634Y-52018D01*
X153297Y-52911D01*
X152404Y-54247D01*
X152344Y-54553D01*
X154940D01*
Y-51957D01*
D02*
G37*
G36*
X548640Y-56631D02*
X547469Y-56864D01*
X546477Y-57527D01*
X545814Y-58520D01*
X545813Y-58522D01*
X542690Y-61646D01*
X392730D01*
X392730Y-61646D01*
X391649Y-61861D01*
X390733Y-62473D01*
X390733Y-62473D01*
X353160Y-100046D01*
X325686D01*
X324605Y-100261D01*
X323689Y-100873D01*
X323689Y-100873D01*
X320123Y-104439D01*
X319511Y-105355D01*
X319296Y-106436D01*
X319296Y-106436D01*
Y-112570D01*
X319296Y-112570D01*
X319511Y-113651D01*
X319701Y-113936D01*
X319754Y-114200D01*
X320417Y-115193D01*
X321409Y-115856D01*
X322580Y-116089D01*
X323750Y-115856D01*
X324743Y-115193D01*
X325406Y-114200D01*
X325639Y-113030D01*
X325510Y-112383D01*
X326342Y-111324D01*
X326480Y-111245D01*
X327561Y-111030D01*
X327563Y-111029D01*
X355345D01*
X355345Y-111029D01*
X356426Y-110814D01*
X357343Y-110202D01*
X396210Y-71334D01*
X545533D01*
X545533Y-71334D01*
X546614Y-71119D01*
X547531Y-70507D01*
X550443Y-67594D01*
X594457D01*
X594459Y-67596D01*
X595630Y-67829D01*
X596800Y-67596D01*
X597793Y-66933D01*
X598456Y-65940D01*
X598689Y-64770D01*
X598456Y-63600D01*
X597793Y-62607D01*
X596800Y-61944D01*
X595630Y-61711D01*
X594459Y-61944D01*
X594457Y-61946D01*
X552268D01*
X551720Y-61204D01*
X551503Y-60676D01*
X551699Y-59690D01*
X551466Y-58520D01*
X550803Y-57527D01*
X549810Y-56864D01*
X548640Y-56631D01*
D02*
G37*
G36*
X105410Y-62174D02*
X105104Y-62234D01*
X104461Y-62664D01*
X103505Y-63028D01*
X102549Y-62664D01*
X101906Y-62234D01*
X101600Y-62174D01*
Y-66040D01*
Y-69907D01*
X101906Y-69846D01*
X102549Y-69416D01*
X103505Y-69053D01*
X104461Y-69416D01*
X105104Y-69846D01*
X105410Y-69907D01*
Y-66040D01*
Y-62174D01*
D02*
G37*
G36*
X107950D02*
Y-64770D01*
X110547D01*
X110486Y-64464D01*
X109593Y-63127D01*
X108256Y-62234D01*
X107950Y-62174D01*
D02*
G37*
G36*
X99060D02*
X98754Y-62234D01*
X97417Y-63127D01*
X96524Y-64464D01*
X96463Y-64770D01*
X99060D01*
Y-62174D01*
D02*
G37*
G36*
X166427Y-63443D02*
X163830D01*
Y-66040D01*
X164136Y-65979D01*
X165473Y-65086D01*
X166366Y-63750D01*
X166427Y-63443D01*
D02*
G37*
G36*
X154940D02*
X152344D01*
X152404Y-63750D01*
X153297Y-65086D01*
X154634Y-65979D01*
X154940Y-66040D01*
Y-63443D01*
D02*
G37*
G36*
X110547Y-67310D02*
X107950D01*
Y-69907D01*
X108256Y-69846D01*
X109593Y-68953D01*
X110486Y-67616D01*
X110547Y-67310D01*
D02*
G37*
G36*
X99060D02*
X96463D01*
X96524Y-67616D01*
X97417Y-68953D01*
X98754Y-69846D01*
X99060Y-69907D01*
Y-67310D01*
D02*
G37*
G36*
X189230Y-66281D02*
Y-77470D01*
X198087D01*
Y-76240D01*
X197742Y-73619D01*
X196730Y-71177D01*
X195121Y-69079D01*
X193023Y-67470D01*
X190581Y-66458D01*
X189230Y-66281D01*
D02*
G37*
G36*
X186690D02*
X185339Y-66458D01*
X182897Y-67470D01*
X180799Y-69079D01*
X179190Y-71177D01*
X178178Y-73619D01*
X177833Y-76240D01*
Y-77470D01*
X186690D01*
Y-66281D01*
D02*
G37*
G36*
X725170Y-68799D02*
Y-80010D01*
X736381D01*
X736117Y-78006D01*
X734854Y-74956D01*
X732844Y-72336D01*
X730224Y-70326D01*
X727174Y-69063D01*
X725170Y-68799D01*
D02*
G37*
G36*
X722630D02*
X720626Y-69063D01*
X717576Y-70326D01*
X714956Y-72336D01*
X712946Y-74956D01*
X711683Y-78006D01*
X711419Y-80010D01*
X722630D01*
Y-68799D01*
D02*
G37*
G36*
X64650Y-79985D02*
X58420D01*
Y-86320D01*
X72088D01*
X71996Y-85622D01*
X71236Y-83787D01*
X70028Y-82212D01*
X68453Y-81004D01*
X66618Y-80244D01*
X64650Y-79985D01*
D02*
G37*
G36*
X55880D02*
X49650D01*
X47682Y-80244D01*
X45848Y-81004D01*
X44272Y-82212D01*
X43064Y-83787D01*
X42304Y-85622D01*
X42212Y-86320D01*
X55880D01*
Y-79985D01*
D02*
G37*
G36*
X21350D02*
X16620D01*
Y-86320D01*
X28788D01*
X28696Y-85622D01*
X27936Y-83787D01*
X26728Y-82212D01*
X25153Y-81004D01*
X23318Y-80244D01*
X21350Y-79985D01*
D02*
G37*
G36*
X139700Y-87573D02*
Y-90170D01*
X142296D01*
X142236Y-89864D01*
X141343Y-88527D01*
X140006Y-87634D01*
X139700Y-87573D01*
D02*
G37*
G36*
X137160D02*
X136854Y-87634D01*
X135517Y-88527D01*
X134624Y-89864D01*
X134564Y-90170D01*
X137160D01*
Y-87573D01*
D02*
G37*
G36*
X264160Y-67162D02*
X261810Y-67472D01*
X259621Y-68379D01*
X257741Y-69821D01*
X256299Y-71701D01*
X255392Y-73891D01*
X255082Y-76240D01*
Y-81240D01*
X255392Y-83589D01*
X256299Y-85779D01*
X257741Y-87659D01*
X259621Y-89101D01*
X261810Y-90008D01*
X264160Y-90318D01*
X266509Y-90008D01*
X268699Y-89101D01*
X270579Y-87659D01*
X272022Y-85779D01*
X272928Y-83589D01*
X273238Y-81240D01*
Y-76240D01*
X272928Y-73891D01*
X272022Y-71701D01*
X270579Y-69821D01*
X268699Y-68379D01*
X266509Y-67472D01*
X264160Y-67162D01*
D02*
G37*
G36*
X238760D02*
X236411Y-67472D01*
X234221Y-68379D01*
X232341Y-69821D01*
X230898Y-71701D01*
X229992Y-73891D01*
X229682Y-76240D01*
Y-81240D01*
X229992Y-83589D01*
X230898Y-85779D01*
X232341Y-87659D01*
X234221Y-89101D01*
X236411Y-90008D01*
X238760Y-90318D01*
X241110Y-90008D01*
X243299Y-89101D01*
X245179Y-87659D01*
X246621Y-85779D01*
X247528Y-83589D01*
X247838Y-81240D01*
Y-76240D01*
X247528Y-73891D01*
X246621Y-71701D01*
X245179Y-69821D01*
X243299Y-68379D01*
X241110Y-67472D01*
X238760Y-67162D01*
D02*
G37*
G36*
X198087Y-80010D02*
X189230D01*
Y-91199D01*
X190581Y-91022D01*
X193023Y-90010D01*
X195121Y-88401D01*
X196730Y-86303D01*
X197742Y-83861D01*
X198087Y-81240D01*
Y-80010D01*
D02*
G37*
G36*
X186690D02*
X177833D01*
Y-81240D01*
X178178Y-83861D01*
X179190Y-86303D01*
X180799Y-88401D01*
X182897Y-90010D01*
X185339Y-91022D01*
X186690Y-91199D01*
Y-80010D01*
D02*
G37*
G36*
X72088Y-88860D02*
X58420D01*
Y-95195D01*
X64650D01*
X66618Y-94936D01*
X68453Y-94176D01*
X70028Y-92968D01*
X71236Y-91393D01*
X71996Y-89558D01*
X72088Y-88860D01*
D02*
G37*
G36*
X28788D02*
X16620D01*
Y-95195D01*
X21350D01*
X23318Y-94936D01*
X25153Y-94176D01*
X26728Y-92968D01*
X27936Y-91393D01*
X28696Y-89558D01*
X28788Y-88860D01*
D02*
G37*
G36*
X55880D02*
X42212D01*
X42304Y-89558D01*
X43064Y-91393D01*
X44272Y-92968D01*
X45848Y-94176D01*
X47682Y-94936D01*
X49159Y-95130D01*
X49425Y-96447D01*
X47795Y-97535D01*
X46460Y-99533D01*
X46244Y-100620D01*
X58056D01*
X57840Y-99533D01*
X56505Y-97535D01*
X54903Y-96465D01*
X55288Y-95195D01*
X55880D01*
Y-88860D01*
D02*
G37*
G36*
X213360Y-67162D02*
X211010Y-67472D01*
X208821Y-68379D01*
X206941Y-69821D01*
X205499Y-71701D01*
X204592Y-73891D01*
X204282Y-76240D01*
Y-81240D01*
X204592Y-83589D01*
X204794Y-84078D01*
X192431Y-96442D01*
X140939D01*
X140793Y-96234D01*
X141110Y-94508D01*
X141343Y-94353D01*
X142236Y-93016D01*
X142296Y-92710D01*
X134564D01*
X134624Y-93016D01*
X135517Y-94353D01*
X136804Y-95212D01*
X136824Y-95443D01*
X136663Y-96503D01*
X135409Y-96752D01*
X134086Y-97636D01*
X134086Y-97636D01*
X122846Y-108876D01*
X121962Y-110199D01*
X121652Y-111760D01*
X121652Y-111760D01*
Y-185420D01*
X121652Y-185420D01*
X121962Y-186981D01*
X122846Y-188304D01*
X138086Y-203544D01*
X139409Y-204428D01*
X140970Y-204738D01*
X142531Y-204428D01*
X142996Y-204117D01*
X144266Y-204796D01*
Y-212064D01*
X141164Y-215165D01*
X138176D01*
X137028Y-215641D01*
X136552Y-216789D01*
Y-222631D01*
X136766Y-223146D01*
X136877Y-223496D01*
X136819Y-223638D01*
X136560Y-224116D01*
X136586Y-224201D01*
X136552Y-224283D01*
X136552Y-227246D01*
X109763Y-254035D01*
X109151Y-254951D01*
X108936Y-256032D01*
X108936Y-256032D01*
Y-278230D01*
X83922Y-303244D01*
X83919Y-303244D01*
X83917Y-303246D01*
X69753D01*
X69750Y-303244D01*
X68580Y-303011D01*
X67410Y-303244D01*
X66417Y-303907D01*
X65754Y-304900D01*
X65521Y-306070D01*
X65754Y-307241D01*
X66417Y-308233D01*
X67410Y-308896D01*
X68580Y-309129D01*
X69750Y-308896D01*
X69753Y-308894D01*
X83917D01*
X83919Y-308896D01*
X85090Y-309129D01*
X86260Y-308896D01*
X87253Y-308233D01*
X87916Y-307241D01*
X87916Y-307238D01*
X113757Y-281397D01*
X113757Y-281397D01*
X114369Y-280481D01*
X114584Y-279400D01*
Y-257202D01*
X142832Y-228954D01*
X146304D01*
X147452Y-228478D01*
X147494Y-228376D01*
X149940D01*
X149982Y-228478D01*
X149982Y-228478D01*
X149982Y-228478D01*
X150568Y-228721D01*
X151130Y-228954D01*
X159258D01*
X160406Y-228478D01*
X160882Y-227330D01*
Y-224282D01*
X160848Y-224200D01*
X160873Y-224115D01*
X160614Y-223636D01*
X160557Y-223497D01*
X160668Y-223146D01*
X160882Y-222631D01*
Y-216789D01*
X160406Y-215641D01*
X159258Y-215165D01*
X157441D01*
X157191Y-214792D01*
X153954Y-211555D01*
Y-203890D01*
X170750D01*
Y-194890D01*
X153954D01*
Y-191190D01*
X170750D01*
Y-182190D01*
X153954D01*
Y-178490D01*
X170750D01*
Y-169490D01*
X153954D01*
Y-165790D01*
X170750D01*
Y-156790D01*
X153954D01*
Y-154840D01*
X155704Y-153090D01*
X170750D01*
Y-144090D01*
X156203D01*
X155717Y-142917D01*
X158244Y-140390D01*
X170750D01*
Y-131390D01*
X153750D01*
Y-136896D01*
X152320Y-138326D01*
X151050Y-137800D01*
X151050Y-137681D01*
X151050Y-137681D01*
X151050Y-137619D01*
Y-132300D01*
X144780D01*
Y-138570D01*
X150099Y-138570D01*
X150161D01*
X150161D01*
X150280Y-138570D01*
X150364Y-138773D01*
X150806Y-139840D01*
X145093Y-145553D01*
X144481Y-146469D01*
X144266Y-147550D01*
X144266Y-147550D01*
Y-196392D01*
X142996Y-196918D01*
X129808Y-183731D01*
Y-113449D01*
X135740Y-107518D01*
X137010Y-108044D01*
Y-119560D01*
X150010D01*
Y-113314D01*
X153750D01*
Y-114990D01*
X170750D01*
Y-114310D01*
X172020Y-113784D01*
X177516Y-119280D01*
Y-135890D01*
X177516Y-135890D01*
X177731Y-136971D01*
X178343Y-137887D01*
X185133Y-144678D01*
X185134Y-144681D01*
X185797Y-145673D01*
X186789Y-146336D01*
X187960Y-146569D01*
X189130Y-146336D01*
X190123Y-145673D01*
X190786Y-144681D01*
X191019Y-143510D01*
X190786Y-142339D01*
X190123Y-141347D01*
X189130Y-140684D01*
X189128Y-140683D01*
X183164Y-134720D01*
Y-118110D01*
X182949Y-117029D01*
X182337Y-116113D01*
X174717Y-108493D01*
X173801Y-107881D01*
X172720Y-107666D01*
X172720Y-107666D01*
X170750D01*
Y-105990D01*
X153750D01*
Y-107666D01*
X150010D01*
Y-106560D01*
X138876D01*
X138341Y-105353D01*
X138935Y-104598D01*
X194120D01*
X194120Y-104598D01*
X195681Y-104288D01*
X197004Y-103404D01*
X210578Y-89829D01*
X211010Y-90008D01*
X213360Y-90318D01*
X215709Y-90008D01*
X217899Y-89101D01*
X218746Y-88452D01*
X231517Y-101223D01*
X232509Y-101886D01*
X233680Y-102119D01*
X233680Y-102119D01*
X287020D01*
X288190Y-101886D01*
X289183Y-101223D01*
X289846Y-100231D01*
X290079Y-99060D01*
X289846Y-97889D01*
X289183Y-96897D01*
X288190Y-96234D01*
X287020Y-96001D01*
X234947D01*
X222176Y-83230D01*
X222438Y-81240D01*
Y-76240D01*
X222128Y-73891D01*
X221222Y-71701D01*
X219779Y-69821D01*
X217899Y-68379D01*
X215709Y-67472D01*
X213360Y-67162D01*
D02*
G37*
G36*
X115750Y-92560D02*
X102750D01*
Y-105560D01*
X115750D01*
Y-92560D01*
D02*
G37*
G36*
X220980Y-104950D02*
X212710D01*
Y-106312D01*
X212399Y-106545D01*
X211440Y-106875D01*
X210721Y-106394D01*
X209550Y-106161D01*
X208379Y-106394D01*
X207387Y-107057D01*
X206724Y-108049D01*
X206491Y-109220D01*
X206724Y-110391D01*
X206726Y-110393D01*
Y-124872D01*
X205552Y-125358D01*
X200117Y-119923D01*
X199201Y-119311D01*
X198120Y-119096D01*
X198120Y-119096D01*
X192943D01*
X192941Y-119094D01*
X191770Y-118861D01*
X190599Y-119094D01*
X189607Y-119757D01*
X188944Y-120750D01*
X188711Y-121920D01*
X188944Y-123090D01*
X189607Y-124083D01*
Y-124837D01*
X188944Y-125829D01*
X188711Y-127000D01*
X188944Y-128170D01*
X189607Y-129163D01*
X190599Y-129826D01*
X191770Y-130059D01*
X192941Y-129826D01*
X192943Y-129824D01*
X196317D01*
X203956Y-137463D01*
Y-162330D01*
X203956Y-162330D01*
X204171Y-163411D01*
X204783Y-164327D01*
X213750Y-173294D01*
Y-178490D01*
X230750D01*
Y-169490D01*
X217934D01*
X215408Y-166963D01*
X215893Y-165790D01*
X230750D01*
Y-156790D01*
X213750D01*
X213644Y-155564D01*
Y-154316D01*
X213750Y-153090D01*
X230750D01*
Y-151414D01*
X241370D01*
X242420Y-152464D01*
Y-161470D01*
X255420D01*
Y-148470D01*
X246414D01*
X241584Y-143640D01*
Y-131983D01*
X241586Y-131980D01*
X241615Y-131835D01*
X242993Y-131417D01*
X246096Y-134520D01*
Y-142337D01*
X246094Y-142339D01*
X245861Y-143510D01*
X246094Y-144681D01*
X246757Y-145673D01*
X247750Y-146336D01*
X248920Y-146569D01*
X250091Y-146336D01*
X250093Y-146334D01*
X254254D01*
X254254Y-146334D01*
X255335Y-146119D01*
X256251Y-145507D01*
X265327Y-136431D01*
X265330Y-136430D01*
X266322Y-135767D01*
X266985Y-134775D01*
X267218Y-133604D01*
X266985Y-132434D01*
X266322Y-131442D01*
X265330Y-130779D01*
X264160Y-130546D01*
X262989Y-130779D01*
X261997Y-131442D01*
X261334Y-132434D01*
X261333Y-132437D01*
X253084Y-140686D01*
X251744D01*
Y-133350D01*
X251529Y-132269D01*
X250917Y-131353D01*
X250917Y-131353D01*
X240757Y-121193D01*
X239841Y-120581D01*
X238760Y-120366D01*
X238760Y-120366D01*
X230750D01*
Y-118690D01*
X213750D01*
Y-124134D01*
X212480Y-124812D01*
X212374Y-124742D01*
Y-117161D01*
X212710Y-116030D01*
X213644Y-116030D01*
X220980D01*
Y-110490D01*
Y-104950D01*
D02*
G37*
G36*
X58056Y-103160D02*
X53420D01*
Y-107796D01*
X54507Y-107580D01*
X56505Y-106245D01*
X57840Y-104247D01*
X58056Y-103160D01*
D02*
G37*
G36*
X50880D02*
X46244D01*
X46460Y-104247D01*
X47795Y-106245D01*
X49793Y-107580D01*
X50880Y-107796D01*
Y-103160D01*
D02*
G37*
G36*
X231790Y-104950D02*
X223520D01*
Y-109220D01*
X231790D01*
Y-104950D01*
D02*
G37*
G36*
Y-111760D02*
X223520D01*
Y-116030D01*
X231790D01*
Y-111760D01*
D02*
G37*
G36*
X736381Y-82550D02*
X723900D01*
X711419D01*
X711683Y-84554D01*
X712946Y-87604D01*
X714956Y-90224D01*
X717576Y-92234D01*
X720626Y-93497D01*
X723133Y-93827D01*
X723412Y-93864D01*
Y-95145D01*
X723133Y-95182D01*
X720898Y-95476D01*
X718100Y-96635D01*
X715698Y-98478D01*
X713855Y-100880D01*
X712696Y-103678D01*
X712301Y-106680D01*
X712696Y-109682D01*
X713855Y-112480D01*
X713964Y-112622D01*
X700313Y-126273D01*
X699701Y-127189D01*
X699486Y-128270D01*
X699486Y-128270D01*
Y-176630D01*
X638910Y-237206D01*
X449483D01*
X449481Y-237204D01*
X448310Y-236971D01*
X447140Y-237204D01*
X446147Y-237867D01*
X445484Y-238860D01*
X445251Y-240030D01*
X445484Y-241201D01*
X446147Y-242193D01*
X447140Y-242856D01*
X448310Y-243089D01*
X449481Y-242856D01*
X449483Y-242854D01*
X640080D01*
X640080Y-242854D01*
X641161Y-242639D01*
X642077Y-242027D01*
X704307Y-179797D01*
X704307Y-179797D01*
X704919Y-178881D01*
X705134Y-177800D01*
Y-129440D01*
X717958Y-116616D01*
X718100Y-116725D01*
X720898Y-117884D01*
X723900Y-118279D01*
X726902Y-117884D01*
X729700Y-116725D01*
X732102Y-114882D01*
X733945Y-112480D01*
X735104Y-109682D01*
X735499Y-106680D01*
X735104Y-103678D01*
X733945Y-100880D01*
X732102Y-98478D01*
X729700Y-96635D01*
X726902Y-95476D01*
X724667Y-95182D01*
X724388Y-95145D01*
Y-93864D01*
X724667Y-93827D01*
X727174Y-93497D01*
X730224Y-92234D01*
X732844Y-90224D01*
X734854Y-87604D01*
X736117Y-84554D01*
X736381Y-82550D01*
D02*
G37*
G36*
X510420Y-110610D02*
X501650D01*
Y-119380D01*
X510420D01*
Y-110610D01*
D02*
G37*
G36*
X499110D02*
X490340D01*
Y-119380D01*
X499110D01*
Y-110610D01*
D02*
G37*
G36*
X655320Y-119324D02*
X655014Y-119384D01*
X654371Y-119814D01*
X653415Y-120177D01*
X652459Y-119814D01*
X651816Y-119384D01*
X651510Y-119324D01*
Y-123190D01*
X650240D01*
Y-124460D01*
X646374D01*
X646434Y-124766D01*
X647327Y-126103D01*
Y-126627D01*
X646434Y-127964D01*
X646374Y-128270D01*
X650240D01*
Y-129540D01*
X651510D01*
Y-133406D01*
X651816Y-133346D01*
X653153Y-132453D01*
X653677D01*
X655014Y-133346D01*
X655320Y-133406D01*
Y-129540D01*
X656590D01*
Y-128270D01*
X660456D01*
X660396Y-127964D01*
X659503Y-126627D01*
Y-126103D01*
X660396Y-124766D01*
X660456Y-124460D01*
X656590D01*
Y-123190D01*
X655320D01*
Y-119324D01*
D02*
G37*
G36*
X657860D02*
Y-121920D01*
X660456D01*
X660396Y-121614D01*
X659503Y-120277D01*
X658166Y-119384D01*
X657860Y-119324D01*
D02*
G37*
G36*
X648970D02*
X648664Y-119384D01*
X647327Y-120277D01*
X646434Y-121614D01*
X646374Y-121920D01*
X648970D01*
Y-119324D01*
D02*
G37*
G36*
X33020Y-124403D02*
X32714Y-124464D01*
X32071Y-124894D01*
X31115Y-125258D01*
X30159Y-124894D01*
X29516Y-124464D01*
X29210Y-124403D01*
Y-128270D01*
X27940D01*
Y-129540D01*
X24074D01*
X24134Y-129846D01*
X25027Y-131183D01*
Y-131707D01*
X24134Y-133044D01*
X24074Y-133350D01*
X27940D01*
Y-134620D01*
X29210D01*
Y-138486D01*
X29516Y-138426D01*
X30159Y-137996D01*
X31115Y-137633D01*
X32071Y-137996D01*
X32714Y-138426D01*
X33020Y-138486D01*
Y-134620D01*
X34290D01*
Y-133350D01*
X38156D01*
X38096Y-133044D01*
X37203Y-131707D01*
Y-131183D01*
X38096Y-129846D01*
X38156Y-129540D01*
X34290D01*
Y-128270D01*
X33020D01*
Y-124403D01*
D02*
G37*
G36*
X55880Y-120131D02*
X54710Y-120364D01*
X54295Y-120641D01*
X53340D01*
X52365Y-120835D01*
X51538Y-121388D01*
X48998Y-123928D01*
X48445Y-124754D01*
X48251Y-125730D01*
Y-130810D01*
X48445Y-131785D01*
X48998Y-132612D01*
X51538Y-135152D01*
X52365Y-135705D01*
X53340Y-135899D01*
X54295D01*
X54710Y-136176D01*
X55880Y-136409D01*
X57050Y-136176D01*
X58043Y-135513D01*
X58706Y-134521D01*
X58939Y-133350D01*
X58706Y-132179D01*
X58043Y-131187D01*
X57050Y-130524D01*
X55880Y-130291D01*
X54710Y-130524D01*
X54355Y-130761D01*
X53349Y-129754D01*
Y-126786D01*
X54355Y-125779D01*
X54710Y-126016D01*
X55880Y-126249D01*
X57050Y-126016D01*
X58043Y-125353D01*
X58706Y-124361D01*
X58939Y-123190D01*
X58706Y-122020D01*
X58043Y-121027D01*
X57050Y-120364D01*
X55880Y-120131D01*
D02*
G37*
G36*
X35560Y-124403D02*
Y-127000D01*
X38156D01*
X38096Y-126694D01*
X37203Y-125357D01*
X35866Y-124464D01*
X35560Y-124403D01*
D02*
G37*
G36*
X26670D02*
X26364Y-124464D01*
X25027Y-125357D01*
X24134Y-126694D01*
X24074Y-127000D01*
X26670D01*
Y-124403D01*
D02*
G37*
G36*
X170750Y-118690D02*
X153750D01*
Y-127690D01*
X170750D01*
Y-118690D01*
D02*
G37*
G36*
X387350Y-126944D02*
X387044Y-127004D01*
X386401Y-127434D01*
X385445Y-127797D01*
X384489Y-127434D01*
X383846Y-127004D01*
X383540Y-126944D01*
Y-130810D01*
X382270D01*
Y-132080D01*
X378404D01*
X378464Y-132386D01*
X379357Y-133723D01*
Y-134247D01*
X378464Y-135584D01*
X378404Y-135890D01*
X382270D01*
Y-137160D01*
X383540D01*
Y-141026D01*
X383846Y-140966D01*
X384489Y-140536D01*
X385445Y-140173D01*
X386401Y-140536D01*
X387044Y-140966D01*
X387350Y-141026D01*
Y-137160D01*
X388620D01*
Y-135890D01*
X392486D01*
X392426Y-135584D01*
X391533Y-134247D01*
Y-133723D01*
X392426Y-132386D01*
X392486Y-132080D01*
X388620D01*
Y-130810D01*
X387350D01*
Y-126944D01*
D02*
G37*
G36*
X389890D02*
Y-129540D01*
X392486D01*
X392426Y-129234D01*
X391533Y-127897D01*
X390196Y-127004D01*
X389890Y-126944D01*
D02*
G37*
G36*
X381000D02*
X380694Y-127004D01*
X379357Y-127897D01*
X378464Y-129234D01*
X378404Y-129540D01*
X381000D01*
Y-126944D01*
D02*
G37*
G36*
X151050Y-123490D02*
X144780D01*
Y-129760D01*
X151050D01*
Y-123490D01*
D02*
G37*
G36*
X142240D02*
X135970D01*
Y-129760D01*
X142240D01*
Y-123490D01*
D02*
G37*
G36*
X510420Y-121920D02*
X501650D01*
Y-130690D01*
X510420D01*
Y-121920D01*
D02*
G37*
G36*
X499110D02*
X490340D01*
Y-130690D01*
X499110D01*
Y-121920D01*
D02*
G37*
G36*
X660456Y-130810D02*
X657860D01*
Y-133406D01*
X658166Y-133346D01*
X659503Y-132453D01*
X660396Y-131116D01*
X660456Y-130810D01*
D02*
G37*
G36*
X648970D02*
X646374D01*
X646434Y-131116D01*
X647327Y-132453D01*
X648664Y-133346D01*
X648970Y-133406D01*
Y-130810D01*
D02*
G37*
G36*
X38156Y-135890D02*
X35560D01*
Y-138486D01*
X35866Y-138426D01*
X37203Y-137533D01*
X38096Y-136196D01*
X38156Y-135890D01*
D02*
G37*
G36*
X26670D02*
X24074D01*
X24134Y-136196D01*
X25027Y-137533D01*
X26364Y-138426D01*
X26670Y-138486D01*
Y-135890D01*
D02*
G37*
G36*
X142240Y-132300D02*
X135970D01*
Y-138570D01*
X142240D01*
Y-132300D01*
D02*
G37*
G36*
X392486Y-138430D02*
X389890D01*
Y-141026D01*
X390196Y-140966D01*
X391533Y-140073D01*
X392426Y-138736D01*
X392486Y-138430D01*
D02*
G37*
G36*
X381000D02*
X378404D01*
X378464Y-138736D01*
X379357Y-140073D01*
X380694Y-140966D01*
X381000Y-141026D01*
Y-138430D01*
D02*
G37*
G36*
X723900Y-120481D02*
X720898Y-120876D01*
X718100Y-122035D01*
X715698Y-123878D01*
X713855Y-126280D01*
X712696Y-129078D01*
X712301Y-132080D01*
X712696Y-135082D01*
X713855Y-137880D01*
X715698Y-140282D01*
X718100Y-142125D01*
X720898Y-143284D01*
X723900Y-143679D01*
X726902Y-143284D01*
X729700Y-142125D01*
X732102Y-140282D01*
X733945Y-137880D01*
X735104Y-135082D01*
X735499Y-132080D01*
X735104Y-129078D01*
X733945Y-126280D01*
X732102Y-123878D01*
X729700Y-122035D01*
X726902Y-120876D01*
X723900Y-120481D01*
D02*
G37*
G36*
X612140Y-144261D02*
X610970Y-144494D01*
X610967Y-144496D01*
X564373D01*
X564370Y-144494D01*
X563200Y-144261D01*
X562029Y-144494D01*
X561037Y-145157D01*
X560374Y-146150D01*
X560141Y-147320D01*
X560374Y-148490D01*
X561037Y-149483D01*
X562029Y-150146D01*
X563200Y-150379D01*
X564370Y-150146D01*
X564373Y-150144D01*
X610967D01*
X610970Y-150146D01*
X612140Y-150379D01*
X613311Y-150146D01*
X614303Y-149483D01*
X614966Y-148490D01*
X615199Y-147320D01*
X614966Y-146150D01*
X614303Y-145157D01*
X613311Y-144494D01*
X612140Y-144261D01*
D02*
G37*
G36*
X53420Y-153784D02*
Y-158420D01*
X58056D01*
X57840Y-157333D01*
X56505Y-155335D01*
X54507Y-154001D01*
X53420Y-153784D01*
D02*
G37*
G36*
X50880D02*
X49793Y-154001D01*
X47795Y-155335D01*
X46460Y-157333D01*
X46244Y-158420D01*
X50880D01*
Y-153784D01*
D02*
G37*
G36*
X617220Y-158231D02*
X616049Y-158464D01*
X616047Y-158466D01*
X577413D01*
X577411Y-158464D01*
X576240Y-158231D01*
X575070Y-158464D01*
X574077Y-159127D01*
X573414Y-160119D01*
X573181Y-161290D01*
X573414Y-162460D01*
X574077Y-163453D01*
X575070Y-164116D01*
X576240Y-164349D01*
X577411Y-164116D01*
X577413Y-164114D01*
X616047D01*
X616049Y-164116D01*
X617220Y-164349D01*
X618391Y-164116D01*
X619383Y-163453D01*
X620046Y-162460D01*
X620279Y-161290D01*
X620046Y-160119D01*
X619383Y-159127D01*
X618391Y-158464D01*
X617220Y-158231D01*
D02*
G37*
G36*
X361950Y-158694D02*
X361644Y-158754D01*
X361001Y-159184D01*
X360045Y-159548D01*
X359089Y-159184D01*
X358446Y-158754D01*
X358140Y-158694D01*
Y-162560D01*
X356870D01*
Y-163830D01*
X353004D01*
X353064Y-164136D01*
X353957Y-165473D01*
Y-165997D01*
X353064Y-167334D01*
X353004Y-167640D01*
X356870D01*
Y-168910D01*
X358140D01*
Y-172777D01*
X358446Y-172716D01*
X359089Y-172286D01*
X360045Y-171922D01*
X361001Y-172286D01*
X361644Y-172716D01*
X361950Y-172777D01*
Y-168910D01*
X363220D01*
Y-167640D01*
X367086D01*
X367026Y-167334D01*
X366133Y-165997D01*
Y-165473D01*
X367026Y-164136D01*
X367086Y-163830D01*
X363220D01*
Y-162560D01*
X361950D01*
Y-158694D01*
D02*
G37*
G36*
X364490D02*
Y-161290D01*
X367086D01*
X367026Y-160984D01*
X366133Y-159647D01*
X364796Y-158754D01*
X364490Y-158694D01*
D02*
G37*
G36*
X355600D02*
X355294Y-158754D01*
X353957Y-159647D01*
X353064Y-160984D01*
X353004Y-161290D01*
X355600D01*
Y-158694D01*
D02*
G37*
G36*
X115750Y-144630D02*
X102750D01*
Y-157630D01*
X105383D01*
X106189Y-158612D01*
X106161Y-158750D01*
X106394Y-159921D01*
X107057Y-160913D01*
X108049Y-161576D01*
X109220Y-161809D01*
X110391Y-161576D01*
X111383Y-160913D01*
X112046Y-159921D01*
X112279Y-158750D01*
X112251Y-158612D01*
X113057Y-157630D01*
X115750D01*
Y-144630D01*
D02*
G37*
G36*
X95250Y-101246D02*
X82550D01*
X81402Y-101722D01*
X80926Y-102870D01*
Y-163830D01*
X81402Y-164978D01*
X82550Y-165454D01*
X95250D01*
X96398Y-164978D01*
X96874Y-163830D01*
Y-102870D01*
X96398Y-101722D01*
X95250Y-101246D01*
D02*
G37*
G36*
X458470Y-165851D02*
X457299Y-166084D01*
X457297Y-166086D01*
X457200D01*
X457200Y-166086D01*
X456119Y-166301D01*
X455203Y-166913D01*
X431073Y-191043D01*
X430461Y-191959D01*
X430246Y-193040D01*
X430246Y-193040D01*
Y-249017D01*
X430244Y-249020D01*
X430011Y-250190D01*
X430244Y-251360D01*
X430907Y-252353D01*
X431899Y-253016D01*
X433070Y-253249D01*
X434240Y-253016D01*
X435233Y-252353D01*
X435896Y-251360D01*
X436129Y-250190D01*
X435896Y-249020D01*
X435894Y-249017D01*
Y-194210D01*
X458191Y-171913D01*
X458470Y-171969D01*
X459641Y-171736D01*
X460633Y-171073D01*
X461296Y-170081D01*
X461529Y-168910D01*
X461296Y-167740D01*
X460633Y-166747D01*
X459641Y-166084D01*
X458470Y-165851D01*
D02*
G37*
G36*
X261620Y-163773D02*
Y-166370D01*
X264216D01*
X264156Y-166064D01*
X263263Y-164727D01*
X261926Y-163834D01*
X261620Y-163773D01*
D02*
G37*
G36*
X723900Y-145881D02*
X720898Y-146276D01*
X718100Y-147435D01*
X715698Y-149278D01*
X713855Y-151680D01*
X712696Y-154478D01*
X712301Y-157480D01*
X712696Y-160482D01*
X713855Y-163280D01*
X715698Y-165682D01*
X718100Y-167525D01*
X720898Y-168684D01*
X723900Y-169079D01*
X726902Y-168684D01*
X729700Y-167525D01*
X732102Y-165682D01*
X733945Y-163280D01*
X735104Y-160482D01*
X735499Y-157480D01*
X735104Y-154478D01*
X733945Y-151680D01*
X732102Y-149278D01*
X729700Y-147435D01*
X726902Y-146276D01*
X723900Y-145881D01*
D02*
G37*
G36*
X247650Y-165400D02*
X241380D01*
Y-171670D01*
X247650D01*
Y-165400D01*
D02*
G37*
G36*
X64650Y-166385D02*
X58420D01*
Y-172720D01*
X72088D01*
X71996Y-172022D01*
X71236Y-170187D01*
X70028Y-168612D01*
X68453Y-167404D01*
X66618Y-166644D01*
X64650Y-166385D01*
D02*
G37*
G36*
X58056Y-160960D02*
X46244D01*
X46460Y-162047D01*
X47795Y-164045D01*
X49425Y-165134D01*
X49159Y-166450D01*
X47682Y-166644D01*
X45848Y-167404D01*
X44272Y-168612D01*
X43064Y-170187D01*
X42304Y-172022D01*
X42212Y-172720D01*
X55880D01*
Y-166385D01*
X55288D01*
X54903Y-165115D01*
X56505Y-164045D01*
X57840Y-162047D01*
X58056Y-160960D01*
D02*
G37*
G36*
X21350Y-166385D02*
X16620D01*
Y-172720D01*
X28788D01*
X28696Y-172022D01*
X27936Y-170187D01*
X26728Y-168612D01*
X25153Y-167404D01*
X23318Y-166644D01*
X21350Y-166385D01*
D02*
G37*
G36*
X367086Y-170180D02*
X364490D01*
Y-172777D01*
X364796Y-172716D01*
X366133Y-171823D01*
X367026Y-170486D01*
X367086Y-170180D01*
D02*
G37*
G36*
X355600D02*
X353004D01*
X353064Y-170486D01*
X353957Y-171823D01*
X355294Y-172716D01*
X355600Y-172777D01*
Y-170180D01*
D02*
G37*
G36*
X264216Y-175260D02*
X261620D01*
Y-177857D01*
X261926Y-177796D01*
X263263Y-176903D01*
X264156Y-175566D01*
X264216Y-175260D01*
D02*
G37*
G36*
X259080Y-163773D02*
X258774Y-163834D01*
X257437Y-164727D01*
X256460Y-165400D01*
X250190D01*
Y-172940D01*
Y-180480D01*
X256460D01*
Y-177661D01*
X256720Y-177459D01*
X257730Y-177098D01*
X258774Y-177796D01*
X259080Y-177857D01*
Y-173990D01*
X260350D01*
Y-172720D01*
X264216D01*
X264156Y-172414D01*
X263263Y-171077D01*
Y-170553D01*
X264156Y-169216D01*
X264216Y-168910D01*
X260350D01*
Y-167640D01*
X259080D01*
Y-163773D01*
D02*
G37*
G36*
X247650Y-174210D02*
X241380D01*
Y-180480D01*
X247650D01*
Y-174210D01*
D02*
G37*
G36*
X72088Y-175260D02*
X58420D01*
Y-181595D01*
X64650D01*
X66618Y-181336D01*
X68453Y-180576D01*
X70028Y-179368D01*
X71236Y-177792D01*
X71996Y-175958D01*
X72088Y-175260D01*
D02*
G37*
G36*
X55880D02*
X42212D01*
X42304Y-175958D01*
X43064Y-177792D01*
X44272Y-179368D01*
X45848Y-180576D01*
X47682Y-181336D01*
X49650Y-181595D01*
X55880D01*
Y-175260D01*
D02*
G37*
G36*
X28788D02*
X16620D01*
Y-181595D01*
X21350D01*
X23318Y-181336D01*
X25153Y-180576D01*
X26728Y-179368D01*
X27936Y-177792D01*
X28696Y-175958D01*
X28788Y-175260D01*
D02*
G37*
G36*
X534670Y-181553D02*
X534364Y-181614D01*
X533721Y-182044D01*
X532765Y-182407D01*
X531809Y-182044D01*
X531166Y-181614D01*
X530860Y-181553D01*
Y-185420D01*
X529590D01*
Y-186690D01*
X525723D01*
X525784Y-186996D01*
X526677Y-188333D01*
Y-188857D01*
X525784Y-190194D01*
X525723Y-190500D01*
X529590D01*
Y-191770D01*
X530860D01*
Y-195637D01*
X531166Y-195576D01*
X531809Y-195146D01*
X532765Y-194783D01*
X533721Y-195146D01*
X534364Y-195576D01*
X534670Y-195637D01*
Y-191770D01*
X535940D01*
Y-190500D01*
X539807D01*
X539746Y-190194D01*
X539316Y-189551D01*
X538952Y-188595D01*
X539316Y-187639D01*
X539746Y-186996D01*
X539807Y-186690D01*
X535940D01*
Y-185420D01*
X534670D01*
Y-181553D01*
D02*
G37*
G36*
X510540D02*
X510234Y-181614D01*
X509591Y-182044D01*
X508635Y-182407D01*
X507679Y-182044D01*
X507036Y-181614D01*
X506730Y-181553D01*
Y-185420D01*
X505460D01*
Y-186690D01*
X501594D01*
X501654Y-186996D01*
X502547Y-188333D01*
Y-188857D01*
X501654Y-190194D01*
X501594Y-190500D01*
X505460D01*
Y-191770D01*
X506730D01*
Y-195637D01*
X507036Y-195576D01*
X507679Y-195146D01*
X508635Y-194783D01*
X509591Y-195146D01*
X510234Y-195576D01*
X510540Y-195637D01*
Y-191770D01*
X511810D01*
Y-190500D01*
X515676D01*
X515616Y-190194D01*
X515186Y-189551D01*
X514823Y-188595D01*
X515186Y-187639D01*
X515616Y-186996D01*
X515676Y-186690D01*
X511810D01*
Y-185420D01*
X510540D01*
Y-181553D01*
D02*
G37*
G36*
X537210D02*
Y-184150D01*
X539807D01*
X539746Y-183844D01*
X538853Y-182507D01*
X537516Y-181614D01*
X537210Y-181553D01*
D02*
G37*
G36*
X528320D02*
X528014Y-181614D01*
X526677Y-182507D01*
X525784Y-183844D01*
X525723Y-184150D01*
X528320D01*
Y-181553D01*
D02*
G37*
G36*
X513080D02*
Y-184150D01*
X515676D01*
X515616Y-183844D01*
X514723Y-182507D01*
X513386Y-181614D01*
X513080Y-181553D01*
D02*
G37*
G36*
X504190D02*
X503884Y-181614D01*
X502547Y-182507D01*
X501654Y-183844D01*
X501594Y-184150D01*
X504190D01*
Y-181553D01*
D02*
G37*
G36*
X509380Y-131970D02*
X491380D01*
Y-141080D01*
X485967Y-146493D01*
X485355Y-147409D01*
X485140Y-148490D01*
X485140Y-148490D01*
Y-175076D01*
X475080Y-185136D01*
X465993D01*
X465990Y-185134D01*
X464820Y-184901D01*
X463649Y-185134D01*
X462657Y-185797D01*
X461994Y-186789D01*
X461761Y-187960D01*
X461994Y-189130D01*
X462657Y-190123D01*
X462963Y-190327D01*
X463645Y-190801D01*
X463287Y-191955D01*
X463264Y-191989D01*
X463031Y-193160D01*
X463264Y-194330D01*
X463927Y-195323D01*
X464920Y-195986D01*
X466090Y-196219D01*
X467261Y-195986D01*
X467263Y-195984D01*
X481394D01*
X481394Y-195984D01*
X482475Y-195769D01*
X483391Y-195157D01*
X502377Y-176171D01*
X502377Y-176171D01*
X502989Y-175255D01*
X503204Y-174174D01*
Y-170290D01*
X509380D01*
Y-152290D01*
X491380D01*
X490789Y-151265D01*
Y-150995D01*
X491380Y-149970D01*
X509380D01*
Y-131970D01*
D02*
G37*
G36*
X723900Y-171281D02*
X720898Y-171676D01*
X718100Y-172835D01*
X715698Y-174678D01*
X713855Y-177080D01*
X712696Y-179878D01*
X712301Y-182880D01*
X712696Y-185882D01*
X713855Y-188680D01*
X715698Y-191082D01*
X718100Y-192925D01*
X720898Y-194084D01*
X723900Y-194479D01*
X726902Y-194084D01*
X729700Y-192925D01*
X732102Y-191082D01*
X733945Y-188680D01*
X735104Y-185882D01*
X735499Y-182880D01*
X735104Y-179878D01*
X733945Y-177080D01*
X732102Y-174678D01*
X729700Y-172835D01*
X726902Y-171676D01*
X723900Y-171281D01*
D02*
G37*
G36*
X539807Y-193040D02*
X537210D01*
Y-195637D01*
X537516Y-195576D01*
X538853Y-194683D01*
X539746Y-193346D01*
X539807Y-193040D01*
D02*
G37*
G36*
X528320D02*
X525723D01*
X525784Y-193346D01*
X526677Y-194683D01*
X528014Y-195576D01*
X528320Y-195637D01*
Y-193040D01*
D02*
G37*
G36*
X515676D02*
X513080D01*
Y-195637D01*
X513386Y-195576D01*
X514723Y-194683D01*
X515616Y-193346D01*
X515676Y-193040D01*
D02*
G37*
G36*
X504190D02*
X501594D01*
X501654Y-193346D01*
X502547Y-194683D01*
X503884Y-195576D01*
X504190Y-195637D01*
Y-193040D01*
D02*
G37*
G36*
X544830Y-203060D02*
X538560D01*
Y-205031D01*
X537290Y-205699D01*
X537210Y-205683D01*
Y-209550D01*
X534670D01*
Y-205683D01*
X534364Y-205744D01*
X533721Y-206174D01*
X532765Y-206537D01*
X531809Y-206174D01*
X531166Y-205744D01*
X530860Y-205683D01*
Y-209550D01*
X529590D01*
Y-210820D01*
X525723D01*
X525784Y-211126D01*
X526214Y-211769D01*
X526577Y-212725D01*
X526214Y-213681D01*
X525784Y-214324D01*
X525723Y-214630D01*
X529590D01*
Y-215900D01*
X530860D01*
Y-219767D01*
X531166Y-219706D01*
X531809Y-219276D01*
X532765Y-218913D01*
X533721Y-219276D01*
X534364Y-219706D01*
X534670Y-219767D01*
Y-215900D01*
X537210D01*
Y-219767D01*
X537516Y-219706D01*
X538853Y-218813D01*
X539302Y-218140D01*
X544830D01*
Y-210600D01*
Y-203060D01*
D02*
G37*
G36*
X510540Y-205683D02*
X510234Y-205744D01*
X509591Y-206174D01*
X508635Y-206537D01*
X507679Y-206174D01*
X507036Y-205744D01*
X506730Y-205683D01*
Y-209550D01*
X505460D01*
Y-210820D01*
X501594D01*
X501654Y-211126D01*
X502547Y-212463D01*
Y-212987D01*
X501654Y-214324D01*
X501594Y-214630D01*
X505460D01*
Y-215900D01*
X506730D01*
Y-219767D01*
X507036Y-219706D01*
X507679Y-219276D01*
X508635Y-218913D01*
X509591Y-219276D01*
X510234Y-219706D01*
X510540Y-219767D01*
Y-215900D01*
X511810D01*
Y-214630D01*
X515676D01*
X515616Y-214324D01*
X515186Y-213681D01*
X514823Y-212725D01*
X515186Y-211769D01*
X515616Y-211126D01*
X515676Y-210820D01*
X511810D01*
Y-209550D01*
X510540D01*
Y-205683D01*
D02*
G37*
G36*
X622267Y-17780D02*
X602013D01*
Y-19010D01*
X602358Y-21631D01*
X603370Y-24073D01*
X604979Y-26171D01*
X607077Y-27780D01*
X609519Y-28792D01*
X611226Y-29016D01*
X611816Y-29094D01*
Y-30375D01*
X611226Y-30453D01*
X609790Y-30642D01*
X607601Y-31549D01*
X605721Y-32991D01*
X604278Y-34871D01*
X603372Y-37060D01*
X603062Y-39410D01*
Y-44410D01*
X603372Y-46760D01*
X604278Y-48949D01*
X605721Y-50829D01*
X607601Y-52271D01*
X608062Y-52462D01*
Y-110490D01*
X608062Y-110490D01*
X608372Y-112051D01*
X609256Y-113374D01*
X647432Y-151549D01*
Y-203200D01*
X647742Y-204761D01*
X648626Y-206084D01*
X649949Y-206968D01*
X651510Y-207278D01*
X653071Y-206968D01*
X654394Y-206084D01*
X655278Y-204761D01*
X655588Y-203200D01*
Y-149860D01*
X655588Y-149860D01*
X655278Y-148299D01*
X654394Y-146976D01*
X616218Y-108801D01*
Y-52462D01*
X616679Y-52271D01*
X618559Y-50829D01*
X620001Y-48949D01*
X620908Y-46760D01*
X621218Y-44410D01*
Y-39410D01*
X620908Y-37060D01*
X620001Y-34871D01*
X618559Y-32991D01*
X616679Y-31549D01*
X614490Y-30642D01*
X613054Y-30453D01*
X612464Y-30375D01*
Y-29094D01*
X613054Y-29016D01*
X614761Y-28792D01*
X617203Y-27780D01*
X619301Y-26171D01*
X620910Y-24073D01*
X621922Y-21631D01*
X622267Y-19010D01*
Y-17780D01*
D02*
G37*
G36*
X528320Y-205683D02*
X528014Y-205744D01*
X526677Y-206637D01*
X525784Y-207974D01*
X525723Y-208280D01*
X528320D01*
Y-205683D01*
D02*
G37*
G36*
X513080D02*
Y-208280D01*
X515676D01*
X515616Y-207974D01*
X514723Y-206637D01*
X513386Y-205744D01*
X513080Y-205683D01*
D02*
G37*
G36*
X504190D02*
X503884Y-205744D01*
X502547Y-206637D01*
X501654Y-207974D01*
X501594Y-208280D01*
X504190D01*
Y-205683D01*
D02*
G37*
G36*
X562610Y-203060D02*
Y-209330D01*
X568880D01*
Y-203060D01*
X562610D01*
D02*
G37*
G36*
X568880Y-211870D02*
X562610D01*
Y-218140D01*
X568880D01*
Y-211870D01*
D02*
G37*
G36*
X553800Y-203060D02*
X552530Y-203060D01*
X547370D01*
Y-210600D01*
Y-218140D01*
X552530D01*
X553640Y-218140D01*
X554910Y-218140D01*
X560070D01*
Y-210600D01*
Y-203060D01*
X554910D01*
X553800Y-203060D01*
D02*
G37*
G36*
X230750Y-182190D02*
X213750D01*
Y-189979D01*
X194345Y-209384D01*
X193733Y-210300D01*
X193518Y-211381D01*
X193518Y-211381D01*
Y-212972D01*
X187342D01*
Y-218186D01*
X181760D01*
Y-214510D01*
X168760D01*
Y-227510D01*
X181760D01*
Y-223834D01*
X187342D01*
Y-227972D01*
X204212D01*
X204401Y-228919D01*
X205013Y-229835D01*
X209948Y-234770D01*
Y-247276D01*
X227948D01*
Y-242600D01*
X230990D01*
Y-246500D01*
X243990D01*
Y-233500D01*
X230990D01*
Y-236952D01*
X227948D01*
Y-232276D01*
X215442D01*
X212311Y-229145D01*
X212798Y-227972D01*
X227948D01*
Y-212972D01*
X209948D01*
X209834Y-211749D01*
Y-210720D01*
X216664Y-203890D01*
X230750D01*
Y-194890D01*
X218486D01*
X218000Y-193717D01*
X220527Y-191190D01*
X230750D01*
Y-182190D01*
D02*
G37*
G36*
X528320Y-217170D02*
X525723D01*
X525784Y-217476D01*
X526677Y-218813D01*
X528014Y-219706D01*
X528320Y-219767D01*
Y-217170D01*
D02*
G37*
G36*
X515676D02*
X513080D01*
Y-219767D01*
X513386Y-219706D01*
X514723Y-218813D01*
X515616Y-217476D01*
X515676Y-217170D01*
D02*
G37*
G36*
X504190D02*
X501594D01*
X501654Y-217476D01*
X502547Y-218813D01*
X503884Y-219706D01*
X504190Y-219767D01*
Y-217170D01*
D02*
G37*
G36*
X245030Y-214490D02*
X238760D01*
Y-220760D01*
X245030D01*
Y-214490D01*
D02*
G37*
G36*
X236220D02*
X229950D01*
Y-220760D01*
X236220D01*
Y-214490D01*
D02*
G37*
G36*
X389890Y-220924D02*
X389584Y-220984D01*
X388941Y-221414D01*
X387985Y-221777D01*
X387029Y-221414D01*
X386386Y-220984D01*
X386080Y-220924D01*
Y-224790D01*
Y-228657D01*
X386386Y-228596D01*
X387029Y-228166D01*
X387985Y-227803D01*
X388941Y-228166D01*
X389584Y-228596D01*
X389890Y-228657D01*
Y-224790D01*
Y-220924D01*
D02*
G37*
G36*
X723900Y-222194D02*
X723594Y-222254D01*
X722951Y-222684D01*
X721995Y-223048D01*
X721039Y-222684D01*
X720396Y-222254D01*
X720090Y-222194D01*
Y-226060D01*
X718820D01*
Y-227330D01*
X714954D01*
X715014Y-227636D01*
X715444Y-228279D01*
X715807Y-229235D01*
X715444Y-230191D01*
X715014Y-230834D01*
X714954Y-231140D01*
X718820D01*
Y-232410D01*
X720090D01*
Y-236276D01*
X720396Y-236216D01*
X721039Y-235786D01*
X721995Y-235422D01*
X722951Y-235786D01*
X723594Y-236216D01*
X723900Y-236276D01*
Y-232410D01*
X725170D01*
Y-231140D01*
X729036D01*
X728976Y-230834D01*
X728546Y-230191D01*
X728183Y-229235D01*
X728546Y-228279D01*
X728976Y-227636D01*
X729036Y-227330D01*
X725170D01*
Y-226060D01*
X723900D01*
Y-222194D01*
D02*
G37*
G36*
X392430Y-220924D02*
Y-223520D01*
X395027D01*
X394966Y-223214D01*
X394073Y-221877D01*
X392736Y-220984D01*
X392430Y-220924D01*
D02*
G37*
G36*
X383540D02*
X383234Y-220984D01*
X381897Y-221877D01*
X381004Y-223214D01*
X380943Y-223520D01*
X383540D01*
Y-220924D01*
D02*
G37*
G36*
X726440Y-222194D02*
Y-224790D01*
X729036D01*
X728976Y-224484D01*
X728083Y-223147D01*
X726746Y-222254D01*
X726440Y-222194D01*
D02*
G37*
G36*
X717550D02*
X717244Y-222254D01*
X715907Y-223147D01*
X715014Y-224484D01*
X714954Y-224790D01*
X717550D01*
Y-222194D01*
D02*
G37*
G36*
X395027Y-226060D02*
X392430D01*
Y-228657D01*
X392736Y-228596D01*
X394073Y-227703D01*
X394966Y-226366D01*
X395027Y-226060D01*
D02*
G37*
G36*
X383540D02*
X380943D01*
X381004Y-226366D01*
X381897Y-227703D01*
X383234Y-228596D01*
X383540Y-228657D01*
Y-226060D01*
D02*
G37*
G36*
X245030Y-223300D02*
X238760D01*
Y-229570D01*
X245030D01*
Y-223300D01*
D02*
G37*
G36*
X236220D02*
X229950D01*
Y-229570D01*
X236220D01*
Y-223300D01*
D02*
G37*
G36*
X574040Y-195061D02*
X572869Y-195294D01*
X571877Y-195957D01*
X571214Y-196950D01*
X570981Y-198120D01*
X571214Y-199291D01*
X571877Y-200283D01*
Y-201037D01*
X571214Y-202029D01*
X570981Y-203200D01*
X571214Y-204370D01*
X571877Y-205363D01*
X572869Y-206026D01*
X574040Y-206259D01*
X575210Y-206026D01*
X575213Y-206024D01*
X598270D01*
X615666Y-223420D01*
Y-229967D01*
X615664Y-229970D01*
X615431Y-231140D01*
X615664Y-232311D01*
X616327Y-233303D01*
X617319Y-233966D01*
X618490Y-234199D01*
X619660Y-233966D01*
X620653Y-233303D01*
X621316Y-232311D01*
X621549Y-231140D01*
X621316Y-229970D01*
X621314Y-229967D01*
Y-223244D01*
X622584Y-222718D01*
X632174Y-232308D01*
X632174Y-232311D01*
X632837Y-233303D01*
X633829Y-233966D01*
X635000Y-234199D01*
X636171Y-233966D01*
X637163Y-233303D01*
X637826Y-232311D01*
X638059Y-231140D01*
X637826Y-229970D01*
X637163Y-228977D01*
X636171Y-228314D01*
X636168Y-228314D01*
X603977Y-196123D01*
X603061Y-195511D01*
X601980Y-195296D01*
X601980Y-195296D01*
X575213D01*
X575210Y-195294D01*
X574040Y-195061D01*
D02*
G37*
G36*
X454660Y-194042D02*
X453099Y-194352D01*
X451776Y-195236D01*
X450892Y-196559D01*
X450582Y-198120D01*
X450892Y-199681D01*
X451776Y-201004D01*
X480986Y-230214D01*
X480986Y-230214D01*
X482309Y-231098D01*
X483870Y-231408D01*
X483870Y-231408D01*
X539600D01*
Y-235070D01*
X552600D01*
Y-231408D01*
X554840D01*
Y-235070D01*
X567840D01*
Y-231408D01*
X607060D01*
X608621Y-231098D01*
X609944Y-230214D01*
X610828Y-228891D01*
X611138Y-227330D01*
X610828Y-225769D01*
X609944Y-224446D01*
X608621Y-223562D01*
X607060Y-223252D01*
X567840D01*
Y-222070D01*
X554840D01*
Y-223252D01*
X552600D01*
Y-222070D01*
X539600D01*
Y-223252D01*
X485559D01*
X457544Y-195236D01*
X456221Y-194352D01*
X454660Y-194042D01*
D02*
G37*
G36*
X729036Y-233680D02*
X726440D01*
Y-236276D01*
X726746Y-236216D01*
X728083Y-235323D01*
X728976Y-233986D01*
X729036Y-233680D01*
D02*
G37*
G36*
X717550D02*
X714954D01*
X715014Y-233986D01*
X715907Y-235323D01*
X717244Y-236216D01*
X717550Y-236276D01*
Y-233680D01*
D02*
G37*
G36*
X182800Y-231440D02*
X176530D01*
Y-237710D01*
X182800D01*
Y-231440D01*
D02*
G37*
G36*
X173990D02*
X167720D01*
Y-237710D01*
X173990D01*
Y-231440D01*
D02*
G37*
G36*
X182800Y-240250D02*
X176530D01*
Y-246520D01*
X182800D01*
Y-240250D01*
D02*
G37*
G36*
X173990D02*
X167720D01*
Y-246520D01*
X173990D01*
Y-240250D01*
D02*
G37*
G36*
X205342Y-232276D02*
X187342D01*
Y-247276D01*
X205342D01*
Y-232276D01*
D02*
G37*
G36*
X276859Y-153660D02*
X275689Y-153892D01*
X274697Y-154556D01*
X274034Y-155548D01*
X273801Y-156719D01*
X274034Y-157889D01*
X274697Y-158881D01*
X275689Y-159544D01*
X276859Y-159777D01*
X278030Y-159544D01*
X278032Y-159543D01*
X280769D01*
X283319Y-162093D01*
X283300Y-162313D01*
X282819Y-163389D01*
X282040Y-163544D01*
X281047Y-164207D01*
X280384Y-165200D01*
X280151Y-166370D01*
X280384Y-167540D01*
X281047Y-168533D01*
X282040Y-169196D01*
X282042Y-169196D01*
X286736Y-173890D01*
Y-228600D01*
X286736Y-228600D01*
X286951Y-229681D01*
X287563Y-230597D01*
X326296Y-269330D01*
X326296Y-269331D01*
X327213Y-269943D01*
X328293Y-270158D01*
X328293Y-270158D01*
X489047D01*
X489049Y-270159D01*
X490220Y-270392D01*
X491390Y-270159D01*
X492383Y-269496D01*
X493046Y-268504D01*
X493279Y-267333D01*
X493046Y-266163D01*
X492383Y-265170D01*
X491390Y-264508D01*
X491298Y-264489D01*
Y-263194D01*
X491390Y-263176D01*
X492383Y-262513D01*
X493046Y-261521D01*
X493279Y-260350D01*
X493046Y-259179D01*
X492383Y-258187D01*
X491390Y-257524D01*
X490220Y-257291D01*
X489049Y-257524D01*
X489047Y-257526D01*
X331370D01*
X297464Y-223620D01*
Y-169420D01*
X297249Y-168339D01*
X296637Y-167423D01*
X283936Y-154721D01*
X283019Y-154109D01*
X281939Y-153894D01*
X281938Y-153894D01*
X278032D01*
X278030Y-153892D01*
X276859Y-153660D01*
D02*
G37*
G36*
X148590Y-289503D02*
X148284Y-289564D01*
X147641Y-289994D01*
X146685Y-290357D01*
X145729Y-289994D01*
X145086Y-289564D01*
X144780Y-289503D01*
Y-293370D01*
X143510D01*
Y-294640D01*
X139643D01*
X139704Y-294946D01*
X140597Y-296283D01*
Y-296807D01*
X139704Y-298144D01*
X139643Y-298450D01*
X143510D01*
Y-299720D01*
X144780D01*
Y-303587D01*
X145086Y-303526D01*
X145729Y-303096D01*
X146685Y-302733D01*
X147641Y-303096D01*
X148284Y-303526D01*
X148590Y-303587D01*
Y-299720D01*
X149860D01*
Y-298450D01*
X153727D01*
X153666Y-298144D01*
X152773Y-296807D01*
Y-296283D01*
X153666Y-294946D01*
X153727Y-294640D01*
X149860D01*
Y-293370D01*
X148590D01*
Y-289503D01*
D02*
G37*
G36*
X151130D02*
Y-292100D01*
X153727D01*
X153666Y-291794D01*
X152773Y-290457D01*
X151436Y-289564D01*
X151130Y-289503D01*
D02*
G37*
G36*
X142240D02*
X141934Y-289564D01*
X140597Y-290457D01*
X139704Y-291794D01*
X139643Y-292100D01*
X142240D01*
Y-289503D01*
D02*
G37*
G36*
X153727Y-300990D02*
X151130D01*
Y-303587D01*
X151436Y-303526D01*
X152773Y-302633D01*
X153666Y-301296D01*
X153727Y-300990D01*
D02*
G37*
G36*
X142240D02*
X139643D01*
X139704Y-301296D01*
X140597Y-302633D01*
X141934Y-303526D01*
X142240Y-303587D01*
Y-300990D01*
D02*
G37*
G36*
X389890Y-304281D02*
X388719Y-304514D01*
X388717Y-304516D01*
X366933D01*
X366931Y-304514D01*
X365760Y-304281D01*
X364590Y-304514D01*
X363597Y-305177D01*
X362934Y-306169D01*
X362701Y-307340D01*
X362934Y-308510D01*
X363597Y-309503D01*
X364590Y-310166D01*
X365760Y-310399D01*
X366931Y-310166D01*
X366933Y-310164D01*
X388717D01*
X388719Y-310166D01*
X389890Y-310399D01*
X391060Y-310166D01*
X392053Y-309503D01*
X392716Y-308510D01*
X392949Y-307340D01*
X392716Y-306169D01*
X392053Y-305177D01*
X391060Y-304514D01*
X389890Y-304281D01*
D02*
G37*
G36*
X222250Y-327603D02*
X221944Y-327664D01*
X221301Y-328094D01*
X220345Y-328457D01*
X219389Y-328094D01*
X218746Y-327664D01*
X218440Y-327603D01*
Y-331470D01*
X217170D01*
Y-332740D01*
X213304D01*
X213364Y-333046D01*
X214257Y-334383D01*
Y-334907D01*
X213364Y-336244D01*
X213304Y-336550D01*
X217170D01*
Y-337820D01*
X218440D01*
Y-341687D01*
X218746Y-341626D01*
X220083Y-340733D01*
X220607D01*
X221944Y-341626D01*
X222250Y-341687D01*
Y-337820D01*
X223520D01*
Y-336550D01*
X227386D01*
X227326Y-336244D01*
X226433Y-334907D01*
Y-334383D01*
X227326Y-333046D01*
X227386Y-332740D01*
X223520D01*
Y-331470D01*
X222250D01*
Y-327603D01*
D02*
G37*
G36*
X224790D02*
Y-330200D01*
X227386D01*
X227326Y-329894D01*
X226433Y-328557D01*
X225096Y-327664D01*
X224790Y-327603D01*
D02*
G37*
G36*
X215900D02*
X215594Y-327664D01*
X214257Y-328557D01*
X213364Y-329894D01*
X213304Y-330200D01*
X215900D01*
Y-327603D01*
D02*
G37*
G36*
X595630Y-304281D02*
X594459Y-304514D01*
X593467Y-305177D01*
X592804Y-306169D01*
X592803Y-306172D01*
X567790Y-331186D01*
X260350D01*
X260350Y-331186D01*
X259269Y-331401D01*
X258353Y-332013D01*
X230413Y-359953D01*
X229801Y-360869D01*
X229586Y-361950D01*
X229586Y-361950D01*
Y-372207D01*
X229584Y-372210D01*
X229351Y-373380D01*
X229584Y-374551D01*
X230247Y-375543D01*
X231239Y-376206D01*
X232410Y-376439D01*
X233580Y-376206D01*
X234573Y-375543D01*
X235236Y-374551D01*
X235469Y-373380D01*
X235236Y-372210D01*
X235234Y-372207D01*
Y-363120D01*
X261520Y-336834D01*
X304982D01*
X305530Y-337576D01*
X305747Y-338104D01*
X305551Y-339090D01*
X305784Y-340261D01*
X306447Y-341253D01*
X307439Y-341916D01*
X307442Y-341917D01*
X312893Y-347367D01*
X312893Y-347367D01*
X313809Y-347979D01*
X314890Y-348194D01*
X324197D01*
X324824Y-349464D01*
X323970Y-350577D01*
X322958Y-353019D01*
X322613Y-355640D01*
Y-356870D01*
X342867D01*
Y-355640D01*
X342522Y-353019D01*
X341510Y-350577D01*
X340786Y-349633D01*
X341348Y-348494D01*
X344500D01*
X349363Y-353357D01*
X349062Y-355640D01*
Y-360640D01*
X349372Y-362990D01*
X350279Y-365179D01*
X351721Y-367059D01*
X353601Y-368502D01*
X355790Y-369408D01*
X358140Y-369718D01*
X360490Y-369408D01*
X362679Y-368502D01*
X364559Y-367059D01*
X366002Y-365179D01*
X366908Y-362990D01*
X367218Y-360640D01*
Y-355640D01*
X366908Y-353290D01*
X366002Y-351101D01*
X364559Y-349221D01*
X362679Y-347779D01*
X360490Y-346872D01*
X358140Y-346562D01*
X355790Y-346872D01*
X353601Y-347779D01*
X352567Y-348572D01*
X347667Y-343673D01*
X346751Y-343061D01*
X345670Y-342846D01*
X345670Y-342846D01*
X338202D01*
X338075Y-342761D01*
X336994Y-342546D01*
X336994Y-342546D01*
X316060D01*
X311618Y-338104D01*
X311739Y-337510D01*
X312238Y-336834D01*
X568960D01*
X568960Y-336834D01*
X570041Y-336619D01*
X570957Y-336007D01*
X596798Y-310166D01*
X596800Y-310166D01*
X597793Y-309503D01*
X598456Y-308510D01*
X598689Y-307340D01*
X598456Y-306169D01*
X597793Y-305177D01*
X596800Y-304514D01*
X595630Y-304281D01*
D02*
G37*
G36*
X227386Y-339090D02*
X224790D01*
Y-341687D01*
X225096Y-341626D01*
X226433Y-340733D01*
X227326Y-339396D01*
X227386Y-339090D01*
D02*
G37*
G36*
X215900D02*
X213304D01*
X213364Y-339396D01*
X214257Y-340733D01*
X215594Y-341626D01*
X215900Y-341687D01*
Y-339090D01*
D02*
G37*
G36*
X613410Y-345681D02*
Y-356870D01*
X622267D01*
Y-355640D01*
X621922Y-353019D01*
X620910Y-350577D01*
X619301Y-348479D01*
X617203Y-346870D01*
X614761Y-345858D01*
X613410Y-345681D01*
D02*
G37*
G36*
X610870D02*
X609519Y-345858D01*
X607077Y-346870D01*
X604979Y-348479D01*
X603370Y-350577D01*
X602358Y-353019D01*
X602013Y-355640D01*
Y-356870D01*
X610870D01*
Y-345681D01*
D02*
G37*
G36*
X721270Y-347476D02*
Y-368730D01*
X742524D01*
X742214Y-365581D01*
X740925Y-361332D01*
X738832Y-357417D01*
X736015Y-353984D01*
X732583Y-351168D01*
X728668Y-349075D01*
X724419Y-347786D01*
X721270Y-347476D01*
D02*
G37*
G36*
X718730D02*
X715582Y-347786D01*
X711333Y-349075D01*
X707417Y-351168D01*
X703985Y-353984D01*
X701168Y-357417D01*
X699075Y-361332D01*
X697786Y-365581D01*
X697476Y-368730D01*
X718730D01*
Y-347476D01*
D02*
G37*
G36*
X31270D02*
Y-368730D01*
X52524D01*
X52214Y-365581D01*
X50925Y-361332D01*
X48832Y-357417D01*
X46015Y-353984D01*
X42583Y-351168D01*
X38667Y-349075D01*
X34418Y-347786D01*
X31270Y-347476D01*
D02*
G37*
G36*
X28730D02*
X25581Y-347786D01*
X21332Y-349075D01*
X17417Y-351168D01*
X13985Y-353984D01*
X11168Y-357417D01*
X9075Y-361332D01*
X7786Y-365581D01*
X7476Y-368730D01*
X28730D01*
Y-347476D01*
D02*
G37*
G36*
X586740Y-346562D02*
X584390Y-346872D01*
X582201Y-347779D01*
X580321Y-349221D01*
X578879Y-351101D01*
X577972Y-353290D01*
X577662Y-355640D01*
Y-360640D01*
X577972Y-362990D01*
X578879Y-365179D01*
X580321Y-367059D01*
X582201Y-368502D01*
X584390Y-369408D01*
X586740Y-369718D01*
X589090Y-369408D01*
X591279Y-368502D01*
X593159Y-367059D01*
X594602Y-365179D01*
X595508Y-362990D01*
X595818Y-360640D01*
Y-355640D01*
X595508Y-353290D01*
X594602Y-351101D01*
X593159Y-349221D01*
X591279Y-347779D01*
X589090Y-346872D01*
X586740Y-346562D01*
D02*
G37*
G36*
X561340D02*
X558991Y-346872D01*
X556801Y-347779D01*
X554921Y-349221D01*
X553479Y-351101D01*
X552572Y-353290D01*
X552262Y-355640D01*
Y-360640D01*
X552572Y-362990D01*
X553479Y-365179D01*
X554921Y-367059D01*
X556801Y-368502D01*
X558991Y-369408D01*
X561340Y-369718D01*
X563689Y-369408D01*
X565879Y-368502D01*
X567759Y-367059D01*
X569202Y-365179D01*
X570108Y-362990D01*
X570418Y-360640D01*
Y-355640D01*
X570108Y-353290D01*
X569202Y-351101D01*
X567759Y-349221D01*
X565879Y-347779D01*
X563689Y-346872D01*
X561340Y-346562D01*
D02*
G37*
G36*
X535940D02*
X533591Y-346872D01*
X531401Y-347779D01*
X529521Y-349221D01*
X528078Y-351101D01*
X527172Y-353290D01*
X526862Y-355640D01*
Y-360640D01*
X527172Y-362990D01*
X528078Y-365179D01*
X529521Y-367059D01*
X531401Y-368502D01*
X533591Y-369408D01*
X535940Y-369718D01*
X538289Y-369408D01*
X540479Y-368502D01*
X542359Y-367059D01*
X543801Y-365179D01*
X544708Y-362990D01*
X545018Y-360640D01*
Y-355640D01*
X544708Y-353290D01*
X543801Y-351101D01*
X542359Y-349221D01*
X540479Y-347779D01*
X538289Y-346872D01*
X535940Y-346562D01*
D02*
G37*
G36*
X510540D02*
X508190Y-346872D01*
X506001Y-347779D01*
X504121Y-349221D01*
X502678Y-351101D01*
X501772Y-353290D01*
X501462Y-355640D01*
Y-360640D01*
X501772Y-362990D01*
X502678Y-365179D01*
X504121Y-367059D01*
X506001Y-368502D01*
X508190Y-369408D01*
X510540Y-369718D01*
X512890Y-369408D01*
X515079Y-368502D01*
X516959Y-367059D01*
X518401Y-365179D01*
X519308Y-362990D01*
X519618Y-360640D01*
Y-355640D01*
X519308Y-353290D01*
X518401Y-351101D01*
X516959Y-349221D01*
X515079Y-347779D01*
X512890Y-346872D01*
X510540Y-346562D01*
D02*
G37*
G36*
X485140D02*
X482790Y-346872D01*
X480601Y-347779D01*
X478721Y-349221D01*
X477279Y-351101D01*
X476372Y-353290D01*
X476062Y-355640D01*
Y-360640D01*
X476372Y-362990D01*
X477279Y-365179D01*
X478721Y-367059D01*
X480601Y-368502D01*
X482790Y-369408D01*
X485140Y-369718D01*
X487490Y-369408D01*
X489679Y-368502D01*
X491559Y-367059D01*
X493002Y-365179D01*
X493908Y-362990D01*
X494218Y-360640D01*
Y-355640D01*
X493908Y-353290D01*
X493002Y-351101D01*
X491559Y-349221D01*
X489679Y-347779D01*
X487490Y-346872D01*
X485140Y-346562D01*
D02*
G37*
G36*
X459740D02*
X457391Y-346872D01*
X455201Y-347779D01*
X453321Y-349221D01*
X451879Y-351101D01*
X450972Y-353290D01*
X450662Y-355640D01*
Y-360640D01*
X450972Y-362990D01*
X451879Y-365179D01*
X453321Y-367059D01*
X455201Y-368502D01*
X457391Y-369408D01*
X459740Y-369718D01*
X462090Y-369408D01*
X464279Y-368502D01*
X466159Y-367059D01*
X467602Y-365179D01*
X468508Y-362990D01*
X468818Y-360640D01*
Y-355640D01*
X468508Y-353290D01*
X467602Y-351101D01*
X466159Y-349221D01*
X464279Y-347779D01*
X462090Y-346872D01*
X459740Y-346562D01*
D02*
G37*
G36*
X434340D02*
X431991Y-346872D01*
X429801Y-347779D01*
X427921Y-349221D01*
X426479Y-351101D01*
X425572Y-353290D01*
X425262Y-355640D01*
Y-360640D01*
X425572Y-362990D01*
X426479Y-365179D01*
X427921Y-367059D01*
X429801Y-368502D01*
X431991Y-369408D01*
X434340Y-369718D01*
X436689Y-369408D01*
X438879Y-368502D01*
X440759Y-367059D01*
X442201Y-365179D01*
X443108Y-362990D01*
X443418Y-360640D01*
Y-355640D01*
X443108Y-353290D01*
X442201Y-351101D01*
X440759Y-349221D01*
X438879Y-347779D01*
X436689Y-346872D01*
X434340Y-346562D01*
D02*
G37*
G36*
X408940D02*
X406590Y-346872D01*
X404401Y-347779D01*
X402521Y-349221D01*
X401078Y-351101D01*
X400172Y-353290D01*
X399862Y-355640D01*
Y-360640D01*
X400172Y-362990D01*
X401078Y-365179D01*
X402521Y-367059D01*
X404401Y-368502D01*
X406590Y-369408D01*
X408940Y-369718D01*
X411289Y-369408D01*
X413479Y-368502D01*
X415359Y-367059D01*
X416801Y-365179D01*
X417708Y-362990D01*
X418018Y-360640D01*
Y-355640D01*
X417708Y-353290D01*
X416801Y-351101D01*
X415359Y-349221D01*
X413479Y-347779D01*
X411289Y-346872D01*
X408940Y-346562D01*
D02*
G37*
G36*
X383540D02*
X381190Y-346872D01*
X379001Y-347779D01*
X377121Y-349221D01*
X375678Y-351101D01*
X374772Y-353290D01*
X374462Y-355640D01*
Y-360640D01*
X374772Y-362990D01*
X375678Y-365179D01*
X377121Y-367059D01*
X379001Y-368502D01*
X381190Y-369408D01*
X383540Y-369718D01*
X385890Y-369408D01*
X388079Y-368502D01*
X389959Y-367059D01*
X391401Y-365179D01*
X392308Y-362990D01*
X392618Y-360640D01*
Y-355640D01*
X392308Y-353290D01*
X391401Y-351101D01*
X389959Y-349221D01*
X388079Y-347779D01*
X385890Y-346872D01*
X383540Y-346562D01*
D02*
G37*
G36*
X131064Y-361661D02*
X129060Y-361925D01*
X126010Y-363188D01*
X123390Y-365198D01*
X121380Y-367818D01*
X120117Y-370868D01*
X119853Y-372872D01*
X131064D01*
Y-361661D01*
D02*
G37*
G36*
X622267Y-359410D02*
X602013D01*
Y-360640D01*
X602358Y-363261D01*
X603370Y-365703D01*
X604979Y-367801D01*
X607077Y-369410D01*
X608870Y-370153D01*
Y-371527D01*
X607077Y-372270D01*
X604979Y-373879D01*
X603370Y-375977D01*
X602358Y-378419D01*
X602013Y-381040D01*
Y-382270D01*
X622267D01*
Y-381040D01*
X621922Y-378419D01*
X620910Y-375977D01*
X619301Y-373879D01*
X617203Y-372270D01*
X615410Y-371527D01*
Y-370153D01*
X617203Y-369410D01*
X619301Y-367801D01*
X620910Y-365703D01*
X621922Y-363261D01*
X622267Y-360640D01*
Y-359410D01*
D02*
G37*
G36*
X183134Y-362543D02*
X180132Y-362938D01*
X177334Y-364097D01*
X174932Y-365940D01*
X173089Y-368342D01*
X171930Y-371140D01*
X171535Y-374142D01*
X171930Y-377144D01*
X173089Y-379942D01*
X174932Y-382344D01*
X177334Y-384187D01*
X180132Y-385346D01*
X183134Y-385741D01*
X186136Y-385346D01*
X188934Y-384187D01*
X191336Y-382344D01*
X193179Y-379942D01*
X194338Y-377144D01*
X194733Y-374142D01*
X194338Y-371140D01*
X193179Y-368342D01*
X191336Y-365940D01*
X188934Y-364097D01*
X186136Y-362938D01*
X183134Y-362543D01*
D02*
G37*
G36*
X133604Y-361661D02*
Y-374142D01*
Y-386623D01*
X135608Y-386359D01*
X138658Y-385096D01*
X141278Y-383086D01*
X143288Y-380466D01*
X144551Y-377416D01*
X144881Y-374909D01*
X144918Y-374630D01*
X146199D01*
X146236Y-374909D01*
X146530Y-377144D01*
X147689Y-379942D01*
X149532Y-382344D01*
X151934Y-384187D01*
X154732Y-385346D01*
X157734Y-385741D01*
X160736Y-385346D01*
X163534Y-384187D01*
X165936Y-382344D01*
X167779Y-379942D01*
X168938Y-377144D01*
X169333Y-374142D01*
X168938Y-371140D01*
X167779Y-368342D01*
X165936Y-365940D01*
X163534Y-364097D01*
X160736Y-362938D01*
X157734Y-362543D01*
X154732Y-362938D01*
X151934Y-364097D01*
X149532Y-365940D01*
X147689Y-368342D01*
X146530Y-371140D01*
X146236Y-373375D01*
X146199Y-373654D01*
X144918D01*
X144881Y-373375D01*
X144551Y-370868D01*
X143288Y-367818D01*
X141278Y-365198D01*
X138658Y-363188D01*
X135608Y-361925D01*
X133604Y-361661D01*
D02*
G37*
G36*
X131064Y-375412D02*
X119853D01*
X120117Y-377416D01*
X121380Y-380466D01*
X123390Y-383086D01*
X126010Y-385096D01*
X129060Y-386359D01*
X131064Y-386623D01*
Y-375412D01*
D02*
G37*
G36*
X742524Y-371270D02*
X721270D01*
Y-392524D01*
X724419Y-392214D01*
X728668Y-390925D01*
X732583Y-388832D01*
X736015Y-386015D01*
X738832Y-382583D01*
X740925Y-378667D01*
X742214Y-374418D01*
X742524Y-371270D01*
D02*
G37*
G36*
X718730D02*
X697476D01*
X697786Y-374418D01*
X699075Y-378667D01*
X701168Y-382583D01*
X703985Y-386015D01*
X707417Y-388832D01*
X711333Y-390925D01*
X715582Y-392214D01*
X718730Y-392524D01*
Y-371270D01*
D02*
G37*
G36*
X52524D02*
X31270D01*
Y-392524D01*
X34418Y-392214D01*
X38667Y-390925D01*
X42583Y-388832D01*
X46015Y-386015D01*
X48832Y-382583D01*
X50925Y-378667D01*
X52214Y-374418D01*
X52524Y-371270D01*
D02*
G37*
G36*
X28730D02*
X7476D01*
X7786Y-374418D01*
X9075Y-378667D01*
X11168Y-382583D01*
X13985Y-386015D01*
X17417Y-388832D01*
X21332Y-390925D01*
X25581Y-392214D01*
X28730Y-392524D01*
Y-371270D01*
D02*
G37*
G36*
X586740Y-371962D02*
X584390Y-372272D01*
X582201Y-373178D01*
X580321Y-374621D01*
X578879Y-376501D01*
X577972Y-378690D01*
X577662Y-381040D01*
Y-386040D01*
X577972Y-388390D01*
X578879Y-390579D01*
X580321Y-392459D01*
X582201Y-393901D01*
X584390Y-394808D01*
X586740Y-395118D01*
X589090Y-394808D01*
X591279Y-393901D01*
X593159Y-392459D01*
X594602Y-390579D01*
X595508Y-388390D01*
X595818Y-386040D01*
Y-381040D01*
X595508Y-378690D01*
X594602Y-376501D01*
X593159Y-374621D01*
X591279Y-373178D01*
X589090Y-372272D01*
X586740Y-371962D01*
D02*
G37*
G36*
X561340D02*
X558991Y-372272D01*
X556801Y-373178D01*
X554921Y-374621D01*
X553479Y-376501D01*
X552572Y-378690D01*
X552262Y-381040D01*
Y-386040D01*
X552572Y-388390D01*
X553479Y-390579D01*
X554921Y-392459D01*
X556801Y-393901D01*
X558991Y-394808D01*
X561340Y-395118D01*
X563689Y-394808D01*
X565879Y-393901D01*
X567759Y-392459D01*
X569202Y-390579D01*
X570108Y-388390D01*
X570418Y-386040D01*
Y-381040D01*
X570108Y-378690D01*
X569202Y-376501D01*
X567759Y-374621D01*
X565879Y-373178D01*
X563689Y-372272D01*
X561340Y-371962D01*
D02*
G37*
G36*
X535940D02*
X533591Y-372272D01*
X531401Y-373178D01*
X529521Y-374621D01*
X528078Y-376501D01*
X527172Y-378690D01*
X526862Y-381040D01*
Y-386040D01*
X527172Y-388390D01*
X528078Y-390579D01*
X529521Y-392459D01*
X531401Y-393901D01*
X533591Y-394808D01*
X535940Y-395118D01*
X538289Y-394808D01*
X540479Y-393901D01*
X542359Y-392459D01*
X543801Y-390579D01*
X544708Y-388390D01*
X545018Y-386040D01*
Y-381040D01*
X544708Y-378690D01*
X543801Y-376501D01*
X542359Y-374621D01*
X540479Y-373178D01*
X538289Y-372272D01*
X535940Y-371962D01*
D02*
G37*
G36*
X510540D02*
X508190Y-372272D01*
X506001Y-373178D01*
X504121Y-374621D01*
X502678Y-376501D01*
X501772Y-378690D01*
X501462Y-381040D01*
Y-386040D01*
X501772Y-388390D01*
X502678Y-390579D01*
X504121Y-392459D01*
X506001Y-393901D01*
X508190Y-394808D01*
X510540Y-395118D01*
X512890Y-394808D01*
X515079Y-393901D01*
X516959Y-392459D01*
X518401Y-390579D01*
X519308Y-388390D01*
X519618Y-386040D01*
Y-381040D01*
X519308Y-378690D01*
X518401Y-376501D01*
X516959Y-374621D01*
X515079Y-373178D01*
X512890Y-372272D01*
X510540Y-371962D01*
D02*
G37*
G36*
X485140D02*
X482790Y-372272D01*
X480601Y-373178D01*
X478721Y-374621D01*
X477279Y-376501D01*
X476372Y-378690D01*
X476062Y-381040D01*
Y-386040D01*
X476372Y-388390D01*
X477279Y-390579D01*
X478721Y-392459D01*
X480601Y-393901D01*
X482790Y-394808D01*
X485140Y-395118D01*
X487490Y-394808D01*
X489679Y-393901D01*
X491559Y-392459D01*
X493002Y-390579D01*
X493908Y-388390D01*
X494218Y-386040D01*
Y-381040D01*
X493908Y-378690D01*
X493002Y-376501D01*
X491559Y-374621D01*
X489679Y-373178D01*
X487490Y-372272D01*
X485140Y-371962D01*
D02*
G37*
G36*
X459740D02*
X457391Y-372272D01*
X455201Y-373178D01*
X453321Y-374621D01*
X451879Y-376501D01*
X450972Y-378690D01*
X450662Y-381040D01*
Y-386040D01*
X450972Y-388390D01*
X451879Y-390579D01*
X453321Y-392459D01*
X455201Y-393901D01*
X457391Y-394808D01*
X459740Y-395118D01*
X462090Y-394808D01*
X464279Y-393901D01*
X466159Y-392459D01*
X467602Y-390579D01*
X468508Y-388390D01*
X468818Y-386040D01*
Y-381040D01*
X468508Y-378690D01*
X467602Y-376501D01*
X466159Y-374621D01*
X464279Y-373178D01*
X462090Y-372272D01*
X459740Y-371962D01*
D02*
G37*
G36*
X434340D02*
X431991Y-372272D01*
X429801Y-373178D01*
X427921Y-374621D01*
X426479Y-376501D01*
X425572Y-378690D01*
X425262Y-381040D01*
Y-386040D01*
X425572Y-388390D01*
X426479Y-390579D01*
X427921Y-392459D01*
X429801Y-393901D01*
X431991Y-394808D01*
X434340Y-395118D01*
X436689Y-394808D01*
X438879Y-393901D01*
X440759Y-392459D01*
X442201Y-390579D01*
X443108Y-388390D01*
X443418Y-386040D01*
Y-381040D01*
X443108Y-378690D01*
X442201Y-376501D01*
X440759Y-374621D01*
X438879Y-373178D01*
X436689Y-372272D01*
X434340Y-371962D01*
D02*
G37*
G36*
X408940D02*
X406590Y-372272D01*
X404401Y-373178D01*
X402521Y-374621D01*
X401078Y-376501D01*
X400172Y-378690D01*
X399862Y-381040D01*
Y-386040D01*
X400172Y-388390D01*
X401078Y-390579D01*
X402521Y-392459D01*
X404401Y-393901D01*
X406590Y-394808D01*
X408940Y-395118D01*
X411289Y-394808D01*
X413479Y-393901D01*
X415359Y-392459D01*
X416801Y-390579D01*
X417708Y-388390D01*
X418018Y-386040D01*
Y-381040D01*
X417708Y-378690D01*
X416801Y-376501D01*
X415359Y-374621D01*
X413479Y-373178D01*
X411289Y-372272D01*
X408940Y-371962D01*
D02*
G37*
G36*
X383540D02*
X381190Y-372272D01*
X379001Y-373178D01*
X377121Y-374621D01*
X375678Y-376501D01*
X374772Y-378690D01*
X374462Y-381040D01*
Y-386040D01*
X374772Y-388390D01*
X375678Y-390579D01*
X377121Y-392459D01*
X379001Y-393901D01*
X381190Y-394808D01*
X383540Y-395118D01*
X385890Y-394808D01*
X388079Y-393901D01*
X389959Y-392459D01*
X391401Y-390579D01*
X392308Y-388390D01*
X392618Y-386040D01*
Y-381040D01*
X392308Y-378690D01*
X391401Y-376501D01*
X389959Y-374621D01*
X388079Y-373178D01*
X385890Y-372272D01*
X383540Y-371962D01*
D02*
G37*
G36*
X358140D02*
X355790Y-372272D01*
X353601Y-373178D01*
X351721Y-374621D01*
X350279Y-376501D01*
X349372Y-378690D01*
X349062Y-381040D01*
Y-386040D01*
X349372Y-388390D01*
X350279Y-390579D01*
X351721Y-392459D01*
X353601Y-393901D01*
X355790Y-394808D01*
X358140Y-395118D01*
X360490Y-394808D01*
X362679Y-393901D01*
X364559Y-392459D01*
X366002Y-390579D01*
X366908Y-388390D01*
X367218Y-386040D01*
Y-381040D01*
X366908Y-378690D01*
X366002Y-376501D01*
X364559Y-374621D01*
X362679Y-373178D01*
X360490Y-372272D01*
X358140Y-371962D01*
D02*
G37*
G36*
X342867Y-359410D02*
X322613D01*
Y-360640D01*
X322958Y-363261D01*
X323970Y-365703D01*
X325579Y-367801D01*
X327677Y-369410D01*
X330119Y-370422D01*
X331826Y-370646D01*
X332416Y-370724D01*
Y-372005D01*
X331826Y-372083D01*
X330391Y-372272D01*
X328201Y-373178D01*
X326321Y-374621D01*
X324879Y-376501D01*
X323972Y-378690D01*
X323662Y-381040D01*
Y-386040D01*
X323972Y-388390D01*
X324879Y-390579D01*
X326321Y-392459D01*
X328201Y-393901D01*
X330391Y-394808D01*
X332740Y-395118D01*
X335089Y-394808D01*
X337279Y-393901D01*
X339159Y-392459D01*
X340602Y-390579D01*
X341508Y-388390D01*
X341818Y-386040D01*
Y-381040D01*
X341508Y-378690D01*
X340602Y-376501D01*
X339159Y-374621D01*
X337279Y-373178D01*
X335089Y-372272D01*
X333654Y-372083D01*
X333064Y-372005D01*
Y-370724D01*
X333654Y-370646D01*
X335361Y-370422D01*
X337803Y-369410D01*
X339901Y-367801D01*
X341510Y-365703D01*
X342522Y-363261D01*
X342867Y-360640D01*
Y-359410D01*
D02*
G37*
%LPD*%
G36*
X159258Y-222631D02*
X155194Y-219202D01*
X151130Y-222631D01*
Y-216789D01*
X159258D01*
Y-222631D01*
D02*
G37*
G36*
X146304D02*
X142240Y-219202D01*
X138176Y-222631D01*
Y-216789D01*
X146304D01*
Y-222631D01*
D02*
G37*
G36*
X159258Y-224282D02*
Y-227330D01*
X151130D01*
X151129Y-224283D01*
X155194Y-220980D01*
X159258Y-224282D01*
D02*
G37*
G36*
X146304D02*
Y-227330D01*
X138176D01*
X138175Y-224283D01*
X142240Y-220980D01*
X146304Y-224282D01*
D02*
G37*
G36*
X237691Y-126750D02*
X237682Y-126852D01*
X237380Y-128124D01*
X236597Y-128647D01*
X235934Y-129640D01*
X235701Y-130810D01*
X235934Y-131980D01*
X235936Y-131983D01*
Y-144810D01*
X235936Y-144810D01*
X235151Y-145766D01*
X230750D01*
Y-144090D01*
X213750D01*
X213644Y-142864D01*
Y-141616D01*
X213750Y-140390D01*
X230750D01*
Y-131390D01*
X217934D01*
X215408Y-128863D01*
X215893Y-127690D01*
X230750D01*
Y-126631D01*
X230763Y-126623D01*
X231169Y-126014D01*
X237097D01*
X237691Y-126750D01*
D02*
G37*
G36*
X487946Y-264444D02*
X487880Y-264509D01*
X330546D01*
X330507Y-264444D01*
X331227Y-263174D01*
X487430D01*
X487946Y-264444D01*
D02*
G37*
D13*
X109250Y-151130D02*
D03*
Y-99060D02*
D03*
D14*
X248920Y-172940D02*
D03*
Y-154970D02*
D03*
X175260Y-238980D02*
D03*
Y-221010D02*
D03*
X237490Y-222030D02*
D03*
Y-240000D02*
D03*
X143510Y-131030D02*
D03*
Y-113060D02*
D03*
X561340Y-210600D02*
D03*
Y-228570D02*
D03*
X546100Y-210600D02*
D03*
Y-228570D02*
D03*
D16*
X218948Y-220472D02*
D03*
Y-239776D02*
D03*
X196342D02*
D03*
Y-220472D02*
D03*
D25*
X155194Y-218084D02*
D03*
Y-225552D02*
D03*
X142240Y-218084D02*
D03*
Y-225552D02*
D03*
D29*
X433070Y-193040D02*
X457200Y-168910D01*
X433070Y-250190D02*
Y-193040D01*
X457200Y-168910D02*
X458470D01*
X487964Y-148490D02*
X495484Y-140970D01*
X487964Y-176246D02*
Y-148490D01*
X476250Y-187960D02*
X487964Y-176246D01*
X464820Y-187960D02*
X476250D01*
X495484Y-140970D02*
X500380D01*
X109220Y-158750D02*
Y-151160D01*
X354330Y-102870D02*
X392730Y-64470D01*
X325686Y-102870D02*
X354330D01*
X322120Y-106436D02*
X325686Y-102870D01*
X322120Y-112570D02*
Y-106436D01*
Y-112570D02*
X322580Y-113030D01*
X326390Y-108204D02*
X355345D01*
X546100Y-210600D02*
X561340D01*
X536990D02*
X546100D01*
X574040Y-203200D02*
X599440D01*
X574040Y-198120D02*
X601980D01*
X599440Y-203200D02*
X618490Y-222250D01*
X601980Y-198120D02*
X635000Y-231140D01*
X175260Y-221010D02*
X195804D01*
X365760Y-307340D02*
X389890D01*
X85090Y-306070D02*
X111760Y-279400D01*
Y-256032D01*
X142240Y-225552D01*
X155194D01*
X142240Y-218084D02*
X147090Y-213234D01*
Y-147550D01*
X158750Y-135890D01*
X162250D01*
X151130Y-212725D02*
X155194Y-216789D01*
X151130Y-212725D02*
Y-153670D01*
X156210Y-148590D01*
X162250D01*
X222250Y-123190D02*
X238760D01*
X180340Y-135890D02*
X187960Y-143510D01*
X180340Y-135890D02*
Y-118110D01*
X209550Y-127000D02*
Y-109220D01*
Y-127000D02*
X218440Y-135890D01*
X222250D01*
X248920Y-143510D02*
Y-133350D01*
X238760Y-123190D02*
X248920Y-133350D01*
X218948Y-239776D02*
X237266D01*
X195804Y-221010D02*
X196342Y-220472D01*
Y-211381D01*
X221033Y-186690D01*
X222250D01*
X207010Y-227838D02*
X218948Y-239776D01*
X207010Y-227838D02*
Y-209550D01*
X217170Y-199390D01*
X222250D01*
Y-148590D02*
X242540D01*
X213360Y-161290D02*
X222250D01*
X210820Y-158750D02*
X213360Y-161290D01*
X210820Y-158750D02*
Y-134620D01*
X206780Y-162330D02*
X218440Y-173990D01*
X222250D01*
X206780Y-162330D02*
Y-136293D01*
X146080Y-110490D02*
X162250D01*
X197487Y-127000D02*
X206780Y-136293D01*
X191770Y-127000D02*
X197487D01*
X198120Y-121920D02*
X210820Y-134620D01*
X248920Y-143510D02*
X254254D01*
X311150Y-31750D02*
X313690Y-34290D01*
Y-49530D02*
Y-34290D01*
Y-49530D02*
X330200Y-66040D01*
X309880Y-13970D02*
X320040Y-24130D01*
Y-49530D02*
Y-24130D01*
Y-49530D02*
X330200Y-59690D01*
Y-66040D02*
X345440D01*
X330200Y-59690D02*
X358140D01*
X563200Y-147320D02*
X612140D01*
X345670Y-345670D02*
X358140Y-358140D01*
X337294Y-345670D02*
X345670D01*
X232410Y-361950D02*
X260350Y-334010D01*
X568960D01*
X595630Y-307340D01*
X336994Y-345370D02*
X337294Y-345670D01*
X314890Y-345370D02*
X336994D01*
X308610Y-339090D02*
X314890Y-345370D01*
X448310Y-240030D02*
X640080D01*
X702310Y-177800D01*
Y-128270D01*
X723900Y-106680D01*
X330200Y-260350D02*
X490220D01*
X328293Y-267333D02*
X490220D01*
X576240Y-161290D02*
X617220D01*
X289560Y-228600D02*
X328293Y-267333D01*
X276859Y-156719D02*
X281939D01*
X294640Y-224790D02*
X330200Y-260350D01*
X294640Y-224790D02*
Y-169420D01*
X281939Y-156719D02*
X294640Y-169420D01*
X254254Y-143510D02*
X264160Y-133604D01*
X618490Y-231140D02*
Y-222250D01*
X355345Y-108204D02*
X395040Y-68510D01*
X545533D01*
X543860Y-64470D02*
X548640Y-59690D01*
X545533Y-68510D02*
X549273Y-64770D01*
X595630D01*
X392730Y-64470D02*
X543860D01*
X466090Y-193160D02*
X481394D01*
X500380Y-174174D01*
Y-161290D01*
X283210Y-166370D02*
X289560Y-172720D01*
Y-228600D02*
Y-172720D01*
X68580Y-306070D02*
X85090D01*
X232410Y-373380D02*
Y-361950D01*
X109220Y-99030D02*
X109250Y-99060D01*
Y-101570D02*
Y-99060D01*
X162250Y-110490D02*
X172720D01*
X191770Y-121920D02*
X198120D01*
X172720Y-110490D02*
X180340Y-118110D01*
X238760Y-144810D02*
X248920Y-154970D01*
X238760Y-144810D02*
Y-130810D01*
D30*
X483870Y-227330D02*
X607060D01*
X454660Y-198120D02*
X483870Y-227330D01*
X125730Y-185420D02*
Y-111760D01*
Y-185420D02*
X140970Y-200660D01*
X317500Y-358140D02*
X332740D01*
X612140D02*
X628650D01*
X612140Y-383540D02*
X628650D01*
X612140D02*
Y-358140D01*
X704850Y-81280D02*
X723900D01*
X612140Y-16510D02*
X623570D01*
X161290Y-36830D02*
Y-20320D01*
X612140Y-110490D02*
Y-41910D01*
Y-110490D02*
X651510Y-149860D01*
Y-203200D02*
Y-149860D01*
X125730Y-111760D02*
X136970Y-100520D01*
X194120D01*
X213360Y-81280D01*
D31*
Y-78740D02*
X233680Y-99060D01*
X287020D01*
X213360Y-81280D02*
Y-78740D01*
D32*
X50800Y-130810D02*
X53340Y-133350D01*
X55880D01*
X50800Y-130810D02*
Y-125730D01*
X53340Y-123190D01*
X55880D01*
D33*
X260350Y-171450D02*
D03*
D34*
X103505Y-66040D02*
D03*
X387985Y-224790D02*
D03*
D38*
X653415Y-126365D02*
D03*
X721995Y-229235D02*
D03*
X146685Y-296545D02*
D03*
X532765Y-212725D02*
D03*
Y-188595D02*
D03*
X508635D02*
D03*
Y-212725D02*
D03*
X31115Y-131445D02*
D03*
X385445Y-133985D02*
D03*
X159385Y-58998D02*
D03*
X360045Y-165735D02*
D03*
X220345Y-334645D02*
D03*
D39*
X138430Y-91440D02*
D03*
D41*
X15350Y-173990D02*
D03*
Y-87590D02*
D03*
D42*
X57150Y-173990D02*
D03*
Y-87590D02*
D03*
D43*
X52150Y-159690D02*
D03*
Y-101890D02*
D03*
D44*
X187960Y-78740D02*
D03*
X213360D02*
D03*
X238760D02*
D03*
X264160D02*
D03*
X586740Y-16510D02*
D03*
X561340D02*
D03*
X612140D02*
D03*
X535940D02*
D03*
X459740D02*
D03*
X485140D02*
D03*
X510540D02*
D03*
X408940D02*
D03*
X383540D02*
D03*
X358140D02*
D03*
X434340D02*
D03*
X332740D02*
D03*
X434340Y-41910D02*
D03*
X332740D02*
D03*
X358140D02*
D03*
X383540D02*
D03*
X408940D02*
D03*
X510540D02*
D03*
X485140D02*
D03*
X459740D02*
D03*
X535940D02*
D03*
X612140D02*
D03*
X561340D02*
D03*
X586740D02*
D03*
Y-358140D02*
D03*
X561340D02*
D03*
X612140D02*
D03*
X535940D02*
D03*
X459740D02*
D03*
X485140D02*
D03*
X510540D02*
D03*
X408940D02*
D03*
X383540D02*
D03*
X358140D02*
D03*
X434340D02*
D03*
X332740D02*
D03*
X434340Y-383540D02*
D03*
X332740D02*
D03*
X358140D02*
D03*
X383540D02*
D03*
X408940D02*
D03*
X510540D02*
D03*
X485140D02*
D03*
X459740D02*
D03*
X535940D02*
D03*
X612140D02*
D03*
X561340D02*
D03*
X586740D02*
D03*
D45*
X132334Y-374142D02*
D03*
X157734D02*
D03*
X183134D02*
D03*
X723900Y-106680D02*
D03*
Y-132080D02*
D03*
Y-157480D02*
D03*
Y-182880D02*
D03*
Y-81280D02*
D03*
X161290Y-20320D02*
D03*
X135890D02*
D03*
X110490D02*
D03*
X85090D02*
D03*
D46*
X30000Y-30000D02*
D03*
Y-370000D02*
D03*
X720000D02*
D03*
Y-30000D02*
D03*
D47*
X454660Y-198120D02*
D03*
X458470Y-168910D02*
D03*
X109220Y-158750D02*
D03*
X287020Y-99060D02*
D03*
X322580Y-113030D02*
D03*
X326390Y-108204D02*
D03*
X260350Y-173990D02*
D03*
Y-167640D02*
D03*
X574040Y-203200D02*
D03*
Y-198120D02*
D03*
X389890Y-307340D02*
D03*
X365760D02*
D03*
X228600Y-124460D02*
D03*
X187960Y-143510D02*
D03*
X209550Y-109220D02*
D03*
X191770Y-127000D02*
D03*
X248920Y-143510D02*
D03*
X106680Y-66040D02*
D03*
X100330D02*
D03*
X311150Y-31750D02*
D03*
X309880Y-13970D02*
D03*
X345440Y-66040D02*
D03*
X55880Y-133350D02*
D03*
Y-123190D02*
D03*
X612140Y-147320D02*
D03*
X563200D02*
D03*
X91440Y-154940D02*
D03*
X86360D02*
D03*
X91440Y-106680D02*
D03*
X86360D02*
D03*
Y-160020D02*
D03*
X91440D02*
D03*
X617220Y-161290D02*
D03*
X595630Y-307340D02*
D03*
X308610Y-339090D02*
D03*
X448310Y-240030D02*
D03*
X490220Y-260350D02*
D03*
Y-267333D02*
D03*
X607060Y-227330D02*
D03*
X433070Y-250190D02*
D03*
X576240Y-161290D02*
D03*
X656590Y-123190D02*
D03*
X650240D02*
D03*
X656590Y-129540D02*
D03*
X650240D02*
D03*
X725170Y-226060D02*
D03*
Y-232410D02*
D03*
X718820D02*
D03*
X149860Y-293370D02*
D03*
X143510D02*
D03*
X149860Y-299720D02*
D03*
X143510D02*
D03*
X529590Y-215900D02*
D03*
X535940D02*
D03*
X529590Y-209550D02*
D03*
X535940D02*
D03*
X529590Y-191770D02*
D03*
X535940D02*
D03*
X529590Y-185420D02*
D03*
X535940D02*
D03*
X505460Y-191770D02*
D03*
X511810D02*
D03*
X505460Y-185420D02*
D03*
X511810D02*
D03*
X505460Y-215900D02*
D03*
X511810D02*
D03*
X505460Y-209550D02*
D03*
X511810D02*
D03*
X34290Y-128270D02*
D03*
X27940D02*
D03*
X34290Y-134620D02*
D03*
X27940D02*
D03*
X382270Y-137160D02*
D03*
X388620D02*
D03*
X382270Y-130810D02*
D03*
X388620D02*
D03*
X548640Y-59690D02*
D03*
X595630Y-64770D02*
D03*
X264160Y-133604D02*
D03*
X276859Y-156719D02*
D03*
X156210Y-62174D02*
D03*
X162560D02*
D03*
X156210Y-55823D02*
D03*
X162560D02*
D03*
X86360Y-111760D02*
D03*
X91440D02*
D03*
X356870Y-168910D02*
D03*
X363220D02*
D03*
X356870Y-162560D02*
D03*
X363220D02*
D03*
X391160Y-224790D02*
D03*
X384810D02*
D03*
X223520Y-331470D02*
D03*
X217170Y-337820D02*
D03*
X223520D02*
D03*
X217170Y-331470D02*
D03*
X618490Y-231140D02*
D03*
X635000D02*
D03*
X42374Y-17626D02*
D03*
X47500Y-30000D02*
D03*
X42374Y-42374D02*
D03*
X30000Y-47500D02*
D03*
X17626Y-42374D02*
D03*
X12500Y-30000D02*
D03*
X17626Y-17626D02*
D03*
X30000Y-12500D02*
D03*
X42374Y-357625D02*
D03*
X47500Y-370000D02*
D03*
X42374Y-382374D02*
D03*
X30000Y-387500D02*
D03*
X17626Y-382374D02*
D03*
X12500Y-370000D02*
D03*
X17626Y-357625D02*
D03*
X30000Y-352500D02*
D03*
X732374Y-357625D02*
D03*
X737500Y-370000D02*
D03*
X732374Y-382374D02*
D03*
X720000Y-387500D02*
D03*
X707626Y-382374D02*
D03*
X702500Y-370000D02*
D03*
X707626Y-357625D02*
D03*
X720000Y-352500D02*
D03*
X732374Y-17626D02*
D03*
X737500Y-30000D02*
D03*
X732374Y-42374D02*
D03*
X720000Y-47500D02*
D03*
X707626Y-42374D02*
D03*
X702500Y-30000D02*
D03*
X707626Y-17626D02*
D03*
X720000Y-12500D02*
D03*
X651510Y-203230D02*
D03*
X718820Y-226060D02*
D03*
X358140Y-59690D02*
D03*
X466090Y-193160D02*
D03*
X464820Y-187960D02*
D03*
X283210Y-166370D02*
D03*
X140970Y-200660D02*
D03*
X68580Y-306070D02*
D03*
X85090D02*
D03*
X232410Y-373380D02*
D03*
X109250Y-101570D02*
D03*
X191770Y-121920D02*
D03*
X138430Y-91440D02*
D03*
X238760Y-130810D02*
D03*
D48*
X162250Y-199390D02*
D03*
Y-186690D02*
D03*
Y-173990D02*
D03*
Y-161290D02*
D03*
Y-148590D02*
D03*
Y-135890D02*
D03*
Y-123190D02*
D03*
Y-110490D02*
D03*
X222250Y-199390D02*
D03*
Y-186690D02*
D03*
Y-173990D02*
D03*
Y-161290D02*
D03*
Y-148590D02*
D03*
Y-135890D02*
D03*
Y-123190D02*
D03*
Y-110490D02*
D03*
D49*
X500380Y-161290D02*
D03*
D50*
Y-140970D02*
D03*
Y-120650D02*
D03*
D51*
X88900Y-133350D02*
D03*
M02*
