G04 Layer_Color=2752767*
%FSLAX44Y44*%
%MOMM*%
G71*
G01*
G75*
%ADD84C,0.0508*%
%ADD85C,0.0677*%
D84*
X13318Y-176022D02*
Y-171958D01*
X17382D01*
Y-176022D01*
X13318D01*
Y-89622D02*
Y-85558D01*
X17382D01*
Y-89622D01*
X13318D01*
X52150Y-161722D02*
X50118Y-157658D01*
X54182D01*
X52150Y-161722D01*
Y-103922D02*
X50118Y-99858D01*
X54182D01*
X52150Y-103922D01*
X187960Y-80772D02*
X188976Y-79756D01*
X189992D01*
X188976Y-78740D01*
X189992Y-77724D01*
X188976D01*
X187960Y-76708D01*
X186944Y-77724D01*
X185928D01*
X186944Y-78740D01*
X185928Y-79756D01*
X186944D01*
X187960Y-80772D01*
X213360D02*
X214376Y-79756D01*
X215392D01*
X214376Y-78740D01*
X215392Y-77724D01*
X214376D01*
X213360Y-76708D01*
X212344Y-77724D01*
X211328D01*
X212344Y-78740D01*
X211328Y-79756D01*
X212344D01*
X213360Y-80772D01*
X238760D02*
X239776Y-79756D01*
X240792D01*
X239776Y-78740D01*
X240792Y-77724D01*
X239776D01*
X238760Y-76708D01*
X237744Y-77724D01*
X236728D01*
X237744Y-78740D01*
X236728Y-79756D01*
X237744D01*
X238760Y-80772D01*
X264160D02*
X265176Y-79756D01*
X266192D01*
X265176Y-78740D01*
X266192Y-77724D01*
X265176D01*
X264160Y-76708D01*
X263144Y-77724D01*
X262128D01*
X263144Y-78740D01*
X262128Y-79756D01*
X263144D01*
X264160Y-80772D01*
X130302Y-376174D02*
X131318Y-374142D01*
X130302Y-372110D01*
X132334Y-373126D01*
X134366Y-372110D01*
X133350Y-374142D01*
X134366Y-376174D01*
X132334Y-375158D01*
X130302Y-376174D01*
X155702D02*
X156718Y-374142D01*
X155702Y-372110D01*
X157734Y-373126D01*
X159766Y-372110D01*
X158750Y-374142D01*
X159766Y-376174D01*
X157734Y-375158D01*
X155702Y-376174D01*
X181102D02*
X182118Y-374142D01*
X181102Y-372110D01*
X183134Y-373126D01*
X185166Y-372110D01*
X184150Y-374142D01*
X185166Y-376174D01*
X183134Y-375158D01*
X181102Y-376174D01*
X721868Y-108712D02*
X722884Y-106680D01*
X721868Y-104648D01*
X723900Y-105664D01*
X725932Y-104648D01*
X724916Y-106680D01*
X725932Y-108712D01*
X723900Y-107696D01*
X721868Y-108712D01*
Y-134112D02*
X722884Y-132080D01*
X721868Y-130048D01*
X723900Y-131064D01*
X725932Y-130048D01*
X724916Y-132080D01*
X725932Y-134112D01*
X723900Y-133096D01*
X721868Y-134112D01*
Y-159512D02*
X722884Y-157480D01*
X721868Y-155448D01*
X723900Y-156464D01*
X725932Y-155448D01*
X724916Y-157480D01*
X725932Y-159512D01*
X723900Y-158496D01*
X721868Y-159512D01*
Y-184912D02*
X722884Y-182880D01*
X721868Y-180848D01*
X723900Y-181864D01*
X725932Y-180848D01*
X724916Y-182880D01*
X725932Y-184912D01*
X723900Y-183896D01*
X721868Y-184912D01*
Y-83312D02*
X722884Y-81280D01*
X721868Y-79248D01*
X723900Y-80264D01*
X725932Y-79248D01*
X724916Y-81280D01*
X725932Y-83312D01*
X723900Y-82296D01*
X721868Y-83312D01*
X584708Y-18542D02*
X585724Y-16510D01*
X584708Y-14478D01*
X586740Y-15494D01*
X588772Y-14478D01*
X587756Y-16510D01*
X588772Y-18542D01*
X586740Y-17526D01*
X584708Y-18542D01*
X559308D02*
X560324Y-16510D01*
X559308Y-14478D01*
X561340Y-15494D01*
X563372Y-14478D01*
X562356Y-16510D01*
X563372Y-18542D01*
X561340Y-17526D01*
X559308Y-18542D01*
X610108D02*
X611124Y-16510D01*
X610108Y-14478D01*
X612140Y-15494D01*
X614172Y-14478D01*
X613156Y-16510D01*
X614172Y-18542D01*
X612140Y-17526D01*
X610108Y-18542D01*
X533908D02*
X534924Y-16510D01*
X533908Y-14478D01*
X535940Y-15494D01*
X537972Y-14478D01*
X536956Y-16510D01*
X537972Y-18542D01*
X535940Y-17526D01*
X533908Y-18542D01*
X457708D02*
X458724Y-16510D01*
X457708Y-14478D01*
X459740Y-15494D01*
X461772Y-14478D01*
X460756Y-16510D01*
X461772Y-18542D01*
X459740Y-17526D01*
X457708Y-18542D01*
X483108D02*
X484124Y-16510D01*
X483108Y-14478D01*
X485140Y-15494D01*
X487172Y-14478D01*
X486156Y-16510D01*
X487172Y-18542D01*
X485140Y-17526D01*
X483108Y-18542D01*
X508508D02*
X509524Y-16510D01*
X508508Y-14478D01*
X510540Y-15494D01*
X512572Y-14478D01*
X511556Y-16510D01*
X512572Y-18542D01*
X510540Y-17526D01*
X508508Y-18542D01*
X406908D02*
X407924Y-16510D01*
X406908Y-14478D01*
X408940Y-15494D01*
X410972Y-14478D01*
X409956Y-16510D01*
X410972Y-18542D01*
X408940Y-17526D01*
X406908Y-18542D01*
X381508D02*
X382524Y-16510D01*
X381508Y-14478D01*
X383540Y-15494D01*
X385572Y-14478D01*
X384556Y-16510D01*
X385572Y-18542D01*
X383540Y-17526D01*
X381508Y-18542D01*
X356108D02*
X357124Y-16510D01*
X356108Y-14478D01*
X358140Y-15494D01*
X360172Y-14478D01*
X359156Y-16510D01*
X360172Y-18542D01*
X358140Y-17526D01*
X356108Y-18542D01*
X432308D02*
X433324Y-16510D01*
X432308Y-14478D01*
X434340Y-15494D01*
X436372Y-14478D01*
X435356Y-16510D01*
X436372Y-18542D01*
X434340Y-17526D01*
X432308Y-18542D01*
X330708D02*
X331724Y-16510D01*
X330708Y-14478D01*
X332740Y-15494D01*
X334772Y-14478D01*
X333756Y-16510D01*
X334772Y-18542D01*
X332740Y-17526D01*
X330708Y-18542D01*
X432308Y-43942D02*
X433324Y-41910D01*
X432308Y-39878D01*
X434340Y-40894D01*
X436372Y-39878D01*
X435356Y-41910D01*
X436372Y-43942D01*
X434340Y-42926D01*
X432308Y-43942D01*
X330708D02*
X331724Y-41910D01*
X330708Y-39878D01*
X332740Y-40894D01*
X334772Y-39878D01*
X333756Y-41910D01*
X334772Y-43942D01*
X332740Y-42926D01*
X330708Y-43942D01*
X356108D02*
X357124Y-41910D01*
X356108Y-39878D01*
X358140Y-40894D01*
X360172Y-39878D01*
X359156Y-41910D01*
X360172Y-43942D01*
X358140Y-42926D01*
X356108Y-43942D01*
X381508D02*
X382524Y-41910D01*
X381508Y-39878D01*
X383540Y-40894D01*
X385572Y-39878D01*
X384556Y-41910D01*
X385572Y-43942D01*
X383540Y-42926D01*
X381508Y-43942D01*
X406908D02*
X407924Y-41910D01*
X406908Y-39878D01*
X408940Y-40894D01*
X410972Y-39878D01*
X409956Y-41910D01*
X410972Y-43942D01*
X408940Y-42926D01*
X406908Y-43942D01*
X508508D02*
X509524Y-41910D01*
X508508Y-39878D01*
X510540Y-40894D01*
X512572Y-39878D01*
X511556Y-41910D01*
X512572Y-43942D01*
X510540Y-42926D01*
X508508Y-43942D01*
X483108D02*
X484124Y-41910D01*
X483108Y-39878D01*
X485140Y-40894D01*
X487172Y-39878D01*
X486156Y-41910D01*
X487172Y-43942D01*
X485140Y-42926D01*
X483108Y-43942D01*
X457708D02*
X458724Y-41910D01*
X457708Y-39878D01*
X459740Y-40894D01*
X461772Y-39878D01*
X460756Y-41910D01*
X461772Y-43942D01*
X459740Y-42926D01*
X457708Y-43942D01*
X533908D02*
X534924Y-41910D01*
X533908Y-39878D01*
X535940Y-40894D01*
X537972Y-39878D01*
X536956Y-41910D01*
X537972Y-43942D01*
X535940Y-42926D01*
X533908Y-43942D01*
X610108D02*
X611124Y-41910D01*
X610108Y-39878D01*
X612140Y-40894D01*
X614172Y-39878D01*
X613156Y-41910D01*
X614172Y-43942D01*
X612140Y-42926D01*
X610108Y-43942D01*
X559308D02*
X560324Y-41910D01*
X559308Y-39878D01*
X561340Y-40894D01*
X563372Y-39878D01*
X562356Y-41910D01*
X563372Y-43942D01*
X561340Y-42926D01*
X559308Y-43942D01*
X584708D02*
X585724Y-41910D01*
X584708Y-39878D01*
X586740Y-40894D01*
X588772Y-39878D01*
X587756Y-41910D01*
X588772Y-43942D01*
X586740Y-42926D01*
X584708Y-43942D01*
Y-360172D02*
X585724Y-358140D01*
X584708Y-356108D01*
X586740Y-357124D01*
X588772Y-356108D01*
X587756Y-358140D01*
X588772Y-360172D01*
X586740Y-359156D01*
X584708Y-360172D01*
X559308D02*
X560324Y-358140D01*
X559308Y-356108D01*
X561340Y-357124D01*
X563372Y-356108D01*
X562356Y-358140D01*
X563372Y-360172D01*
X561340Y-359156D01*
X559308Y-360172D01*
X610108D02*
X611124Y-358140D01*
X610108Y-356108D01*
X612140Y-357124D01*
X614172Y-356108D01*
X613156Y-358140D01*
X614172Y-360172D01*
X612140Y-359156D01*
X610108Y-360172D01*
X533908D02*
X534924Y-358140D01*
X533908Y-356108D01*
X535940Y-357124D01*
X537972Y-356108D01*
X536956Y-358140D01*
X537972Y-360172D01*
X535940Y-359156D01*
X533908Y-360172D01*
X457708D02*
X458724Y-358140D01*
X457708Y-356108D01*
X459740Y-357124D01*
X461772Y-356108D01*
X460756Y-358140D01*
X461772Y-360172D01*
X459740Y-359156D01*
X457708Y-360172D01*
X483108D02*
X484124Y-358140D01*
X483108Y-356108D01*
X485140Y-357124D01*
X487172Y-356108D01*
X486156Y-358140D01*
X487172Y-360172D01*
X485140Y-359156D01*
X483108Y-360172D01*
X508508D02*
X509524Y-358140D01*
X508508Y-356108D01*
X510540Y-357124D01*
X512572Y-356108D01*
X511556Y-358140D01*
X512572Y-360172D01*
X510540Y-359156D01*
X508508Y-360172D01*
X406908D02*
X407924Y-358140D01*
X406908Y-356108D01*
X408940Y-357124D01*
X410972Y-356108D01*
X409956Y-358140D01*
X410972Y-360172D01*
X408940Y-359156D01*
X406908Y-360172D01*
X381508D02*
X382524Y-358140D01*
X381508Y-356108D01*
X383540Y-357124D01*
X385572Y-356108D01*
X384556Y-358140D01*
X385572Y-360172D01*
X383540Y-359156D01*
X381508Y-360172D01*
X356108D02*
X357124Y-358140D01*
X356108Y-356108D01*
X358140Y-357124D01*
X360172Y-356108D01*
X359156Y-358140D01*
X360172Y-360172D01*
X358140Y-359156D01*
X356108Y-360172D01*
X432308D02*
X433324Y-358140D01*
X432308Y-356108D01*
X434340Y-357124D01*
X436372Y-356108D01*
X435356Y-358140D01*
X436372Y-360172D01*
X434340Y-359156D01*
X432308Y-360172D01*
X330708D02*
X331724Y-358140D01*
X330708Y-356108D01*
X332740Y-357124D01*
X334772Y-356108D01*
X333756Y-358140D01*
X334772Y-360172D01*
X332740Y-359156D01*
X330708Y-360172D01*
X432308Y-385572D02*
X433324Y-383540D01*
X432308Y-381508D01*
X434340Y-382524D01*
X436372Y-381508D01*
X435356Y-383540D01*
X436372Y-385572D01*
X434340Y-384556D01*
X432308Y-385572D01*
X330708D02*
X331724Y-383540D01*
X330708Y-381508D01*
X332740Y-382524D01*
X334772Y-381508D01*
X333756Y-383540D01*
X334772Y-385572D01*
X332740Y-384556D01*
X330708Y-385572D01*
X356108D02*
X357124Y-383540D01*
X356108Y-381508D01*
X358140Y-382524D01*
X360172Y-381508D01*
X359156Y-383540D01*
X360172Y-385572D01*
X358140Y-384556D01*
X356108Y-385572D01*
X381508D02*
X382524Y-383540D01*
X381508Y-381508D01*
X383540Y-382524D01*
X385572Y-381508D01*
X384556Y-383540D01*
X385572Y-385572D01*
X383540Y-384556D01*
X381508Y-385572D01*
X406908D02*
X407924Y-383540D01*
X406908Y-381508D01*
X408940Y-382524D01*
X410972Y-381508D01*
X409956Y-383540D01*
X410972Y-385572D01*
X408940Y-384556D01*
X406908Y-385572D01*
X508508D02*
X509524Y-383540D01*
X508508Y-381508D01*
X510540Y-382524D01*
X512572Y-381508D01*
X511556Y-383540D01*
X512572Y-385572D01*
X510540Y-384556D01*
X508508Y-385572D01*
X483108D02*
X484124Y-383540D01*
X483108Y-381508D01*
X485140Y-382524D01*
X487172Y-381508D01*
X486156Y-383540D01*
X487172Y-385572D01*
X485140Y-384556D01*
X483108Y-385572D01*
X457708D02*
X458724Y-383540D01*
X457708Y-381508D01*
X459740Y-382524D01*
X461772Y-381508D01*
X460756Y-383540D01*
X461772Y-385572D01*
X459740Y-384556D01*
X457708Y-385572D01*
X533908D02*
X534924Y-383540D01*
X533908Y-381508D01*
X535940Y-382524D01*
X537972Y-381508D01*
X536956Y-383540D01*
X537972Y-385572D01*
X535940Y-384556D01*
X533908Y-385572D01*
X610108D02*
X611124Y-383540D01*
X610108Y-381508D01*
X612140Y-382524D01*
X614172Y-381508D01*
X613156Y-383540D01*
X614172Y-385572D01*
X612140Y-384556D01*
X610108Y-385572D01*
X559308D02*
X560324Y-383540D01*
X559308Y-381508D01*
X561340Y-382524D01*
X563372Y-381508D01*
X562356Y-383540D01*
X563372Y-385572D01*
X561340Y-384556D01*
X559308Y-385572D01*
X584708D02*
X585724Y-383540D01*
X584708Y-381508D01*
X586740Y-382524D01*
X588772Y-381508D01*
X587756Y-383540D01*
X588772Y-385572D01*
X586740Y-384556D01*
X584708Y-385572D01*
X159258Y-22352D02*
X160274Y-20320D01*
X159258Y-18288D01*
X161290Y-19304D01*
X163322Y-18288D01*
X162306Y-20320D01*
X163322Y-22352D01*
X161290Y-21336D01*
X159258Y-22352D01*
X133858D02*
X134874Y-20320D01*
X133858Y-18288D01*
X135890Y-19304D01*
X137922Y-18288D01*
X136906Y-20320D01*
X137922Y-22352D01*
X135890Y-21336D01*
X133858Y-22352D01*
X108458D02*
X109474Y-20320D01*
X108458Y-18288D01*
X110490Y-19304D01*
X112522Y-18288D01*
X111506Y-20320D01*
X112522Y-22352D01*
X110490Y-21336D01*
X108458Y-22352D01*
X83058D02*
X84074Y-20320D01*
X83058Y-18288D01*
X85090Y-19304D01*
X87122Y-18288D01*
X86106Y-20320D01*
X87122Y-22352D01*
X85090Y-21336D01*
X83058Y-22352D01*
X28984Y-31016D02*
Y-32032D01*
X31016D01*
Y-31016D01*
X32032D01*
Y-28984D01*
X31016D01*
Y-27968D01*
X28984D01*
Y-28984D01*
X27968D01*
Y-31016D01*
X28984D01*
Y-371016D02*
Y-372032D01*
X31016D01*
Y-371016D01*
X32032D01*
Y-368984D01*
X31016D01*
Y-367968D01*
X28984D01*
Y-368984D01*
X27968D01*
Y-371016D01*
X28984D01*
X718984D02*
Y-372032D01*
X721016D01*
Y-371016D01*
X722032D01*
Y-368984D01*
X721016D01*
Y-367968D01*
X718984D01*
Y-368984D01*
X717968D01*
Y-371016D01*
X718984D01*
Y-31016D02*
Y-32032D01*
X721016D01*
Y-31016D01*
X722032D01*
Y-28984D01*
X721016D01*
Y-27968D01*
X718984D01*
Y-28984D01*
X717968D01*
Y-31016D01*
X718984D01*
X452628Y-200152D02*
X453644D01*
X454660Y-199136D01*
X455676Y-200152D01*
X456692D01*
Y-199136D01*
X455676Y-198120D01*
X456692Y-197104D01*
Y-196088D01*
X455676D01*
X454660Y-197104D01*
X453644Y-196088D01*
X452628D01*
Y-197104D01*
X453644Y-198120D01*
X452628Y-199136D01*
Y-200152D01*
X456438Y-170942D02*
X457454D01*
X458470Y-169926D01*
X459486Y-170942D01*
X460502D01*
Y-169926D01*
X459486Y-168910D01*
X460502Y-167894D01*
Y-166878D01*
X459486D01*
X458470Y-167894D01*
X457454Y-166878D01*
X456438D01*
Y-167894D01*
X457454Y-168910D01*
X456438Y-169926D01*
Y-170942D01*
X107188Y-160782D02*
X108204D01*
X109220Y-159766D01*
X110236Y-160782D01*
X111252D01*
Y-159766D01*
X110236Y-158750D01*
X111252Y-157734D01*
Y-156718D01*
X110236D01*
X109220Y-157734D01*
X108204Y-156718D01*
X107188D01*
Y-157734D01*
X108204Y-158750D01*
X107188Y-159766D01*
Y-160782D01*
X284988Y-101092D02*
X286004D01*
X287020Y-100076D01*
X288036Y-101092D01*
X289052D01*
Y-100076D01*
X288036Y-99060D01*
X289052Y-98044D01*
Y-97028D01*
X288036D01*
X287020Y-98044D01*
X286004Y-97028D01*
X284988D01*
Y-98044D01*
X286004Y-99060D01*
X284988Y-100076D01*
Y-101092D01*
X320548Y-115062D02*
X321564D01*
X322580Y-114046D01*
X323596Y-115062D01*
X324612D01*
Y-114046D01*
X323596Y-113030D01*
X324612Y-112014D01*
Y-110998D01*
X323596D01*
X322580Y-112014D01*
X321564Y-110998D01*
X320548D01*
Y-112014D01*
X321564Y-113030D01*
X320548Y-114046D01*
Y-115062D01*
X324358Y-110237D02*
X325374D01*
X326390Y-109221D01*
X327406Y-110237D01*
X328422D01*
Y-109221D01*
X327406Y-108204D01*
X328422Y-107189D01*
Y-106173D01*
X327406D01*
X326390Y-107189D01*
X325374Y-106173D01*
X324358D01*
Y-107189D01*
X325374Y-108204D01*
X324358Y-109221D01*
Y-110237D01*
X258318Y-176022D02*
X259334D01*
X260350Y-175006D01*
X261366Y-176022D01*
X262382D01*
Y-175006D01*
X261366Y-173990D01*
X262382Y-172974D01*
Y-171958D01*
X261366D01*
X260350Y-172974D01*
X259334Y-171958D01*
X258318D01*
Y-172974D01*
X259334Y-173990D01*
X258318Y-175006D01*
Y-176022D01*
Y-169672D02*
X259334D01*
X260350Y-168656D01*
X261366Y-169672D01*
X262382D01*
Y-168656D01*
X261366Y-167640D01*
X262382Y-166624D01*
Y-165608D01*
X261366D01*
X260350Y-166624D01*
X259334Y-165608D01*
X258318D01*
Y-166624D01*
X259334Y-167640D01*
X258318Y-168656D01*
Y-169672D01*
X572008Y-205232D02*
X573024D01*
X574040Y-204216D01*
X575056Y-205232D01*
X576072D01*
Y-204216D01*
X575056Y-203200D01*
X576072Y-202184D01*
Y-201168D01*
X575056D01*
X574040Y-202184D01*
X573024Y-201168D01*
X572008D01*
Y-202184D01*
X573024Y-203200D01*
X572008Y-204216D01*
Y-205232D01*
Y-200152D02*
X573024D01*
X574040Y-199136D01*
X575056Y-200152D01*
X576072D01*
Y-199136D01*
X575056Y-198120D01*
X576072Y-197104D01*
Y-196088D01*
X575056D01*
X574040Y-197104D01*
X573024Y-196088D01*
X572008D01*
Y-197104D01*
X573024Y-198120D01*
X572008Y-199136D01*
Y-200152D01*
X387858Y-309372D02*
X388874D01*
X389890Y-308356D01*
X390906Y-309372D01*
X391922D01*
Y-308356D01*
X390906Y-307340D01*
X391922Y-306324D01*
Y-305308D01*
X390906D01*
X389890Y-306324D01*
X388874Y-305308D01*
X387858D01*
Y-306324D01*
X388874Y-307340D01*
X387858Y-308356D01*
Y-309372D01*
X363728D02*
X364744D01*
X365760Y-308356D01*
X366776Y-309372D01*
X367792D01*
Y-308356D01*
X366776Y-307340D01*
X367792Y-306324D01*
Y-305308D01*
X366776D01*
X365760Y-306324D01*
X364744Y-305308D01*
X363728D01*
Y-306324D01*
X364744Y-307340D01*
X363728Y-308356D01*
Y-309372D01*
X226568Y-126492D02*
X227584D01*
X228600Y-125476D01*
X229616Y-126492D01*
X230632D01*
Y-125476D01*
X229616Y-124460D01*
X230632Y-123444D01*
Y-122428D01*
X229616D01*
X228600Y-123444D01*
X227584Y-122428D01*
X226568D01*
Y-123444D01*
X227584Y-124460D01*
X226568Y-125476D01*
Y-126492D01*
X185928Y-145542D02*
X186944D01*
X187960Y-144526D01*
X188976Y-145542D01*
X189992D01*
Y-144526D01*
X188976Y-143510D01*
X189992Y-142494D01*
Y-141478D01*
X188976D01*
X187960Y-142494D01*
X186944Y-141478D01*
X185928D01*
Y-142494D01*
X186944Y-143510D01*
X185928Y-144526D01*
Y-145542D01*
X207518Y-111252D02*
X208534D01*
X209550Y-110236D01*
X210566Y-111252D01*
X211582D01*
Y-110236D01*
X210566Y-109220D01*
X211582Y-108204D01*
Y-107188D01*
X210566D01*
X209550Y-108204D01*
X208534Y-107188D01*
X207518D01*
Y-108204D01*
X208534Y-109220D01*
X207518Y-110236D01*
Y-111252D01*
X189738Y-129032D02*
X190754D01*
X191770Y-128016D01*
X192786Y-129032D01*
X193802D01*
Y-128016D01*
X192786Y-127000D01*
X193802Y-125984D01*
Y-124968D01*
X192786D01*
X191770Y-125984D01*
X190754Y-124968D01*
X189738D01*
Y-125984D01*
X190754Y-127000D01*
X189738Y-128016D01*
Y-129032D01*
X246888Y-145542D02*
X247904D01*
X248920Y-144526D01*
X249936Y-145542D01*
X250952D01*
Y-144526D01*
X249936Y-143510D01*
X250952Y-142494D01*
Y-141478D01*
X249936D01*
X248920Y-142494D01*
X247904Y-141478D01*
X246888D01*
Y-142494D01*
X247904Y-143510D01*
X246888Y-144526D01*
Y-145542D01*
X104648Y-68072D02*
X105664D01*
X106680Y-67056D01*
X107696Y-68072D01*
X108712D01*
Y-67056D01*
X107696Y-66040D01*
X108712Y-65024D01*
Y-64008D01*
X107696D01*
X106680Y-65024D01*
X105664Y-64008D01*
X104648D01*
Y-65024D01*
X105664Y-66040D01*
X104648Y-67056D01*
Y-68072D01*
X98298D02*
X99314D01*
X100330Y-67056D01*
X101346Y-68072D01*
X102362D01*
Y-67056D01*
X101346Y-66040D01*
X102362Y-65024D01*
Y-64008D01*
X101346D01*
X100330Y-65024D01*
X99314Y-64008D01*
X98298D01*
Y-65024D01*
X99314Y-66040D01*
X98298Y-67056D01*
Y-68072D01*
X309118Y-33782D02*
X310134D01*
X311150Y-32766D01*
X312166Y-33782D01*
X313182D01*
Y-32766D01*
X312166Y-31750D01*
X313182Y-30734D01*
Y-29718D01*
X312166D01*
X311150Y-30734D01*
X310134Y-29718D01*
X309118D01*
Y-30734D01*
X310134Y-31750D01*
X309118Y-32766D01*
Y-33782D01*
X307848Y-16002D02*
X308864D01*
X309880Y-14986D01*
X310896Y-16002D01*
X311912D01*
Y-14986D01*
X310896Y-13970D01*
X311912Y-12954D01*
Y-11938D01*
X310896D01*
X309880Y-12954D01*
X308864Y-11938D01*
X307848D01*
Y-12954D01*
X308864Y-13970D01*
X307848Y-14986D01*
Y-16002D01*
X343408Y-68072D02*
X344424D01*
X345440Y-67056D01*
X346456Y-68072D01*
X347472D01*
Y-67056D01*
X346456Y-66040D01*
X347472Y-65024D01*
Y-64008D01*
X346456D01*
X345440Y-65024D01*
X344424Y-64008D01*
X343408D01*
Y-65024D01*
X344424Y-66040D01*
X343408Y-67056D01*
Y-68072D01*
X53848Y-135382D02*
X54864D01*
X55880Y-134366D01*
X56896Y-135382D01*
X57912D01*
Y-134366D01*
X56896Y-133350D01*
X57912Y-132334D01*
Y-131318D01*
X56896D01*
X55880Y-132334D01*
X54864Y-131318D01*
X53848D01*
Y-132334D01*
X54864Y-133350D01*
X53848Y-134366D01*
Y-135382D01*
Y-125222D02*
X54864D01*
X55880Y-124206D01*
X56896Y-125222D01*
X57912D01*
Y-124206D01*
X56896Y-123190D01*
X57912Y-122174D01*
Y-121158D01*
X56896D01*
X55880Y-122174D01*
X54864Y-121158D01*
X53848D01*
Y-122174D01*
X54864Y-123190D01*
X53848Y-124206D01*
Y-125222D01*
X610108Y-149352D02*
X611124D01*
X612140Y-148336D01*
X613156Y-149352D01*
X614172D01*
Y-148336D01*
X613156Y-147320D01*
X614172Y-146304D01*
Y-145288D01*
X613156D01*
X612140Y-146304D01*
X611124Y-145288D01*
X610108D01*
Y-146304D01*
X611124Y-147320D01*
X610108Y-148336D01*
Y-149352D01*
X561168D02*
X562184D01*
X563200Y-148336D01*
X564216Y-149352D01*
X565232D01*
Y-148336D01*
X564216Y-147320D01*
X565232Y-146304D01*
Y-145288D01*
X564216D01*
X563200Y-146304D01*
X562184Y-145288D01*
X561168D01*
Y-146304D01*
X562184Y-147320D01*
X561168Y-148336D01*
Y-149352D01*
X89408Y-156972D02*
X90424D01*
X91440Y-155956D01*
X92456Y-156972D01*
X93472D01*
Y-155956D01*
X92456Y-154940D01*
X93472Y-153924D01*
Y-152908D01*
X92456D01*
X91440Y-153924D01*
X90424Y-152908D01*
X89408D01*
Y-153924D01*
X90424Y-154940D01*
X89408Y-155956D01*
Y-156972D01*
X84328D02*
X85344D01*
X86360Y-155956D01*
X87376Y-156972D01*
X88392D01*
Y-155956D01*
X87376Y-154940D01*
X88392Y-153924D01*
Y-152908D01*
X87376D01*
X86360Y-153924D01*
X85344Y-152908D01*
X84328D01*
Y-153924D01*
X85344Y-154940D01*
X84328Y-155956D01*
Y-156972D01*
X89408Y-108712D02*
X90424D01*
X91440Y-107696D01*
X92456Y-108712D01*
X93472D01*
Y-107696D01*
X92456Y-106680D01*
X93472Y-105664D01*
Y-104648D01*
X92456D01*
X91440Y-105664D01*
X90424Y-104648D01*
X89408D01*
Y-105664D01*
X90424Y-106680D01*
X89408Y-107696D01*
Y-108712D01*
X84328D02*
X85344D01*
X86360Y-107696D01*
X87376Y-108712D01*
X88392D01*
Y-107696D01*
X87376Y-106680D01*
X88392Y-105664D01*
Y-104648D01*
X87376D01*
X86360Y-105664D01*
X85344Y-104648D01*
X84328D01*
Y-105664D01*
X85344Y-106680D01*
X84328Y-107696D01*
Y-108712D01*
Y-162052D02*
X85344D01*
X86360Y-161036D01*
X87376Y-162052D01*
X88392D01*
Y-161036D01*
X87376Y-160020D01*
X88392Y-159004D01*
Y-157988D01*
X87376D01*
X86360Y-159004D01*
X85344Y-157988D01*
X84328D01*
Y-159004D01*
X85344Y-160020D01*
X84328Y-161036D01*
Y-162052D01*
X89408D02*
X90424D01*
X91440Y-161036D01*
X92456Y-162052D01*
X93472D01*
Y-161036D01*
X92456Y-160020D01*
X93472Y-159004D01*
Y-157988D01*
X92456D01*
X91440Y-159004D01*
X90424Y-157988D01*
X89408D01*
Y-159004D01*
X90424Y-160020D01*
X89408Y-161036D01*
Y-162052D01*
X615188Y-163322D02*
X616204D01*
X617220Y-162306D01*
X618236Y-163322D01*
X619252D01*
Y-162306D01*
X618236Y-161290D01*
X619252Y-160274D01*
Y-159258D01*
X618236D01*
X617220Y-160274D01*
X616204Y-159258D01*
X615188D01*
Y-160274D01*
X616204Y-161290D01*
X615188Y-162306D01*
Y-163322D01*
X593598Y-309372D02*
X594614D01*
X595630Y-308356D01*
X596646Y-309372D01*
X597662D01*
Y-308356D01*
X596646Y-307340D01*
X597662Y-306324D01*
Y-305308D01*
X596646D01*
X595630Y-306324D01*
X594614Y-305308D01*
X593598D01*
Y-306324D01*
X594614Y-307340D01*
X593598Y-308356D01*
Y-309372D01*
X306578Y-341122D02*
X307594D01*
X308610Y-340106D01*
X309626Y-341122D01*
X310642D01*
Y-340106D01*
X309626Y-339090D01*
X310642Y-338074D01*
Y-337058D01*
X309626D01*
X308610Y-338074D01*
X307594Y-337058D01*
X306578D01*
Y-338074D01*
X307594Y-339090D01*
X306578Y-340106D01*
Y-341122D01*
X446278Y-242062D02*
X447294D01*
X448310Y-241046D01*
X449326Y-242062D01*
X450342D01*
Y-241046D01*
X449326Y-240030D01*
X450342Y-239014D01*
Y-237998D01*
X449326D01*
X448310Y-239014D01*
X447294Y-237998D01*
X446278D01*
Y-239014D01*
X447294Y-240030D01*
X446278Y-241046D01*
Y-242062D01*
X488188Y-262382D02*
X489204D01*
X490220Y-261366D01*
X491236Y-262382D01*
X492252D01*
Y-261366D01*
X491236Y-260350D01*
X492252Y-259334D01*
Y-258318D01*
X491236D01*
X490220Y-259334D01*
X489204Y-258318D01*
X488188D01*
Y-259334D01*
X489204Y-260350D01*
X488188Y-261366D01*
Y-262382D01*
Y-269365D02*
X489204D01*
X490220Y-268349D01*
X491236Y-269365D01*
X492252D01*
Y-268349D01*
X491236Y-267333D01*
X492252Y-266317D01*
Y-265301D01*
X491236D01*
X490220Y-266317D01*
X489204Y-265301D01*
X488188D01*
Y-266317D01*
X489204Y-267333D01*
X488188Y-268349D01*
Y-269365D01*
X605028Y-229362D02*
X606044D01*
X607060Y-228346D01*
X608076Y-229362D01*
X609092D01*
Y-228346D01*
X608076Y-227330D01*
X609092Y-226314D01*
Y-225298D01*
X608076D01*
X607060Y-226314D01*
X606044Y-225298D01*
X605028D01*
Y-226314D01*
X606044Y-227330D01*
X605028Y-228346D01*
Y-229362D01*
X431038Y-252222D02*
X432054D01*
X433070Y-251206D01*
X434086Y-252222D01*
X435102D01*
Y-251206D01*
X434086Y-250190D01*
X435102Y-249174D01*
Y-248158D01*
X434086D01*
X433070Y-249174D01*
X432054Y-248158D01*
X431038D01*
Y-249174D01*
X432054Y-250190D01*
X431038Y-251206D01*
Y-252222D01*
X574208Y-163322D02*
X575224D01*
X576240Y-162306D01*
X577256Y-163322D01*
X578272D01*
Y-162306D01*
X577256Y-161290D01*
X578272Y-160274D01*
Y-159258D01*
X577256D01*
X576240Y-160274D01*
X575224Y-159258D01*
X574208D01*
Y-160274D01*
X575224Y-161290D01*
X574208Y-162306D01*
Y-163322D01*
X654558Y-125222D02*
X655574D01*
X656590Y-124206D01*
X657606Y-125222D01*
X658622D01*
Y-124206D01*
X657606Y-123190D01*
X658622Y-122174D01*
Y-121158D01*
X657606D01*
X656590Y-122174D01*
X655574Y-121158D01*
X654558D01*
Y-122174D01*
X655574Y-123190D01*
X654558Y-124206D01*
Y-125222D01*
X648208D02*
X649224D01*
X650240Y-124206D01*
X651256Y-125222D01*
X652272D01*
Y-124206D01*
X651256Y-123190D01*
X652272Y-122174D01*
Y-121158D01*
X651256D01*
X650240Y-122174D01*
X649224Y-121158D01*
X648208D01*
Y-122174D01*
X649224Y-123190D01*
X648208Y-124206D01*
Y-125222D01*
X654558Y-131572D02*
X655574D01*
X656590Y-130556D01*
X657606Y-131572D01*
X658622D01*
Y-130556D01*
X657606Y-129540D01*
X658622Y-128524D01*
Y-127508D01*
X657606D01*
X656590Y-128524D01*
X655574Y-127508D01*
X654558D01*
Y-128524D01*
X655574Y-129540D01*
X654558Y-130556D01*
Y-131572D01*
X648208D02*
X649224D01*
X650240Y-130556D01*
X651256Y-131572D01*
X652272D01*
Y-130556D01*
X651256Y-129540D01*
X652272Y-128524D01*
Y-127508D01*
X651256D01*
X650240Y-128524D01*
X649224Y-127508D01*
X648208D01*
Y-128524D01*
X649224Y-129540D01*
X648208Y-130556D01*
Y-131572D01*
X723138Y-228092D02*
X724154D01*
X725170Y-227076D01*
X726186Y-228092D01*
X727202D01*
Y-227076D01*
X726186Y-226060D01*
X727202Y-225044D01*
Y-224028D01*
X726186D01*
X725170Y-225044D01*
X724154Y-224028D01*
X723138D01*
Y-225044D01*
X724154Y-226060D01*
X723138Y-227076D01*
Y-228092D01*
Y-234442D02*
X724154D01*
X725170Y-233426D01*
X726186Y-234442D01*
X727202D01*
Y-233426D01*
X726186Y-232410D01*
X727202Y-231394D01*
Y-230378D01*
X726186D01*
X725170Y-231394D01*
X724154Y-230378D01*
X723138D01*
Y-231394D01*
X724154Y-232410D01*
X723138Y-233426D01*
Y-234442D01*
X716788D02*
X717804D01*
X718820Y-233426D01*
X719836Y-234442D01*
X720852D01*
Y-233426D01*
X719836Y-232410D01*
X720852Y-231394D01*
Y-230378D01*
X719836D01*
X718820Y-231394D01*
X717804Y-230378D01*
X716788D01*
Y-231394D01*
X717804Y-232410D01*
X716788Y-233426D01*
Y-234442D01*
X147828Y-295402D02*
X148844D01*
X149860Y-294386D01*
X150876Y-295402D01*
X151892D01*
Y-294386D01*
X150876Y-293370D01*
X151892Y-292354D01*
Y-291338D01*
X150876D01*
X149860Y-292354D01*
X148844Y-291338D01*
X147828D01*
Y-292354D01*
X148844Y-293370D01*
X147828Y-294386D01*
Y-295402D01*
X141478D02*
X142494D01*
X143510Y-294386D01*
X144526Y-295402D01*
X145542D01*
Y-294386D01*
X144526Y-293370D01*
X145542Y-292354D01*
Y-291338D01*
X144526D01*
X143510Y-292354D01*
X142494Y-291338D01*
X141478D01*
Y-292354D01*
X142494Y-293370D01*
X141478Y-294386D01*
Y-295402D01*
X147828Y-301752D02*
X148844D01*
X149860Y-300736D01*
X150876Y-301752D01*
X151892D01*
Y-300736D01*
X150876Y-299720D01*
X151892Y-298704D01*
Y-297688D01*
X150876D01*
X149860Y-298704D01*
X148844Y-297688D01*
X147828D01*
Y-298704D01*
X148844Y-299720D01*
X147828Y-300736D01*
Y-301752D01*
X141478D02*
X142494D01*
X143510Y-300736D01*
X144526Y-301752D01*
X145542D01*
Y-300736D01*
X144526Y-299720D01*
X145542Y-298704D01*
Y-297688D01*
X144526D01*
X143510Y-298704D01*
X142494Y-297688D01*
X141478D01*
Y-298704D01*
X142494Y-299720D01*
X141478Y-300736D01*
Y-301752D01*
X527558Y-217932D02*
X528574D01*
X529590Y-216916D01*
X530606Y-217932D01*
X531622D01*
Y-216916D01*
X530606Y-215900D01*
X531622Y-214884D01*
Y-213868D01*
X530606D01*
X529590Y-214884D01*
X528574Y-213868D01*
X527558D01*
Y-214884D01*
X528574Y-215900D01*
X527558Y-216916D01*
Y-217932D01*
X533908D02*
X534924D01*
X535940Y-216916D01*
X536956Y-217932D01*
X537972D01*
Y-216916D01*
X536956Y-215900D01*
X537972Y-214884D01*
Y-213868D01*
X536956D01*
X535940Y-214884D01*
X534924Y-213868D01*
X533908D01*
Y-214884D01*
X534924Y-215900D01*
X533908Y-216916D01*
Y-217932D01*
X527558Y-211582D02*
X528574D01*
X529590Y-210566D01*
X530606Y-211582D01*
X531622D01*
Y-210566D01*
X530606Y-209550D01*
X531622Y-208534D01*
Y-207518D01*
X530606D01*
X529590Y-208534D01*
X528574Y-207518D01*
X527558D01*
Y-208534D01*
X528574Y-209550D01*
X527558Y-210566D01*
Y-211582D01*
X533908D02*
X534924D01*
X535940Y-210566D01*
X536956Y-211582D01*
X537972D01*
Y-210566D01*
X536956Y-209550D01*
X537972Y-208534D01*
Y-207518D01*
X536956D01*
X535940Y-208534D01*
X534924Y-207518D01*
X533908D01*
Y-208534D01*
X534924Y-209550D01*
X533908Y-210566D01*
Y-211582D01*
X527558Y-193802D02*
X528574D01*
X529590Y-192786D01*
X530606Y-193802D01*
X531622D01*
Y-192786D01*
X530606Y-191770D01*
X531622Y-190754D01*
Y-189738D01*
X530606D01*
X529590Y-190754D01*
X528574Y-189738D01*
X527558D01*
Y-190754D01*
X528574Y-191770D01*
X527558Y-192786D01*
Y-193802D01*
X533908D02*
X534924D01*
X535940Y-192786D01*
X536956Y-193802D01*
X537972D01*
Y-192786D01*
X536956Y-191770D01*
X537972Y-190754D01*
Y-189738D01*
X536956D01*
X535940Y-190754D01*
X534924Y-189738D01*
X533908D01*
Y-190754D01*
X534924Y-191770D01*
X533908Y-192786D01*
Y-193802D01*
X527558Y-187452D02*
X528574D01*
X529590Y-186436D01*
X530606Y-187452D01*
X531622D01*
Y-186436D01*
X530606Y-185420D01*
X531622Y-184404D01*
Y-183388D01*
X530606D01*
X529590Y-184404D01*
X528574Y-183388D01*
X527558D01*
Y-184404D01*
X528574Y-185420D01*
X527558Y-186436D01*
Y-187452D01*
X533908D02*
X534924D01*
X535940Y-186436D01*
X536956Y-187452D01*
X537972D01*
Y-186436D01*
X536956Y-185420D01*
X537972Y-184404D01*
Y-183388D01*
X536956D01*
X535940Y-184404D01*
X534924Y-183388D01*
X533908D01*
Y-184404D01*
X534924Y-185420D01*
X533908Y-186436D01*
Y-187452D01*
X503428Y-193802D02*
X504444D01*
X505460Y-192786D01*
X506476Y-193802D01*
X507492D01*
Y-192786D01*
X506476Y-191770D01*
X507492Y-190754D01*
Y-189738D01*
X506476D01*
X505460Y-190754D01*
X504444Y-189738D01*
X503428D01*
Y-190754D01*
X504444Y-191770D01*
X503428Y-192786D01*
Y-193802D01*
X509778D02*
X510794D01*
X511810Y-192786D01*
X512826Y-193802D01*
X513842D01*
Y-192786D01*
X512826Y-191770D01*
X513842Y-190754D01*
Y-189738D01*
X512826D01*
X511810Y-190754D01*
X510794Y-189738D01*
X509778D01*
Y-190754D01*
X510794Y-191770D01*
X509778Y-192786D01*
Y-193802D01*
X503428Y-187452D02*
X504444D01*
X505460Y-186436D01*
X506476Y-187452D01*
X507492D01*
Y-186436D01*
X506476Y-185420D01*
X507492Y-184404D01*
Y-183388D01*
X506476D01*
X505460Y-184404D01*
X504444Y-183388D01*
X503428D01*
Y-184404D01*
X504444Y-185420D01*
X503428Y-186436D01*
Y-187452D01*
X509778D02*
X510794D01*
X511810Y-186436D01*
X512826Y-187452D01*
X513842D01*
Y-186436D01*
X512826Y-185420D01*
X513842Y-184404D01*
Y-183388D01*
X512826D01*
X511810Y-184404D01*
X510794Y-183388D01*
X509778D01*
Y-184404D01*
X510794Y-185420D01*
X509778Y-186436D01*
Y-187452D01*
X503428Y-217932D02*
X504444D01*
X505460Y-216916D01*
X506476Y-217932D01*
X507492D01*
Y-216916D01*
X506476Y-215900D01*
X507492Y-214884D01*
Y-213868D01*
X506476D01*
X505460Y-214884D01*
X504444Y-213868D01*
X503428D01*
Y-214884D01*
X504444Y-215900D01*
X503428Y-216916D01*
Y-217932D01*
X509778D02*
X510794D01*
X511810Y-216916D01*
X512826Y-217932D01*
X513842D01*
Y-216916D01*
X512826Y-215900D01*
X513842Y-214884D01*
Y-213868D01*
X512826D01*
X511810Y-214884D01*
X510794Y-213868D01*
X509778D01*
Y-214884D01*
X510794Y-215900D01*
X509778Y-216916D01*
Y-217932D01*
X503428Y-211582D02*
X504444D01*
X505460Y-210566D01*
X506476Y-211582D01*
X507492D01*
Y-210566D01*
X506476Y-209550D01*
X507492Y-208534D01*
Y-207518D01*
X506476D01*
X505460Y-208534D01*
X504444Y-207518D01*
X503428D01*
Y-208534D01*
X504444Y-209550D01*
X503428Y-210566D01*
Y-211582D01*
X509778D02*
X510794D01*
X511810Y-210566D01*
X512826Y-211582D01*
X513842D01*
Y-210566D01*
X512826Y-209550D01*
X513842Y-208534D01*
Y-207518D01*
X512826D01*
X511810Y-208534D01*
X510794Y-207518D01*
X509778D01*
Y-208534D01*
X510794Y-209550D01*
X509778Y-210566D01*
Y-211582D01*
X32258Y-130302D02*
X33274D01*
X34290Y-129286D01*
X35306Y-130302D01*
X36322D01*
Y-129286D01*
X35306Y-128270D01*
X36322Y-127254D01*
Y-126238D01*
X35306D01*
X34290Y-127254D01*
X33274Y-126238D01*
X32258D01*
Y-127254D01*
X33274Y-128270D01*
X32258Y-129286D01*
Y-130302D01*
X25908D02*
X26924D01*
X27940Y-129286D01*
X28956Y-130302D01*
X29972D01*
Y-129286D01*
X28956Y-128270D01*
X29972Y-127254D01*
Y-126238D01*
X28956D01*
X27940Y-127254D01*
X26924Y-126238D01*
X25908D01*
Y-127254D01*
X26924Y-128270D01*
X25908Y-129286D01*
Y-130302D01*
X32258Y-136652D02*
X33274D01*
X34290Y-135636D01*
X35306Y-136652D01*
X36322D01*
Y-135636D01*
X35306Y-134620D01*
X36322Y-133604D01*
Y-132588D01*
X35306D01*
X34290Y-133604D01*
X33274Y-132588D01*
X32258D01*
Y-133604D01*
X33274Y-134620D01*
X32258Y-135636D01*
Y-136652D01*
X25908D02*
X26924D01*
X27940Y-135636D01*
X28956Y-136652D01*
X29972D01*
Y-135636D01*
X28956Y-134620D01*
X29972Y-133604D01*
Y-132588D01*
X28956D01*
X27940Y-133604D01*
X26924Y-132588D01*
X25908D01*
Y-133604D01*
X26924Y-134620D01*
X25908Y-135636D01*
Y-136652D01*
X380238Y-139192D02*
X381254D01*
X382270Y-138176D01*
X383286Y-139192D01*
X384302D01*
Y-138176D01*
X383286Y-137160D01*
X384302Y-136144D01*
Y-135128D01*
X383286D01*
X382270Y-136144D01*
X381254Y-135128D01*
X380238D01*
Y-136144D01*
X381254Y-137160D01*
X380238Y-138176D01*
Y-139192D01*
X386588D02*
X387604D01*
X388620Y-138176D01*
X389636Y-139192D01*
X390652D01*
Y-138176D01*
X389636Y-137160D01*
X390652Y-136144D01*
Y-135128D01*
X389636D01*
X388620Y-136144D01*
X387604Y-135128D01*
X386588D01*
Y-136144D01*
X387604Y-137160D01*
X386588Y-138176D01*
Y-139192D01*
X380238Y-132842D02*
X381254D01*
X382270Y-131826D01*
X383286Y-132842D01*
X384302D01*
Y-131826D01*
X383286Y-130810D01*
X384302Y-129794D01*
Y-128778D01*
X383286D01*
X382270Y-129794D01*
X381254Y-128778D01*
X380238D01*
Y-129794D01*
X381254Y-130810D01*
X380238Y-131826D01*
Y-132842D01*
X386588D02*
X387604D01*
X388620Y-131826D01*
X389636Y-132842D01*
X390652D01*
Y-131826D01*
X389636Y-130810D01*
X390652Y-129794D01*
Y-128778D01*
X389636D01*
X388620Y-129794D01*
X387604Y-128778D01*
X386588D01*
Y-129794D01*
X387604Y-130810D01*
X386588Y-131826D01*
Y-132842D01*
X546608Y-61722D02*
X547624D01*
X548640Y-60706D01*
X549656Y-61722D01*
X550672D01*
Y-60706D01*
X549656Y-59690D01*
X550672Y-58674D01*
Y-57658D01*
X549656D01*
X548640Y-58674D01*
X547624Y-57658D01*
X546608D01*
Y-58674D01*
X547624Y-59690D01*
X546608Y-60706D01*
Y-61722D01*
X593598Y-66802D02*
X594614D01*
X595630Y-65786D01*
X596646Y-66802D01*
X597662D01*
Y-65786D01*
X596646Y-64770D01*
X597662Y-63754D01*
Y-62738D01*
X596646D01*
X595630Y-63754D01*
X594614Y-62738D01*
X593598D01*
Y-63754D01*
X594614Y-64770D01*
X593598Y-65786D01*
Y-66802D01*
X262127Y-135637D02*
X263144D01*
X264160Y-134621D01*
X265175Y-135637D01*
X266192D01*
Y-134621D01*
X265175Y-133604D01*
X266192Y-132589D01*
Y-131573D01*
X265175D01*
X264160Y-132589D01*
X263144Y-131573D01*
X262127D01*
Y-132589D01*
X263144Y-133604D01*
X262127Y-134621D01*
Y-135637D01*
X274827Y-158750D02*
X275844D01*
X276859Y-157734D01*
X277875Y-158750D01*
X278892D01*
Y-157734D01*
X277875Y-156719D01*
X278892Y-155702D01*
Y-154686D01*
X277875D01*
X276859Y-155702D01*
X275844Y-154686D01*
X274827D01*
Y-155702D01*
X275844Y-156719D01*
X274827Y-157734D01*
Y-158750D01*
X154178Y-64205D02*
X155194D01*
X156210Y-63190D01*
X157226Y-64205D01*
X158242D01*
Y-63190D01*
X157226Y-62174D01*
X158242Y-61157D01*
Y-60142D01*
X157226D01*
X156210Y-61157D01*
X155194Y-60142D01*
X154178D01*
Y-61157D01*
X155194Y-62174D01*
X154178Y-63190D01*
Y-64205D01*
X160528D02*
X161544D01*
X162560Y-63190D01*
X163576Y-64205D01*
X164592D01*
Y-63190D01*
X163576Y-62174D01*
X164592Y-61157D01*
Y-60142D01*
X163576D01*
X162560Y-61157D01*
X161544Y-60142D01*
X160528D01*
Y-61157D01*
X161544Y-62174D01*
X160528Y-63190D01*
Y-64205D01*
X154178Y-57856D02*
X155194D01*
X156210Y-56839D01*
X157226Y-57856D01*
X158242D01*
Y-56839D01*
X157226Y-55823D01*
X158242Y-54808D01*
Y-53791D01*
X157226D01*
X156210Y-54808D01*
X155194Y-53791D01*
X154178D01*
Y-54808D01*
X155194Y-55823D01*
X154178Y-56839D01*
Y-57856D01*
X160528D02*
X161544D01*
X162560Y-56839D01*
X163576Y-57856D01*
X164592D01*
Y-56839D01*
X163576Y-55823D01*
X164592Y-54808D01*
Y-53791D01*
X163576D01*
X162560Y-54808D01*
X161544Y-53791D01*
X160528D01*
Y-54808D01*
X161544Y-55823D01*
X160528Y-56839D01*
Y-57856D01*
X84328Y-113792D02*
X85344D01*
X86360Y-112776D01*
X87376Y-113792D01*
X88392D01*
Y-112776D01*
X87376Y-111760D01*
X88392Y-110744D01*
Y-109728D01*
X87376D01*
X86360Y-110744D01*
X85344Y-109728D01*
X84328D01*
Y-110744D01*
X85344Y-111760D01*
X84328Y-112776D01*
Y-113792D01*
X89408D02*
X90424D01*
X91440Y-112776D01*
X92456Y-113792D01*
X93472D01*
Y-112776D01*
X92456Y-111760D01*
X93472Y-110744D01*
Y-109728D01*
X92456D01*
X91440Y-110744D01*
X90424Y-109728D01*
X89408D01*
Y-110744D01*
X90424Y-111760D01*
X89408Y-112776D01*
Y-113792D01*
X354838Y-170942D02*
X355854D01*
X356870Y-169926D01*
X357886Y-170942D01*
X358902D01*
Y-169926D01*
X357886Y-168910D01*
X358902Y-167894D01*
Y-166878D01*
X357886D01*
X356870Y-167894D01*
X355854Y-166878D01*
X354838D01*
Y-167894D01*
X355854Y-168910D01*
X354838Y-169926D01*
Y-170942D01*
X361188D02*
X362204D01*
X363220Y-169926D01*
X364236Y-170942D01*
X365252D01*
Y-169926D01*
X364236Y-168910D01*
X365252Y-167894D01*
Y-166878D01*
X364236D01*
X363220Y-167894D01*
X362204Y-166878D01*
X361188D01*
Y-167894D01*
X362204Y-168910D01*
X361188Y-169926D01*
Y-170942D01*
X354838Y-164592D02*
X355854D01*
X356870Y-163576D01*
X357886Y-164592D01*
X358902D01*
Y-163576D01*
X357886Y-162560D01*
X358902Y-161544D01*
Y-160528D01*
X357886D01*
X356870Y-161544D01*
X355854Y-160528D01*
X354838D01*
Y-161544D01*
X355854Y-162560D01*
X354838Y-163576D01*
Y-164592D01*
X361188D02*
X362204D01*
X363220Y-163576D01*
X364236Y-164592D01*
X365252D01*
Y-163576D01*
X364236Y-162560D01*
X365252Y-161544D01*
Y-160528D01*
X364236D01*
X363220Y-161544D01*
X362204Y-160528D01*
X361188D01*
Y-161544D01*
X362204Y-162560D01*
X361188Y-163576D01*
Y-164592D01*
X389128Y-226822D02*
X390144D01*
X391160Y-225806D01*
X392176Y-226822D01*
X393192D01*
Y-225806D01*
X392176Y-224790D01*
X393192Y-223774D01*
Y-222758D01*
X392176D01*
X391160Y-223774D01*
X390144Y-222758D01*
X389128D01*
Y-223774D01*
X390144Y-224790D01*
X389128Y-225806D01*
Y-226822D01*
X382778D02*
X383794D01*
X384810Y-225806D01*
X385826Y-226822D01*
X386842D01*
Y-225806D01*
X385826Y-224790D01*
X386842Y-223774D01*
Y-222758D01*
X385826D01*
X384810Y-223774D01*
X383794Y-222758D01*
X382778D01*
Y-223774D01*
X383794Y-224790D01*
X382778Y-225806D01*
Y-226822D01*
X221488Y-333502D02*
X222504D01*
X223520Y-332486D01*
X224536Y-333502D01*
X225552D01*
Y-332486D01*
X224536Y-331470D01*
X225552Y-330454D01*
Y-329438D01*
X224536D01*
X223520Y-330454D01*
X222504Y-329438D01*
X221488D01*
Y-330454D01*
X222504Y-331470D01*
X221488Y-332486D01*
Y-333502D01*
X215138Y-339852D02*
X216154D01*
X217170Y-338836D01*
X218186Y-339852D01*
X219202D01*
Y-338836D01*
X218186Y-337820D01*
X219202Y-336804D01*
Y-335788D01*
X218186D01*
X217170Y-336804D01*
X216154Y-335788D01*
X215138D01*
Y-336804D01*
X216154Y-337820D01*
X215138Y-338836D01*
Y-339852D01*
X221488D02*
X222504D01*
X223520Y-338836D01*
X224536Y-339852D01*
X225552D01*
Y-338836D01*
X224536Y-337820D01*
X225552Y-336804D01*
Y-335788D01*
X224536D01*
X223520Y-336804D01*
X222504Y-335788D01*
X221488D01*
Y-336804D01*
X222504Y-337820D01*
X221488Y-338836D01*
Y-339852D01*
X215138Y-333502D02*
X216154D01*
X217170Y-332486D01*
X218186Y-333502D01*
X219202D01*
Y-332486D01*
X218186Y-331470D01*
X219202Y-330454D01*
Y-329438D01*
X218186D01*
X217170Y-330454D01*
X216154Y-329438D01*
X215138D01*
Y-330454D01*
X216154Y-331470D01*
X215138Y-332486D01*
Y-333502D01*
X616458Y-233172D02*
X617474D01*
X618490Y-232156D01*
X619506Y-233172D01*
X620522D01*
Y-232156D01*
X619506Y-231140D01*
X620522Y-230124D01*
Y-229108D01*
X619506D01*
X618490Y-230124D01*
X617474Y-229108D01*
X616458D01*
Y-230124D01*
X617474Y-231140D01*
X616458Y-232156D01*
Y-233172D01*
X632968D02*
X633984D01*
X635000Y-232156D01*
X636016Y-233172D01*
X637032D01*
Y-232156D01*
X636016Y-231140D01*
X637032Y-230124D01*
Y-229108D01*
X636016D01*
X635000Y-230124D01*
X633984Y-229108D01*
X632968D01*
Y-230124D01*
X633984Y-231140D01*
X632968Y-232156D01*
Y-233172D01*
X40342Y-19658D02*
X41358D01*
X42374Y-18642D01*
X43390Y-19658D01*
X44406D01*
Y-18642D01*
X43390Y-17626D01*
X44406Y-16610D01*
Y-15594D01*
X43390D01*
X42374Y-16610D01*
X41358Y-15594D01*
X40342D01*
Y-16610D01*
X41358Y-17626D01*
X40342Y-18642D01*
Y-19658D01*
X45468Y-32032D02*
X46484D01*
X47500Y-31016D01*
X48516Y-32032D01*
X49532D01*
Y-31016D01*
X48516Y-30000D01*
X49532Y-28984D01*
Y-27968D01*
X48516D01*
X47500Y-28984D01*
X46484Y-27968D01*
X45468D01*
Y-28984D01*
X46484Y-30000D01*
X45468Y-31016D01*
Y-32032D01*
X40342Y-44406D02*
X41358D01*
X42374Y-43390D01*
X43390Y-44406D01*
X44406D01*
Y-43390D01*
X43390Y-42374D01*
X44406Y-41358D01*
Y-40342D01*
X43390D01*
X42374Y-41358D01*
X41358Y-40342D01*
X40342D01*
Y-41358D01*
X41358Y-42374D01*
X40342Y-43390D01*
Y-44406D01*
X27968Y-49532D02*
X28984D01*
X30000Y-48516D01*
X31016Y-49532D01*
X32032D01*
Y-48516D01*
X31016Y-47500D01*
X32032Y-46484D01*
Y-45468D01*
X31016D01*
X30000Y-46484D01*
X28984Y-45468D01*
X27968D01*
Y-46484D01*
X28984Y-47500D01*
X27968Y-48516D01*
Y-49532D01*
X15594Y-44406D02*
X16610D01*
X17626Y-43390D01*
X18642Y-44406D01*
X19658D01*
Y-43390D01*
X18642Y-42374D01*
X19658Y-41358D01*
Y-40342D01*
X18642D01*
X17626Y-41358D01*
X16610Y-40342D01*
X15594D01*
Y-41358D01*
X16610Y-42374D01*
X15594Y-43390D01*
Y-44406D01*
X10468Y-32032D02*
X11484D01*
X12500Y-31016D01*
X13516Y-32032D01*
X14532D01*
Y-31016D01*
X13516Y-30000D01*
X14532Y-28984D01*
Y-27968D01*
X13516D01*
X12500Y-28984D01*
X11484Y-27968D01*
X10468D01*
Y-28984D01*
X11484Y-30000D01*
X10468Y-31016D01*
Y-32032D01*
X15594Y-19658D02*
X16610D01*
X17626Y-18642D01*
X18642Y-19658D01*
X19658D01*
Y-18642D01*
X18642Y-17626D01*
X19658Y-16610D01*
Y-15594D01*
X18642D01*
X17626Y-16610D01*
X16610Y-15594D01*
X15594D01*
Y-16610D01*
X16610Y-17626D01*
X15594Y-18642D01*
Y-19658D01*
X27968Y-14532D02*
X28984D01*
X30000Y-13516D01*
X31016Y-14532D01*
X32032D01*
Y-13516D01*
X31016Y-12500D01*
X32032Y-11484D01*
Y-10468D01*
X31016D01*
X30000Y-11484D01*
X28984Y-10468D01*
X27968D01*
Y-11484D01*
X28984Y-12500D01*
X27968Y-13516D01*
Y-14532D01*
X40342Y-359657D02*
X41358D01*
X42374Y-358641D01*
X43390Y-359657D01*
X44406D01*
Y-358641D01*
X43390Y-357625D01*
X44406Y-356609D01*
Y-355593D01*
X43390D01*
X42374Y-356609D01*
X41358Y-355593D01*
X40342D01*
Y-356609D01*
X41358Y-357625D01*
X40342Y-358641D01*
Y-359657D01*
X45468Y-372032D02*
X46484D01*
X47500Y-371016D01*
X48516Y-372032D01*
X49532D01*
Y-371016D01*
X48516Y-370000D01*
X49532Y-368984D01*
Y-367968D01*
X48516D01*
X47500Y-368984D01*
X46484Y-367968D01*
X45468D01*
Y-368984D01*
X46484Y-370000D01*
X45468Y-371016D01*
Y-372032D01*
X40342Y-384406D02*
X41358D01*
X42374Y-383390D01*
X43390Y-384406D01*
X44406D01*
Y-383390D01*
X43390Y-382374D01*
X44406Y-381358D01*
Y-380342D01*
X43390D01*
X42374Y-381358D01*
X41358Y-380342D01*
X40342D01*
Y-381358D01*
X41358Y-382374D01*
X40342Y-383390D01*
Y-384406D01*
X27968Y-389532D02*
X28984D01*
X30000Y-388516D01*
X31016Y-389532D01*
X32032D01*
Y-388516D01*
X31016Y-387500D01*
X32032Y-386484D01*
Y-385468D01*
X31016D01*
X30000Y-386484D01*
X28984Y-385468D01*
X27968D01*
Y-386484D01*
X28984Y-387500D01*
X27968Y-388516D01*
Y-389532D01*
X15594Y-384406D02*
X16610D01*
X17626Y-383390D01*
X18642Y-384406D01*
X19658D01*
Y-383390D01*
X18642Y-382374D01*
X19658Y-381358D01*
Y-380342D01*
X18642D01*
X17626Y-381358D01*
X16610Y-380342D01*
X15594D01*
Y-381358D01*
X16610Y-382374D01*
X15594Y-383390D01*
Y-384406D01*
X10468Y-372032D02*
X11484D01*
X12500Y-371016D01*
X13516Y-372032D01*
X14532D01*
Y-371016D01*
X13516Y-370000D01*
X14532Y-368984D01*
Y-367968D01*
X13516D01*
X12500Y-368984D01*
X11484Y-367968D01*
X10468D01*
Y-368984D01*
X11484Y-370000D01*
X10468Y-371016D01*
Y-372032D01*
X15594Y-359657D02*
X16610D01*
X17626Y-358641D01*
X18642Y-359657D01*
X19658D01*
Y-358641D01*
X18642Y-357625D01*
X19658Y-356609D01*
Y-355593D01*
X18642D01*
X17626Y-356609D01*
X16610Y-355593D01*
X15594D01*
Y-356609D01*
X16610Y-357625D01*
X15594Y-358641D01*
Y-359657D01*
X27968Y-354532D02*
X28984D01*
X30000Y-353516D01*
X31016Y-354532D01*
X32032D01*
Y-353516D01*
X31016Y-352500D01*
X32032Y-351484D01*
Y-350468D01*
X31016D01*
X30000Y-351484D01*
X28984Y-350468D01*
X27968D01*
Y-351484D01*
X28984Y-352500D01*
X27968Y-353516D01*
Y-354532D01*
X730342Y-359657D02*
X731358D01*
X732374Y-358641D01*
X733391Y-359657D01*
X734407D01*
Y-358641D01*
X733391Y-357625D01*
X734407Y-356609D01*
Y-355593D01*
X733391D01*
X732374Y-356609D01*
X731358Y-355593D01*
X730342D01*
Y-356609D01*
X731358Y-357625D01*
X730342Y-358641D01*
Y-359657D01*
X735468Y-372032D02*
X736484D01*
X737500Y-371016D01*
X738516Y-372032D01*
X739532D01*
Y-371016D01*
X738516Y-370000D01*
X739532Y-368984D01*
Y-367968D01*
X738516D01*
X737500Y-368984D01*
X736484Y-367968D01*
X735468D01*
Y-368984D01*
X736484Y-370000D01*
X735468Y-371016D01*
Y-372032D01*
X730342Y-384406D02*
X731358D01*
X732374Y-383390D01*
X733391Y-384406D01*
X734407D01*
Y-383390D01*
X733391Y-382374D01*
X734407Y-381358D01*
Y-380342D01*
X733391D01*
X732374Y-381358D01*
X731358Y-380342D01*
X730342D01*
Y-381358D01*
X731358Y-382374D01*
X730342Y-383390D01*
Y-384406D01*
X717968Y-389532D02*
X718984D01*
X720000Y-388516D01*
X721016Y-389532D01*
X722032D01*
Y-388516D01*
X721016Y-387500D01*
X722032Y-386484D01*
Y-385468D01*
X721016D01*
X720000Y-386484D01*
X718984Y-385468D01*
X717968D01*
Y-386484D01*
X718984Y-387500D01*
X717968Y-388516D01*
Y-389532D01*
X705594Y-384406D02*
X706610D01*
X707626Y-383390D01*
X708642Y-384406D01*
X709658D01*
Y-383390D01*
X708642Y-382374D01*
X709658Y-381358D01*
Y-380342D01*
X708642D01*
X707626Y-381358D01*
X706610Y-380342D01*
X705594D01*
Y-381358D01*
X706610Y-382374D01*
X705594Y-383390D01*
Y-384406D01*
X700468Y-372032D02*
X701484D01*
X702500Y-371016D01*
X703516Y-372032D01*
X704532D01*
Y-371016D01*
X703516Y-370000D01*
X704532Y-368984D01*
Y-367968D01*
X703516D01*
X702500Y-368984D01*
X701484Y-367968D01*
X700468D01*
Y-368984D01*
X701484Y-370000D01*
X700468Y-371016D01*
Y-372032D01*
X705594Y-359657D02*
X706610D01*
X707626Y-358641D01*
X708642Y-359657D01*
X709658D01*
Y-358641D01*
X708642Y-357625D01*
X709658Y-356609D01*
Y-355593D01*
X708642D01*
X707626Y-356609D01*
X706610Y-355593D01*
X705594D01*
Y-356609D01*
X706610Y-357625D01*
X705594Y-358641D01*
Y-359657D01*
X717968Y-354532D02*
X718984D01*
X720000Y-353516D01*
X721016Y-354532D01*
X722032D01*
Y-353516D01*
X721016Y-352500D01*
X722032Y-351484D01*
Y-350468D01*
X721016D01*
X720000Y-351484D01*
X718984Y-350468D01*
X717968D01*
Y-351484D01*
X718984Y-352500D01*
X717968Y-353516D01*
Y-354532D01*
X730342Y-19658D02*
X731358D01*
X732374Y-18642D01*
X733391Y-19658D01*
X734407D01*
Y-18642D01*
X733391Y-17626D01*
X734407Y-16610D01*
Y-15594D01*
X733391D01*
X732374Y-16610D01*
X731358Y-15594D01*
X730342D01*
Y-16610D01*
X731358Y-17626D01*
X730342Y-18642D01*
Y-19658D01*
X735468Y-32032D02*
X736484D01*
X737500Y-31016D01*
X738516Y-32032D01*
X739532D01*
Y-31016D01*
X738516Y-30000D01*
X739532Y-28984D01*
Y-27968D01*
X738516D01*
X737500Y-28984D01*
X736484Y-27968D01*
X735468D01*
Y-28984D01*
X736484Y-30000D01*
X735468Y-31016D01*
Y-32032D01*
X730342Y-44406D02*
X731358D01*
X732374Y-43390D01*
X733391Y-44406D01*
X734407D01*
Y-43390D01*
X733391Y-42374D01*
X734407Y-41358D01*
Y-40342D01*
X733391D01*
X732374Y-41358D01*
X731358Y-40342D01*
X730342D01*
Y-41358D01*
X731358Y-42374D01*
X730342Y-43390D01*
Y-44406D01*
X717968Y-49532D02*
X718984D01*
X720000Y-48516D01*
X721016Y-49532D01*
X722032D01*
Y-48516D01*
X721016Y-47500D01*
X722032Y-46484D01*
Y-45468D01*
X721016D01*
X720000Y-46484D01*
X718984Y-45468D01*
X717968D01*
Y-46484D01*
X718984Y-47500D01*
X717968Y-48516D01*
Y-49532D01*
X705594Y-44406D02*
X706610D01*
X707626Y-43390D01*
X708642Y-44406D01*
X709658D01*
Y-43390D01*
X708642Y-42374D01*
X709658Y-41358D01*
Y-40342D01*
X708642D01*
X707626Y-41358D01*
X706610Y-40342D01*
X705594D01*
Y-41358D01*
X706610Y-42374D01*
X705594Y-43390D01*
Y-44406D01*
X700468Y-32032D02*
X701484D01*
X702500Y-31016D01*
X703516Y-32032D01*
X704532D01*
Y-31016D01*
X703516Y-30000D01*
X704532Y-28984D01*
Y-27968D01*
X703516D01*
X702500Y-28984D01*
X701484Y-27968D01*
X700468D01*
Y-28984D01*
X701484Y-30000D01*
X700468Y-31016D01*
Y-32032D01*
X705594Y-19658D02*
X706610D01*
X707626Y-18642D01*
X708642Y-19658D01*
X709658D01*
Y-18642D01*
X708642Y-17626D01*
X709658Y-16610D01*
Y-15594D01*
X708642D01*
X707626Y-16610D01*
X706610Y-15594D01*
X705594D01*
Y-16610D01*
X706610Y-17626D01*
X705594Y-18642D01*
Y-19658D01*
X717968Y-14532D02*
X718984D01*
X720000Y-13516D01*
X721016Y-14532D01*
X722032D01*
Y-13516D01*
X721016Y-12500D01*
X722032Y-11484D01*
Y-10468D01*
X721016D01*
X720000Y-11484D01*
X718984Y-10468D01*
X717968D01*
Y-11484D01*
X718984Y-12500D01*
X717968Y-13516D01*
Y-14532D01*
X649478Y-205262D02*
X650494D01*
X651510Y-204246D01*
X652526Y-205262D01*
X653542D01*
Y-204246D01*
X652526Y-203230D01*
X653542Y-202214D01*
Y-201198D01*
X652526D01*
X651510Y-202214D01*
X650494Y-201198D01*
X649478D01*
Y-202214D01*
X650494Y-203230D01*
X649478Y-204246D01*
Y-205262D01*
X716788Y-228092D02*
X717804D01*
X718820Y-227076D01*
X719836Y-228092D01*
X720852D01*
Y-227076D01*
X719836Y-226060D01*
X720852Y-225044D01*
Y-224028D01*
X719836D01*
X718820Y-225044D01*
X717804Y-224028D01*
X716788D01*
Y-225044D01*
X717804Y-226060D01*
X716788Y-227076D01*
Y-228092D01*
X356108Y-61722D02*
X357124D01*
X358140Y-60706D01*
X359156Y-61722D01*
X360172D01*
Y-60706D01*
X359156Y-59690D01*
X360172Y-58674D01*
Y-57658D01*
X359156D01*
X358140Y-58674D01*
X357124Y-57658D01*
X356108D01*
Y-58674D01*
X357124Y-59690D01*
X356108Y-60706D01*
Y-61722D01*
X464058Y-195192D02*
X465074D01*
X466090Y-194176D01*
X467106Y-195192D01*
X468122D01*
Y-194176D01*
X467106Y-193160D01*
X468122Y-192144D01*
Y-191128D01*
X467106D01*
X466090Y-192144D01*
X465074Y-191128D01*
X464058D01*
Y-192144D01*
X465074Y-193160D01*
X464058Y-194176D01*
Y-195192D01*
X462788Y-189992D02*
X463804D01*
X464820Y-188976D01*
X465836Y-189992D01*
X466852D01*
Y-188976D01*
X465836Y-187960D01*
X466852Y-186944D01*
Y-185928D01*
X465836D01*
X464820Y-186944D01*
X463804Y-185928D01*
X462788D01*
Y-186944D01*
X463804Y-187960D01*
X462788Y-188976D01*
Y-189992D01*
X281178Y-168402D02*
X282194D01*
X283210Y-167386D01*
X284226Y-168402D01*
X285242D01*
Y-167386D01*
X284226Y-166370D01*
X285242Y-165354D01*
Y-164338D01*
X284226D01*
X283210Y-165354D01*
X282194Y-164338D01*
X281178D01*
Y-165354D01*
X282194Y-166370D01*
X281178Y-167386D01*
Y-168402D01*
X138938Y-202692D02*
X139954D01*
X140970Y-201676D01*
X141986Y-202692D01*
X143002D01*
Y-201676D01*
X141986Y-200660D01*
X143002Y-199644D01*
Y-198628D01*
X141986D01*
X140970Y-199644D01*
X139954Y-198628D01*
X138938D01*
Y-199644D01*
X139954Y-200660D01*
X138938Y-201676D01*
Y-202692D01*
X66548Y-308102D02*
X67564D01*
X68580Y-307086D01*
X69596Y-308102D01*
X70612D01*
Y-307086D01*
X69596Y-306070D01*
X70612Y-305054D01*
Y-304038D01*
X69596D01*
X68580Y-305054D01*
X67564Y-304038D01*
X66548D01*
Y-305054D01*
X67564Y-306070D01*
X66548Y-307086D01*
Y-308102D01*
X83058D02*
X84074D01*
X85090Y-307086D01*
X86106Y-308102D01*
X87122D01*
Y-307086D01*
X86106Y-306070D01*
X87122Y-305054D01*
Y-304038D01*
X86106D01*
X85090Y-305054D01*
X84074Y-304038D01*
X83058D01*
Y-305054D01*
X84074Y-306070D01*
X83058Y-307086D01*
Y-308102D01*
X230378Y-375412D02*
X231394D01*
X232410Y-374396D01*
X233426Y-375412D01*
X234442D01*
Y-374396D01*
X233426Y-373380D01*
X234442Y-372364D01*
Y-371348D01*
X233426D01*
X232410Y-372364D01*
X231394Y-371348D01*
X230378D01*
Y-372364D01*
X231394Y-373380D01*
X230378Y-374396D01*
Y-375412D01*
X107218Y-103602D02*
X108234D01*
X109250Y-102586D01*
X110266Y-103602D01*
X111282D01*
Y-102586D01*
X110266Y-101570D01*
X111282Y-100554D01*
Y-99538D01*
X110266D01*
X109250Y-100554D01*
X108234Y-99538D01*
X107218D01*
Y-100554D01*
X108234Y-101570D01*
X107218Y-102586D01*
Y-103602D01*
X189738Y-123952D02*
X190754D01*
X191770Y-122936D01*
X192786Y-123952D01*
X193802D01*
Y-122936D01*
X192786Y-121920D01*
X193802Y-120904D01*
Y-119888D01*
X192786D01*
X191770Y-120904D01*
X190754Y-119888D01*
X189738D01*
Y-120904D01*
X190754Y-121920D01*
X189738Y-122936D01*
Y-123952D01*
X136398Y-93472D02*
X137414D01*
X138430Y-92456D01*
X139446Y-93472D01*
X140462D01*
Y-92456D01*
X139446Y-91440D01*
X140462Y-90424D01*
Y-89408D01*
X139446D01*
X138430Y-90424D01*
X137414Y-89408D01*
X136398D01*
Y-90424D01*
X137414Y-91440D01*
X136398Y-92456D01*
Y-93472D01*
X236728Y-132842D02*
X237744D01*
X238760Y-131826D01*
X239776Y-132842D01*
X240792D01*
Y-131826D01*
X239776Y-130810D01*
X240792Y-129794D01*
Y-128778D01*
X239776D01*
X238760Y-129794D01*
X237744Y-128778D01*
X236728D01*
Y-129794D01*
X237744Y-130810D01*
X236728Y-131826D01*
Y-132842D01*
D85*
X59182Y-173990D02*
G03*
X59182Y-173990I-2032J0D01*
G01*
Y-87590D02*
G03*
X59182Y-87590I-2032J0D01*
G01*
M02*
