G04 Layer_Color=255*
%FSLAX44Y44*%
%MOMM*%
G71*
G01*
G75*
%ADD13R,1.0000X1.0000*%
%ADD14R,1.0000X1.0000*%
%ADD16R,1.5000X1.2000*%
%ADD25O,0.3000X0.2000*%
%ADD41O,2.2000X1.0000*%
%ADD42O,2.5000X1.0000*%
%ADD43C,0.7000*%
%ADD44O,1.5000X2.0000*%
%ADD45C,2.0000*%
%ADD46C,4.0000*%
%ADD48R,1.4000X0.6000*%
%ADD49R,1.5000X1.5000*%
%ADD50R,1.5000X1.5000*%
D13*
X109250Y-151130D02*
D03*
Y-99060D02*
D03*
D14*
X248920Y-172940D02*
D03*
Y-154970D02*
D03*
X175260Y-238980D02*
D03*
Y-221010D02*
D03*
X237490Y-222030D02*
D03*
Y-240000D02*
D03*
X143510Y-131030D02*
D03*
Y-113060D02*
D03*
X561340Y-210600D02*
D03*
Y-228570D02*
D03*
X546100Y-210600D02*
D03*
Y-228570D02*
D03*
D16*
X218948Y-220472D02*
D03*
Y-239776D02*
D03*
X196342D02*
D03*
Y-220472D02*
D03*
D25*
X155194Y-218084D02*
D03*
Y-225552D02*
D03*
X142240Y-218084D02*
D03*
Y-225552D02*
D03*
D41*
X15350Y-173990D02*
D03*
Y-87590D02*
D03*
D42*
X57150Y-173990D02*
D03*
Y-87590D02*
D03*
D43*
X52150Y-159690D02*
D03*
Y-101890D02*
D03*
D44*
X187960Y-78740D02*
D03*
X213360D02*
D03*
X238760D02*
D03*
X264160D02*
D03*
X586740Y-16510D02*
D03*
X561340D02*
D03*
X612140D02*
D03*
X535940D02*
D03*
X459740D02*
D03*
X485140D02*
D03*
X510540D02*
D03*
X408940D02*
D03*
X383540D02*
D03*
X358140D02*
D03*
X434340D02*
D03*
X332740D02*
D03*
X434340Y-41910D02*
D03*
X332740D02*
D03*
X358140D02*
D03*
X383540D02*
D03*
X408940D02*
D03*
X510540D02*
D03*
X485140D02*
D03*
X459740D02*
D03*
X535940D02*
D03*
X612140D02*
D03*
X561340D02*
D03*
X586740D02*
D03*
Y-358140D02*
D03*
X561340D02*
D03*
X612140D02*
D03*
X535940D02*
D03*
X459740D02*
D03*
X485140D02*
D03*
X510540D02*
D03*
X408940D02*
D03*
X383540D02*
D03*
X358140D02*
D03*
X434340D02*
D03*
X332740D02*
D03*
X434340Y-383540D02*
D03*
X332740D02*
D03*
X358140D02*
D03*
X383540D02*
D03*
X408940D02*
D03*
X510540D02*
D03*
X485140D02*
D03*
X459740D02*
D03*
X535940D02*
D03*
X612140D02*
D03*
X561340D02*
D03*
X586740D02*
D03*
D45*
X132334Y-374142D02*
D03*
X157734D02*
D03*
X183134D02*
D03*
X723900Y-106680D02*
D03*
Y-132080D02*
D03*
Y-157480D02*
D03*
Y-182880D02*
D03*
Y-81280D02*
D03*
X161290Y-20320D02*
D03*
X135890D02*
D03*
X110490D02*
D03*
X85090D02*
D03*
D46*
X30000Y-30000D02*
D03*
Y-370000D02*
D03*
X720000D02*
D03*
Y-30000D02*
D03*
D48*
X162250Y-199390D02*
D03*
Y-186690D02*
D03*
Y-173990D02*
D03*
Y-161290D02*
D03*
Y-148590D02*
D03*
Y-135890D02*
D03*
Y-123190D02*
D03*
Y-110490D02*
D03*
X222250Y-199390D02*
D03*
Y-186690D02*
D03*
Y-173990D02*
D03*
Y-161290D02*
D03*
Y-148590D02*
D03*
Y-135890D02*
D03*
Y-123190D02*
D03*
Y-110490D02*
D03*
D49*
X500380Y-161290D02*
D03*
D50*
Y-140970D02*
D03*
Y-120650D02*
D03*
M02*
