G04 Layer_Color=255*
%FSLAX44Y44*%
%MOMM*%
G71*
G01*
G75*
%ADD10R,2.0000X0.2500*%
%ADD11R,2.0000X1.8000*%
%ADD12R,3.0000X2.0000*%
%ADD13R,1.0000X1.0000*%
%ADD14R,1.0000X1.0000*%
%ADD15R,2.0000X2.0000*%
%ADD16R,1.5000X1.2000*%
%ADD17O,2.0000X0.6000*%
%ADD18R,2.0000X0.6000*%
%ADD19R,1.2000X1.6300*%
%ADD20R,3.2000X2.0000*%
%ADD21R,1.5000X1.8000*%
%ADD22R,1.6000X0.2500*%
%ADD23R,0.2500X1.6000*%
%ADD24O,0.2000X0.3000*%
%ADD25O,0.3000X0.2000*%
%ADD26R,1.6300X1.2000*%
%ADD27R,2.2000X1.2000*%
%ADD41O,2.2000X1.0000*%
%ADD42O,2.5000X1.0000*%
%ADD43C,0.7000*%
%ADD44O,1.5000X2.0000*%
%ADD45C,2.0000*%
%ADD46C,4.0000*%
D10*
X68150Y-98290D02*
D03*
Y-105790D02*
D03*
Y-118290D02*
D03*
Y-128290D02*
D03*
Y-133290D02*
D03*
Y-143290D02*
D03*
Y-155790D02*
D03*
Y-163290D02*
D03*
Y-160790D02*
D03*
Y-148290D02*
D03*
Y-153290D02*
D03*
Y-138290D02*
D03*
Y-123290D02*
D03*
Y-113290D02*
D03*
Y-108290D02*
D03*
Y-100790D02*
D03*
D11*
X15064Y-77160D02*
D03*
X56864D02*
D03*
X57436Y-184420D02*
D03*
X15064D02*
D03*
X154432Y-203200D02*
D03*
Y-237490D02*
D03*
D12*
X81280Y-384810D02*
D03*
D13*
X214660Y-382270D02*
D03*
X232630D02*
D03*
X434310Y-149860D02*
D03*
X416340D02*
D03*
X298670Y-373380D02*
D03*
X280700D02*
D03*
Y-389890D02*
D03*
X298670D02*
D03*
X377220Y-190500D02*
D03*
X395190D02*
D03*
X30450Y-283210D02*
D03*
X12480D02*
D03*
X298670Y-355600D02*
D03*
X280700D02*
D03*
Y-339090D02*
D03*
X298670D02*
D03*
X127220Y-133350D02*
D03*
X109250D02*
D03*
X127220Y-115570D02*
D03*
X109250D02*
D03*
X193070Y-175260D02*
D03*
X211040D02*
D03*
X109250Y-99060D02*
D03*
X127220D02*
D03*
X109250Y-151130D02*
D03*
X127220D02*
D03*
X30700Y-252730D02*
D03*
X12730D02*
D03*
Y-267970D02*
D03*
X30700D02*
D03*
X306040Y-71120D02*
D03*
X288070D02*
D03*
X306040Y-85090D02*
D03*
X288070D02*
D03*
X346740Y-212090D02*
D03*
X364710D02*
D03*
X30450Y-237490D02*
D03*
X12480D02*
D03*
X109250Y-82550D02*
D03*
X127220D02*
D03*
D14*
X425450Y-203230D02*
D03*
Y-221200D02*
D03*
X410210Y-203230D02*
D03*
Y-221200D02*
D03*
X633730Y-238790D02*
D03*
Y-256760D02*
D03*
X618490Y-238790D02*
D03*
Y-256760D02*
D03*
X322580Y-228630D02*
D03*
Y-246600D02*
D03*
X664210Y-203200D02*
D03*
Y-221170D02*
D03*
X679450Y-203230D02*
D03*
Y-221200D02*
D03*
D15*
X734690Y-314960D02*
D03*
X654690D02*
D03*
X734690Y-275590D02*
D03*
X654690D02*
D03*
X103500Y-313690D02*
D03*
X23500D02*
D03*
D16*
X342392Y-248158D02*
D03*
Y-228854D02*
D03*
X364998D02*
D03*
Y-248158D02*
D03*
D17*
X174930Y-118110D02*
D03*
Y-130810D02*
D03*
Y-143510D02*
D03*
Y-156210D02*
D03*
X228930Y-118110D02*
D03*
Y-130810D02*
D03*
Y-143510D02*
D03*
X258140Y-49530D02*
D03*
Y-36830D02*
D03*
Y-24130D02*
D03*
Y-11430D02*
D03*
X204140Y-49530D02*
D03*
Y-36830D02*
D03*
Y-24130D02*
D03*
D18*
X228930Y-156210D02*
D03*
X204140Y-11430D02*
D03*
D19*
X128610Y-171450D02*
D03*
X107610D02*
D03*
X34630Y-219710D02*
D03*
X13630D02*
D03*
D20*
X104140Y-274110D02*
D03*
D21*
X127140Y-216110D02*
D03*
X104140D02*
D03*
X81140D02*
D03*
D22*
X563200Y-178160D02*
D03*
X563200Y-183160D02*
D03*
X563200Y-188160D02*
D03*
X563200Y-193160D02*
D03*
X563200Y-198160D02*
D03*
X563200Y-203160D02*
D03*
X563200Y-208160D02*
D03*
X563200Y-213160D02*
D03*
X563200Y-218160D02*
D03*
X563200Y-223160D02*
D03*
X563200Y-228160D02*
D03*
X478200D02*
D03*
X478200Y-223160D02*
D03*
X478200Y-218160D02*
D03*
X478200Y-213160D02*
D03*
X478200Y-208160D02*
D03*
X478200Y-203160D02*
D03*
X478200Y-198160D02*
D03*
X478200Y-193160D02*
D03*
X478200Y-188160D02*
D03*
X478200Y-183160D02*
D03*
X478200Y-178160D02*
D03*
X563200Y-173160D02*
D03*
X478200D02*
D03*
D23*
X493200Y-243160D02*
D03*
Y-158160D02*
D03*
X498200Y-243160D02*
D03*
X503200Y-243160D02*
D03*
X508200Y-243160D02*
D03*
X513200Y-243160D02*
D03*
X518200Y-243160D02*
D03*
X523200Y-243160D02*
D03*
X528200Y-243160D02*
D03*
X533200Y-243160D02*
D03*
X538200Y-243160D02*
D03*
X543200Y-243160D02*
D03*
X548200Y-243160D02*
D03*
Y-158160D02*
D03*
X543200Y-158160D02*
D03*
X538200Y-158160D02*
D03*
X533200Y-158160D02*
D03*
X528200Y-158160D02*
D03*
X523200Y-158160D02*
D03*
X518200Y-158160D02*
D03*
X513200Y-158160D02*
D03*
X508200Y-158160D02*
D03*
X503200Y-158160D02*
D03*
X498200Y-158160D02*
D03*
D24*
X274701Y-115063D02*
D03*
X267232D02*
D03*
X274701Y-127762D02*
D03*
X267232D02*
D03*
X275082Y-156719D02*
D03*
X267614D02*
D03*
X275082Y-144018D02*
D03*
X267614D02*
D03*
X629158Y-161036D02*
D03*
X636626D02*
D03*
X629158Y-147066D02*
D03*
X636626D02*
D03*
X629158Y-176276D02*
D03*
X636626D02*
D03*
X305562Y-32004D02*
D03*
X298094D02*
D03*
X305562Y-14224D02*
D03*
X298094D02*
D03*
D25*
X427736Y-189992D02*
D03*
Y-182524D02*
D03*
X415036Y-189992D02*
D03*
Y-182524D02*
D03*
D26*
X177800Y-201590D02*
D03*
Y-222590D02*
D03*
D27*
X389980Y-176100D02*
D03*
Y-154100D02*
D03*
D41*
X15350Y-173990D02*
D03*
Y-87590D02*
D03*
D42*
X57150Y-173990D02*
D03*
Y-87590D02*
D03*
D43*
X52150Y-159690D02*
D03*
Y-101890D02*
D03*
D44*
X187960Y-78740D02*
D03*
X213360D02*
D03*
X238760D02*
D03*
X264160D02*
D03*
X586740Y-16510D02*
D03*
X561340D02*
D03*
X612140D02*
D03*
X535940D02*
D03*
X459740D02*
D03*
X485140D02*
D03*
X510540D02*
D03*
X408940D02*
D03*
X383540D02*
D03*
X358140D02*
D03*
X434340D02*
D03*
X332740D02*
D03*
X434340Y-41910D02*
D03*
X332740D02*
D03*
X358140D02*
D03*
X383540D02*
D03*
X408940D02*
D03*
X510540D02*
D03*
X485140D02*
D03*
X459740D02*
D03*
X535940D02*
D03*
X612140D02*
D03*
X561340D02*
D03*
X586740D02*
D03*
Y-358140D02*
D03*
X561340D02*
D03*
X612140D02*
D03*
X535940D02*
D03*
X459740D02*
D03*
X485140D02*
D03*
X510540D02*
D03*
X408940D02*
D03*
X383540D02*
D03*
X358140D02*
D03*
X434340D02*
D03*
X332740D02*
D03*
X434340Y-383540D02*
D03*
X332740D02*
D03*
X358140D02*
D03*
X383540D02*
D03*
X408940D02*
D03*
X510540D02*
D03*
X485140D02*
D03*
X459740D02*
D03*
X535940D02*
D03*
X612140D02*
D03*
X561340D02*
D03*
X586740D02*
D03*
D45*
X132334Y-374142D02*
D03*
X157734D02*
D03*
X183134D02*
D03*
X723900Y-106680D02*
D03*
Y-132080D02*
D03*
Y-157480D02*
D03*
Y-182880D02*
D03*
Y-81280D02*
D03*
X161290Y-20320D02*
D03*
X135890D02*
D03*
X110490D02*
D03*
X85090D02*
D03*
D46*
X30000Y-30000D02*
D03*
Y-370000D02*
D03*
X720000D02*
D03*
Y-30000D02*
D03*
M02*
